<?xml version="1.0" encoding="UTF-8"?>
<svg width="93px" height="80px" viewBox="0 0 93 80" version="1.1" xmlns="http://www.w3.org/2000/svg" xmlns:xlink="http://www.w3.org/1999/xlink">
    <!-- Generator: sketchtool 55.2 (78181) - https://sketchapp.com -->
    <title>485D9A83-AD8D-4A8C-B825-0CFA46696741@2x</title>
    <desc>Created with sketchtool.</desc>
    <g id="Page-1" stroke="none" stroke-width="1" fill="none" fill-rule="evenodd">
        <g id="Dashboard---Expert---First-Project" transform="translate(-493.000000, -298.000000)">
            <g id="Progress-Section" transform="translate(441.000000, 232.000000)">
                <g id="graphic-matched" transform="translate(50.000000, 66.000000)">
                    <circle id="circle" fill-opacity="0.1" fill="#0AC297" cx="45" cy="40" r="40"></circle>
                    <g id="icon-large-projects" transform="translate(23.000000, 20.000000)" fill-rule="nonzero">
                        <path d="M32,8 L32,6 C32,4.344 31.326,2.84 30.242,1.758 C29.158,0.676 27.656,0 26,0 L18,0 C16.344,0 14.84,0.674 13.758,1.758 C12.676,2.842 12,4.344 12,6 L12,8 L6,8 C4.344,8 2.84,8.674 1.758,9.758 C0.676,10.842 0,12.344 0,14 L0,34 C0,35.656 0.674,37.16 1.758,38.242 C2.842,39.324 4.344,40 6,40 L38,40 C39.656,40 41.16,39.326 42.242,38.242 C43.324,37.158 44,35.656 44,34 L44,14 C44,12.344 43.326,10.84 42.242,9.758 C41.158,8.676 39.656,8 38,8 L32,8 Z" id="Path" fill="#F3F3F5"></path>
                        <path d="M16,8 L16,6 C16,5.448 16.222,4.95 16.586,4.586 C16.95,4.222 17.448,4 18,4 L26,4 C26.552,4 27.05,4.222 27.414,4.586 C27.778,4.95 28,5.448 28,6 L28,8 L16,8 Z M16,36 L16,12 L28,12 L28,36 L16,36 Z M12,12 L12,36 L6,36 C5.448,36 4.95,35.778 4.586,35.414 C4.222,35.05 4,34.552 4,34 L4,14 C4,13.448 4.222,12.95 4.586,12.586 C4.95,12.222 5.448,12 6,12 L12,12 Z M32,8 L32,6 C32,4.344 31.326,2.84 30.242,1.758 C29.158,0.676 27.656,0 26,0 L18,0 C16.344,0 14.84,0.674 13.758,1.758 C12.676,2.842 12,4.344 12,6 L12,8 L6,8 C4.344,8 2.84,8.674 1.758,9.758 C0.676,10.842 0,12.344 0,14 L0,34 C0,35.656 0.674,37.16 1.758,38.242 C2.842,39.324 4.344,40 6,40 L38,40 C39.656,40 41.16,39.326 42.242,38.242 C43.324,37.158 44,35.656 44,34 L44,14 C44,12.344 43.326,10.84 42.242,9.758 C41.158,8.676 39.656,8 38,8 L32,8 Z M32,36 L32,12 L38,12 C38.552,12 39.05,12.222 39.414,12.586 C39.778,12.95 40,13.448 40,14 L40,34 C40,34.552 39.778,35.05 39.414,35.414 C39.05,35.778 38.552,36 38,36 L32,36 Z" id="icon-projects" fill="#335262"></path>
                    </g>
                    <g id="plus-circle" transform="translate(61.000000, 4.000000)" stroke-linecap="round" stroke-linejoin="round" stroke-width="4">
                        <circle id="Oval" stroke="#335262" fill="#E8694D" cx="16" cy="16" r="16"></circle>
                        <path d="M16,10 L16,22" id="Path" stroke="#FFFFFF"></path>
                        <path d="M10,16 L22,16" id="Path" stroke="#FFFFFF"></path>
                    </g>
                    <g id="minimize" transform="translate(13.000000, 14.000000) rotate(-315.000000) translate(-13.000000, -14.000000) translate(4.000000, 5.000000)" stroke="#0AC297" stroke-linecap="round" stroke-linejoin="round" stroke-width="2">
                        <path d="M5,0 L5,3 C5,4.1045695 4.1045695,5 3,5 L0,5 M18,5 L15,5 C13.8954305,5 13,4.1045695 13,3 L13,0 M13,18 L13,15 C13,13.8954305 13.8954305,13 15,13 L18,13 M0,13 L3,13 C4.1045695,13 5,13.8954305 5,15 L5,18" id="Shape"></path>
                    </g>
                </g>
            </g>
        </g>
    </g>
</svg>