<?xml version="1.0" encoding="UTF-8"?>
<svg width="100px" height="102px" viewBox="0 0 100 102" version="1.1" xmlns="http://www.w3.org/2000/svg" xmlns:xlink="http://www.w3.org/1999/xlink">
    <!-- Generator: sketchtool 55.2 (78181) - https://sketchapp.com -->
    <title>512ECB1B-4038-4BDF-AD1E-7303A9B3BC17@2x</title>
    <desc>Created with sketchtool.</desc>
    <g id="Page-1" stroke="none" stroke-width="1" fill="none" fill-rule="evenodd">
        <g id="Dashboard---Pro-Expert" transform="translate(-484.000000, -276.000000)">
            <g id="Progress-Section" transform="translate(441.000000, 232.000000)">
                <g id="graphic-rocket" transform="translate(43.000000, 44.000000)">
                    <circle id="circle" fill-opacity="0.1" fill="#0AC297" cx="52" cy="62" r="40"></circle>
                    <path d="M33.8125,84.0625 C33.4351481,81.2951262 31.4855377,78.9985426 28.816136,78.1769303 C26.1467344,77.3553179 23.2431597,78.1581449 21.375,80.234375 C19.0099927,79.2168407 16.3910235,78.9443153 13.8671875,79.453125 C12.9677304,78.120449 11.7001096,77.0781227 10.21875,76.453125 C10.6596606,75.3526394 10.8850984,74.1777107 10.8828125,72.9921875 C10.8570329,67.8617678 6.69298268,63.7151696 1.5625,63.7109375 C0.699555078,63.7109375 0,64.4104926 0,65.2734375 C0,66.1363824 0.699555078,66.8359375 1.5625,66.8359375 C4.98229211,66.8402418 7.75350816,69.6114579 7.7578125,73.03125 C7.75494069,74.2960263 7.36208881,75.5291446 6.6328125,76.5625 C6.31953786,77.010117 6.26281922,77.588855 6.48323142,78.0887755 C6.70364362,78.5886959 7.16916918,78.9371793 7.7109375,79.0078125 C9.44478483,79.23957 10.937858,80.3460965 11.6640625,81.9375 L11.6640625,81.9375 C11.9769477,82.6113074 12.1775123,83.3317562 12.2578125,84.0703125 C12.2578125,84.9332574 12.9573676,85.6328125 13.8203125,85.6328125 C14.6832574,85.6328125 15.3828125,84.9332574 15.3828125,84.0703125 C15.3699826,83.5181149 15.288631,82.9696475 15.140625,82.4375 C17.1979262,82.1656647 19.2877803,82.5715681 21.09375,83.59375 C21.8367876,84.0138572 22.7794558,83.7599281 23.2109375,83.0234375 C23.9989068,81.6535806 25.5158369,80.8718608 27.0887067,81.0251061 C28.6615765,81.1783515 29.9990838,82.2381803 30.5078125,83.734375 C29.4323631,83.791333 28.3856374,84.1018706 27.453125,84.640625 C26.7497766,85.1094359 26.5467709,86.052584 26.9949536,86.7692533 C27.4431362,87.4859227 28.3799895,87.7162386 29.109375,87.2890625 C30.0379796,86.8760385 31.0633065,86.7299497 32.0703125,86.8671875 C34.5902902,87.3750917 36.3277054,89.6934625 36.1077718,92.2546895 C35.8878381,94.8159165 33.7806134,96.8041464 31.2109375,96.875 C30.3479926,96.875 29.6484375,97.5745551 29.6484375,98.4375 C29.6484375,99.3004449 30.3479926,100.000005 31.2109375,100.000005 C35.2230687,100.004208 38.6459907,97.0978148 39.2923577,93.1380896 C39.9387246,89.1783644 37.6177061,85.3343573 33.8125,84.0625 L33.8125,84.0625 Z" id="Path" fill="#335262" fill-rule="nonzero"></path>
                    <path d="M98.4375,63.7109375 C95.3479109,63.713785 92.4605249,65.2474934 90.7283567,67.8058449 C88.9961884,70.3641964 88.6443848,73.6146569 89.7890625,76.484375 C88.3077029,77.1093727 87.0400821,78.151699 86.140625,79.484375 C83.6168129,78.9750639 80.9976931,79.247605 78.6328125,80.265625 C76.7646528,78.1893949 73.8610781,77.3865679 71.1916765,78.2081803 C68.5222748,79.0297926 66.5726644,81.3263762 66.1953125,84.09375 C62.4397454,85.3978965 60.1657013,89.2134981 60.8055248,93.1372345 C61.4453482,97.060971 64.81374,99.9564897 68.7890625,100 C69.6520074,100 70.3515625,99.3004449 70.3515625,98.4375 C70.3515625,97.5745551 69.6520074,96.875 68.7890625,96.875 C66.1646061,96.8648113 63.9845278,94.8477658 63.7707888,92.2320075 C63.5570498,89.6162493 65.3807614,87.2720458 67.96875,86.8359375 C68.7509991,86.7060323 69.3119043,86.0107786 69.2734375,85.21875 L69.2734375,85.03125 C69.2710185,83.4498841 70.1916711,82.0125631 71.6291573,81.3535051 C73.0666434,80.6944471 74.7565186,80.9348946 75.953125,81.96875 C75.1160588,82.7370098 74.4066573,83.6336511 73.8515625,84.625 C73.5808222,85.113449 73.5912322,85.7092328 73.8788714,86.1879254 C74.1665105,86.6666179 74.6876794,86.9554944 75.2460589,86.9457379 C75.8044383,86.9359814 76.3151972,86.6290741 76.5859375,86.140625 C77.1572764,85.1115468 77.9595559,84.2290393 78.9296875,83.5625 C81.2165733,82.2839785 83.9283981,82.0014968 86.4296875,82.78125 C87.1849151,83.0223368 88.0009957,82.6596343 88.328125,81.9375 C89.0543295,80.3460965 90.5474027,79.23957 92.28125,79.0078125 L92.3359375,79.0078125 L92.421875,79.0078125 C93.2100137,78.8745459 94.0194825,78.9554928 94.765625,79.2421875 C95.5551619,79.5462766 96.4433046,79.1666916 96.7691678,78.3858896 C97.095031,77.6050875 96.7402169,76.7067617 95.96875,76.359375 C95.002955,75.9659082 93.9638409,75.7847293 92.921875,75.828125 C92.4817597,74.9669836 92.2515362,74.0139652 92.25,73.046875 C92.2456783,69.6240274 95.0146605,66.8445566 98.4375,66.8359375 C99.3004449,66.8359375 100,66.1363824 100,65.2734375 C100,64.4104926 99.3004449,63.7109375 98.4375,63.7109375 L98.4375,63.7109375 Z" id="Path" fill="#335262" fill-rule="nonzero"></path>
                    <path d="M64.484375,36.5625 C64.484375,36.1640625 64.484375,35.78125 64.484375,35.3515625 C64.484375,26.8203125 61.265625,16.1640625 57.5703125,8.7890625 C57.5209503,8.58091376 57.4217505,8.3878763 57.28125,8.2265625 C54.765625,3.3203125 52.046875,0 50,0 C47.3671875,0 44.53125,4.5078125 42.5703125,8.40625 C42.5305837,8.4708582 42.4965993,8.53882706 42.46875,8.609375 C41.765625,10.0234375 41.1796875,11.3359375 40.765625,12.3125 C37.4140625,20.2265625 35.5,28.625 35.5,35.359375 C35.5,35.765625 35.5,36.140625 35.5,36.5703125 C30.5390625,40.2109375 29.25,42.7734375 29.25,54.046875 C29.2227038,57.0289911 29.7171304,59.9929071 30.7109375,62.8046875 C30.8987739,63.2680792 31.2970396,63.613586 31.7823061,63.7341299 C32.2675726,63.8546738 32.7812205,63.7356934 33.1640625,63.4140625 L40.609375,57.1640625 C41.1907442,58.1403276 41.8574095,59.0632016 42.6015625,59.921875 C42.8977654,60.2590379 43.3246451,60.4525567 43.7734375,60.453125 L48.4375,60.453125 L48.4375,62.2578125 C48.4375,63.1207574 49.1370551,63.8203125 50,63.8203125 C50.8629449,63.8203125 51.5625,63.1207574 51.5625,62.2578125 L51.5625,60.3984375 L56.203125,60.3984375 C56.6519174,60.3978692 57.0787971,60.2043504 57.375,59.8671875 C58.1214811,59.0113116 58.7907582,58.0910556 59.375,57.1171875 L66.8203125,63.3671875 C67.2031545,63.6888184 67.7168024,63.8077988 68.2020689,63.6872549 C68.6873354,63.566711 69.0856011,63.2212042 69.2734375,62.7578125 C70.2672446,59.9460321 70.7616712,56.9821161 70.734375,54 C70.734375,42.7578125 69.4453125,40.203125 64.484375,36.5625 Z" id="Path" fill="#E2E2E8" fill-rule="nonzero"></path>
                    <path d="M50,3.125 C50.6796875,3.46875 51.7578125,4.828125 52.984375,6.890625 C52.1484375,6.8203125 51.171875,6.7890625 50.015625,6.7890625 C48.859375,6.7890625 47.8203125,6.828125 46.9765625,6.8984375 C48.203125,4.84375 49.296875,3.4765625 50,3.125 Z" id="Path" fill="#E8694D" fill-rule="nonzero"></path>
                    <path d="M45.1249991,10.3359375 C46.7294259,10.0176426 48.3653618,9.88655796 50,9.9453125 C51.6142571,9.9022353 53.2283078,10.0384863 54.8125,10.3515625 C58,16.84375 61.3750009,26.6328125 61.3750009,35.3515625 C61.375453,37.7926978 61.205771,40.2308968 60.8671875,42.6484375 C60.2421875,42.5859375 59.515625,42.5390625 58.6953125,42.4921875 C56.7421875,42.375 54.25,42.3125 51.5625,42.2890625 L51.5625,37.359375 C51.5625,36.4964301 50.8629449,35.796875 50,35.796875 C49.1370551,35.796875 48.4375,36.4964301 48.4375,37.359375 L48.4375,42.296875 C45.75,42.296875 43.2578125,42.390625 41.3046875,42.5 C40.5234375,42.546875 39.7421875,42.59375 39.1328125,42.65625 C38.794229,40.2387093 38.624547,37.8005103 38.6249991,35.359375 C38.6249991,26.5625 41.9453125,16.8203125 45.109375,10.375 L45.1249991,10.3359375 Z" id="Path" fill="#E2E2E8" fill-rule="nonzero"></path>
                    <path d="M32.9765625,59.484375 C32.5913083,57.686842 32.3949296,55.853974 32.390625,54.015625 C32.390625,45.140625 33.0859375,42.65625 35.7265625,40.3359375 C35.8515625,41.765625 36.03125,43.1640625 36.265625,44.5234375 L36.265625,44.5234375 C36.2676272,44.7218384 36.3073983,44.9180425 36.3828125,45.1015625 C36.9370892,48.2477731 37.8655538,51.3164273 39.1484375,54.2421875 L32.9765625,59.484375 Z" id="Path" fill="#FDC02E" fill-rule="nonzero"></path>
                    <path d="M44.53125,57.2734375 C42.3515625,54.5546875 40.6796875,50.4921875 39.6796875,45.75 C41.2421875,45.6015625 44.2578125,45.4453125 48.4453125,45.4140625 L48.4453125,57.2734375 L44.53125,57.2734375 Z" id="Path" fill="#E2E2E8" fill-rule="nonzero"></path>
                    <path d="M55.46875,57.2734375 L51.5625,57.2734375 L51.5625,45.4140625 C55.75,45.4140625 58.75,45.59375 60.328125,45.75 C59.328125,50.5 57.65625,54.5546875 55.46875,57.2734375 Z" id="Path" fill="#E2E2E8" fill-rule="nonzero"></path>
                    <path d="M67.015625,59.484375 L60.859375,54.28125 C62.1422587,51.3554898 63.0707233,48.2868356 63.625,45.140625 C63.7004142,44.957105 63.7401853,44.7609009 63.7421875,44.5625 L63.7421875,44.5625 C63.9765625,43.203125 64.15625,41.8046875 64.28125,40.375 C66.921875,42.71875 67.6171875,45.1796875 67.6171875,54.0546875 C67.6076044,55.8802481 67.4086222,57.6998874 67.0234375,59.484375 L67.015625,59.484375 Z" id="Path" fill="#FDC02E" fill-rule="nonzero"></path>
                    <path d="M64.484375,36.5625 C64.484375,36.1640625 64.484375,35.78125 64.484375,35.3515625 C64.484375,26.8203125 61.265625,16.1640625 57.5703125,8.7890625 C57.5209503,8.58091376 57.4217505,8.3878763 57.28125,8.2265625 C54.765625,3.3203125 52.046875,0 50,0 C47.3671875,0 44.53125,4.5078125 42.5703125,8.40625 C42.5305837,8.4708582 42.4965993,8.53882706 42.46875,8.609375 C41.765625,10.0234375 41.1796875,11.3359375 40.765625,12.3125 C37.4140625,20.2265625 35.5,28.625 35.5,35.359375 C35.5,35.765625 35.5,36.140625 35.5,36.5703125 C30.5390625,40.2109375 29.25,42.7734375 29.25,54.046875 C29.2227038,57.0289911 29.7171304,59.9929071 30.7109375,62.8046875 C30.8987739,63.2680792 31.2970396,63.613586 31.7823061,63.7341299 C32.2675726,63.8546738 32.7812205,63.7356934 33.1640625,63.4140625 L40.609375,57.1640625 C41.1907442,58.1403276 41.8574095,59.0632016 42.6015625,59.921875 C42.8977654,60.2590379 43.3246451,60.4525567 43.7734375,60.453125 L48.4375,60.453125 L48.4375,62.2578125 C48.4375,63.1207574 49.1370551,63.8203125 50,63.8203125 C50.8629449,63.8203125 51.5625,63.1207574 51.5625,62.2578125 L51.5625,60.3984375 L56.203125,60.3984375 C56.6519174,60.3978692 57.0787971,60.2043504 57.375,59.8671875 C58.1214811,59.0113116 58.7907582,58.0910556 59.375,57.1171875 L66.8203125,63.3671875 C67.2031545,63.6888184 67.7168024,63.8077988 68.2020689,63.6872549 C68.6873354,63.566711 69.0856011,63.2212042 69.2734375,62.7578125 C70.2672446,59.9460321 70.7616712,56.9821161 70.734375,54 C70.734375,42.7578125 69.4453125,40.203125 64.484375,36.5625 Z M50,3.125 C50.6796875,3.46875 51.7578125,4.828125 52.984375,6.890625 C52.1484375,6.8203125 51.171875,6.7890625 50.015625,6.7890625 C48.859375,6.7890625 47.8203125,6.828125 46.9765625,6.8984375 C48.203125,4.84375 49.296875,3.4765625 50,3.125 Z M45.1249991,10.3359375 C46.7294259,10.0176426 48.3653618,9.88655796 50,9.9453125 C51.6142571,9.9022353 53.2283078,10.0384863 54.8125,10.3515625 C58,16.84375 61.3750009,26.6328125 61.3750009,35.3515625 C61.375453,37.7926978 61.205771,40.2308968 60.8671875,42.6484375 C60.2421875,42.5859375 59.515625,42.5390625 58.6953125,42.4921875 C56.7421875,42.375 54.25,42.3125 51.5625,42.2890625 L51.5625,37.359375 C51.5625,36.4964301 50.8629449,35.796875 50,35.796875 C49.1370551,35.796875 48.4375,36.4964301 48.4375,37.359375 L48.4375,42.296875 C45.75,42.296875 43.2578125,42.390625 41.3046875,42.5 C40.5234375,42.546875 39.7421875,42.59375 39.1328125,42.65625 C38.794229,40.2387093 38.624547,37.8005103 38.6249991,35.359375 C38.6249991,26.5625 41.9453125,16.8203125 45.109375,10.375 L45.1249991,10.3359375 Z M32.9765625,59.484375 C32.5913083,57.686842 32.3949296,55.853974 32.390625,54.015625 C32.390625,45.140625 33.0859375,42.65625 35.7265625,40.3359375 C35.8515625,41.765625 36.03125,43.1640625 36.265625,44.5234375 L36.265625,44.5234375 C36.2676272,44.7218384 36.3073983,44.9180425 36.3828125,45.1015625 C36.9370892,48.2477731 37.8655538,51.3164273 39.1484375,54.2421875 L32.9765625,59.484375 Z M44.53125,57.2734375 C42.3515625,54.5546875 40.6796875,50.4921875 39.6796875,45.75 C41.2421875,45.6015625 44.2578125,45.4453125 48.4453125,45.4140625 L48.4453125,57.2734375 L44.53125,57.2734375 Z M55.46875,57.2734375 L51.5625,57.2734375 L51.5625,45.4140625 C55.75,45.4140625 58.75,45.59375 60.328125,45.75 C59.328125,50.5 57.65625,54.5546875 55.46875,57.2734375 Z M67.015625,59.484375 L60.859375,54.28125 C62.1422587,51.3554898 63.0707233,48.2868356 63.625,45.140625 C63.7004142,44.957105 63.7401853,44.7609009 63.7421875,44.5625 L63.7421875,44.5625 C63.9765625,43.203125 64.15625,41.8046875 64.28125,40.375 C66.921875,42.71875 67.6171875,45.1796875 67.6171875,54.0546875 C67.6076044,55.8802481 67.4086222,57.6998874 67.0234375,59.484375 L67.015625,59.484375 Z" id="Shape" fill="#335262" fill-rule="nonzero"></path>
                    <path d="M50,66.5546875 C49.1370551,66.5546875 48.4375,67.2542426 48.4375,68.1171875 L48.4375,91.015625 C48.4375,91.8785699 49.1370551,92.578125 50,92.578125 C50.8629449,92.578125 51.5625,91.8785699 51.5625,91.015625 L51.5625,68.1171875 C51.5625,67.2542426 50.8629449,66.5546875 50,66.5546875 Z" id="Path" fill="#335262" fill-rule="nonzero"></path>
                    <path d="M43.9296875,62.9921875 C43.0667426,62.9921875 42.3671875,63.6917426 42.3671875,64.5546875 L42.3671875,74.8046875 C42.3671875,75.6676324 43.0667426,76.3671875 43.9296875,76.3671875 C44.7926324,76.3671875 45.4921875,75.6676324 45.4921875,74.8046875 L45.4921875,64.5546875 C45.4921875,63.6917426 44.7926324,62.9921875 43.9296875,62.9921875 Z" id="Path" fill="#335262" fill-rule="nonzero"></path>
                    <path d="M56.0703125,62.9921875 C55.2073676,62.9921875 54.5078125,63.6917426 54.5078125,64.5546875 L54.5078125,74.8046875 C54.5078125,75.6676324 55.2073676,76.3671875 56.0703125,76.3671875 C56.9332574,76.3671875 57.6328125,75.6676324 57.6328125,74.8046875 L57.6328125,64.5546875 C57.6328125,63.6917426 56.9332574,62.9921875 56.0703125,62.9921875 Z" id="Path" fill="#335262" fill-rule="nonzero"></path>
                    <path d="M50,21.484375 C52.1099003,21.484375 53.8203125,23.1947872 53.8203125,25.3046875 C53.8203125,27.4145878 52.1099003,29.125 50,29.125 C47.8900997,29.125 46.1796875,27.4145878 46.1796875,25.3046875 C46.1796875,23.1947872 47.8900997,21.484375 50,21.484375 Z" id="Path" fill="#FFFFFF"></path>
                    <path d="M50,32.2421875 C46.1659946,32.237882 43.058993,29.1308804 43.0546875,25.296875 C43.0546875,21.4610848 46.1642098,18.3515625 50,18.3515625 C53.8357902,18.3515625 56.9453125,21.4610848 56.9453125,25.296875 C56.9453125,29.1326652 53.8357902,32.2421875 50,32.2421875 Z M50,21.484375 C47.8900997,21.484375 46.1796875,23.1947872 46.1796875,25.3046875 C46.1796875,27.4145878 47.8900997,29.125 50,29.125 C52.1099003,29.125 53.8203125,27.4145878 53.8203125,25.3046875 C53.8203125,23.1947872 52.1099003,21.484375 50,21.484375 Z" id="Shape" fill="#335262" fill-rule="nonzero"></path>
                </g>
            </g>
        </g>
    </g>
</svg>