<?xml version="1.0" encoding="UTF-8"?>
<svg width="45px" height="38px" viewBox="0 0 45 38" version="1.1" xmlns="http://www.w3.org/2000/svg" xmlns:xlink="http://www.w3.org/1999/xlink">
    <!-- Generator: sketchtool 55.2 (78181) - https://sketchapp.com -->
    <title>CA85CF32-DAB2-4FC5-AE11-6EAD701DDB07@2x</title>
    <desc>Created with sketchtool.</desc>
    <g id="Page-1" stroke="none" stroke-width="1" fill="none" fill-rule="evenodd">
        <g id="Dashboard---Pro-Expert" transform="translate(-1159.000000, -309.000000)" fill-rule="nonzero">
            <g id="Progress-Section" transform="translate(441.000000, 232.000000)">
                <g id="Progress" transform="translate(670.000000, 40.000000)">
                    <g id="icon-pro-expert" transform="translate(48.000000, 37.000000)">
                        <path d="M0.268709204,10.9395089 C-0.118713523,11.488198 -0.083536105,12.2890249 0.35052811,12.8029133 L21.2894676,37.4769103 C21.8765431,38.1743632 23.1234569,38.1743632 23.7105324,37.4769103 L44.6494719,12.8029133 C45.0835361,12.2890249 45.1187135,11.488198 44.7312908,10.9395089 L37.402662,0.658657577 C37.1134952,0.252512544 36.6149391,-0.0015786977 36.1103106,0 L8.88968936,0 C8.33679666,0 7.8482912,0.262639183 7.59733801,0.658657577 L0.268709204,10.9395089 Z" id="Path" fill="#009DDA"></path>
                        <path d="M7.59733801,0.658657577 L0.268709204,10.9395089 C-0.118713523,11.488198 -0.083536105,12.2890249 0.35052811,12.8029133 L21.2894676,37.4769103 C21.8765431,38.1743632 23.1234569,38.1743632 23.7105324,37.4769103 L44.6494719,12.8029133 C45.0835361,12.2890249 45.1187135,11.488198 44.7312908,10.9395089 L37.402662,0.658657577 C37.1134952,0.252512544 36.6149391,-0.0015786977 36.1103106,7.38246571e-06 L8.88968936,7.38246571e-06 C8.33679666,7.38246571e-06 7.8482912,0.262639183 7.59733801,0.658657577 L7.59733801,0.658657577 Z M11.1798859,3.08427025 L18.966554,3.08427025 L13.5355165,9.02788744 L11.1798859,3.08427025 Z M26.033446,3.08427025 L33.8201141,3.08427025 L31.4808158,9.02788744 L26.033446,3.08427025 Z M22.5,3.83929597 L28.4054091,10.2808662 L16.5945909,10.2808662 L22.5,3.83929597 Z M8.49708424,4.78703625 L10.6727447,10.2808662 L4.58736547,10.2808662 L8.49708424,4.78703625 Z M36.5029158,4.78703625 L40.4126345,10.2808662 L34.3272553,10.2808662 L36.5029158,4.78703625 Z M4.9145364,13.3651216 L11.8833295,13.3651216 L17.9523241,28.7221485 L4.9145364,13.3651216 Z M15.2531378,13.3651216 L29.7631946,13.3651216 L22.5,31.7100209 L15.2531378,13.3651216 Z M33.1166705,13.3651216 L40.0854636,13.3651216 L27.0476759,28.7221485 L33.1166705,13.3651216 Z" id="Shape" fill="#335262"></path>
                    </g>
                </g>
            </g>
        </g>
    </g>
</svg>