<?xml version="1.0" encoding="UTF-8"?>
<svg width="45px" height="38px" viewBox="0 0 28 24" version="1.1" xmlns="http://www.w3.org/2000/svg" xmlns:xlink="http://www.w3.org/1999/xlink">
    <!-- Generator: sketchtool 55.2 (78181) - https://sketchapp.com -->
    <title>F4CA16B7-9840-499D-A3CA-B63C8A065A6B@2x</title>
    <desc>Created with sketchtool.</desc>
    <g id="Page-1" stroke="none" stroke-width="1" fill="none" fill-rule="evenodd">
        <g id="Dashboard---Expert---Accepted" transform="translate(-1027.000000, -734.000000)" fill-rule="nonzero">
            <g id="Tooltip" transform="translate(996.000000, 381.000000)">
                <g id="check-circle-copy" transform="translate(20.000000, 338.000000)">
                    <g id="icon-elite-expert" transform="translate(11.000000, 15.000000)">
                        <path d="M4.72723254,0.415994259 L0.167196838,6.90916355 C-0.0738661922,7.25570399 -0.0519780209,7.76148941 0.218106379,8.08605048 L13.2467798,23.6696275 C13.6120712,24.1101242 14.3879288,24.1101242 14.7532202,23.6696275 L27.7818936,8.08605048 C28.051978,7.76148941 28.0738662,7.25570399 27.8328032,6.90916355 L23.2727675,0.415994259 C23.0928415,0.159481607 22.7826288,-0.000997072233 22.4686377,4.66260911e-06 L5.53136227,4.66260911e-06 C5.18734014,4.66260911e-06 4.88338119,0.165877378 4.72723254,0.415994259 L4.72723254,0.415994259 Z" id="Path" fill="#0AC297"></path>
                        <path d="M4.72723254,0.415994259 L0.167196838,6.90916355 C-0.0738661922,7.25570399 -0.0519780209,7.76148941 0.218106379,8.08605048 L13.2467798,23.6696275 C13.6120712,24.1101242 14.3879288,24.1101242 14.7532202,23.6696275 L27.7818936,8.08605048 C28.051978,7.76148941 28.0738662,7.25570399 27.8328032,6.90916355 L23.2727675,0.415994259 C23.0928415,0.159481607 22.7826288,-0.000997072232 22.4686377,4.66260992e-06 L5.53136227,4.66260992e-06 C5.18734014,4.66260992e-06 4.88338119,0.165877378 4.72723254,0.415994259 L4.72723254,0.415994259 Z M6.95637342,1.94796015 L11.8014114,1.94796015 L8.42209918,5.70182365 L6.95637342,1.94796015 Z M16.1985886,1.94796015 L21.0436266,1.94796015 L19.5880632,5.70182365 L16.1985886,1.94796015 Z M14,2.42481851 L17.6744768,6.49317866 L10.3255232,6.49317866 L14,2.42481851 Z M5.28707464,3.02339132 L6.64081895,6.49317866 L2.85436073,6.49317866 L5.28707464,3.02339132 Z M22.7129254,3.02339132 L25.1456393,6.49317866 L21.359181,6.49317866 L22.7129254,3.02339132 Z M3.05793376,8.44112944 L7.39407171,8.44112944 L11.170335,18.1403043 L3.05793376,8.44112944 Z M9.49084127,8.44112944 L18.5193211,8.44112944 L14,20.0273816 L9.49084127,8.44112944 Z M20.6059283,8.44112944 L24.9420662,8.44112944 L16.829665,18.1403043 L20.6059283,8.44112944 Z" id="Shape" fill="#335262"></path>
                    </g>
                </g>
            </g>
        </g>
    </g>
</svg>
