<svg xmlns="http://www.w3.org/2000/svg" xmlns:xlink="http://www.w3.org/1999/xlink" width="24" height="14" viewBox="0 0 24 14">
  <defs>
    <path id="gif@2x-a" d="M4,5 L20,5 C22.209139,5 24,6.790861 24,9 L24,15 C24,17.209139 22.209139,19 20,19 L4,19 C1.790861,19 -6.17636919e-16,17.209139 -8.8817842e-16,15 L-8.8817842e-16,9 C-1.15871992e-15,6.790861 1.790861,5 4,5 Z M9.93164391,11.4721918 L9.93164391,15.220137 C9.57365125,15.3954803 9.14260534,15.5342917 8.63849323,15.6365753 C8.13438112,15.738859 7.61931777,15.79 7.09328775,15.79 C6.28963076,15.79 5.59192084,15.629271 5.00013706,15.3078082 C4.40835328,14.9863454 3.95538977,14.5260761 3.64123295,13.9269863 C3.32707613,13.3278965 3.17000008,12.611922 3.17000008,11.7790411 C3.17000008,10.9607722 3.32707613,10.2521035 3.64123295,9.6530137 C3.95538977,9.05392395 4.40287388,8.59365458 4.98369871,8.27219178 C5.56452353,7.95072899 6.24579525,7.79 7.02753432,7.79 C7.57548227,7.79 8.08871914,7.87036449 8.56726035,8.03109589 C9.04580156,8.19182729 9.44579756,8.41830904 9.76726035,8.71054795 L9.28506857,9.74068493 C8.91976994,9.455752 8.56178265,9.25118784 8.21109597,9.1269863 C7.86040928,9.00278477 7.47685147,8.94068493 7.06041104,8.94068493 C6.25675405,8.94068493 5.64854095,9.18177841 5.2357535,9.6639726 C4.82296605,10.1461668 4.61657542,10.8511826 4.61657542,11.7790411 C4.61657542,12.7361235 4.82844545,13.4575775 5.25219186,13.9434247 C5.67593827,14.4292718 6.30789542,14.6721918 7.14808227,14.6721918 C7.65950035,14.6721918 8.1636049,14.6027861 8.66041104,14.4639726 L8.66041104,12.4913699 L6.9727398,12.4913699 L6.9727398,11.4721918 L9.93164391,11.4721918 Z M12,16.003101 L12,8 L13.45,8 L13.45,16.003101 L12,16.003101 Z M15.8199997,15.88 L15.8199997,7.88 L21.0447188,7.88 L21.0447188,9.03730337 L17.2582019,9.03730337 L17.2582019,11.2283146 L20.8199997,11.2283146 L20.8199997,12.3968539 L17.2582019,12.3968539 L17.2582019,15.88 L15.8199997,15.88 Z"/>
  </defs>
  <g fill="none" fill-rule="evenodd" transform="translate(0 -5)">
    <polygon points="0 0 24 0 24 24 0 24"/>
    <mask id="gif@2x-b" fill="#fff">
      <use xlink:href="#gif@2x-a"/>
    </mask>
    <g fill="#292934" mask="url(#gif@2x-b)" opacity=".25">
      <rect width="24" height="24"/>
    </g>
  </g>
</svg>
