<?xml version="1.0" encoding="UTF-8"?>
<svg width="46px" height="42px" viewBox="0 0 46 42" version="1.1" xmlns="http://www.w3.org/2000/svg" xmlns:xlink="http://www.w3.org/1999/xlink">
    <!-- Generator: sketchtool 55.2 (78181) - https://sketchapp.com -->
    <title>792D62BF-8F4C-4253-8802-D7122179CCA4</title>
    <desc>Created with sketchtool.</desc>
    <g id="Page-1" stroke="none" stroke-width="1" fill="none" fill-rule="evenodd">
        <g id="Project-Details---Message-Account-Manager" transform="translate(-697.000000, -207.000000)" fill-rule="nonzero">
            <g id="Dialogs" transform="translate(468.000000, 167.000000)">
                <g id="Dialog">
                    <g id="Content" transform="translate(24.000000, 24.000000)">
                        <g id="Icon---message" transform="translate(205.000000, 16.000000)">
                            <path d="M46,19 C46,8.52344 35.68262,0 23,0 C10.31738,0 0,8.52344 0,19 C0,29.47656 10.31738,38 23,38 C25.03809,38 27.08594,37.76953 29.09277,37.31348 L40.6289,41.92871 C40.74902,41.97656 40.875,42 41,42 C41.21582,42 41.42871,41.93066 41.60547,41.7959 C41.88574,41.58301 42.03223,41.23926 41.99414,40.88965 L40.88769,30.93945 C44.18848,27.56641 46,23.34473 46,19 Z" id="Shape" fill="#009DDA"></path>
                            <path d="M31,16 L15,16 C14.44727,16 14,15.55273 14,15 C14,14.44727 14.44727,14 15,14 L31,14 C31.55273,14 32,14.44727 32,15 C32,15.55273 31.55273,16 31,16 Z" id="Shape" fill="#FFFFFF"></path>
                            <path d="M25,24 L15,24 C14.44727,24 14,23.55273 14,23 C14,22.44727 14.44727,22 15,22 L25,22 C25.55273,22 26,22.44727 26,23 C26,23.55273 25.55273,24 25,24 Z" id="Shape" fill="#FFFFFF"></path>
                        </g>
                    </g>
                </g>
            </g>
        </g>
    </g>
</svg>