<?xml version="1.0" encoding="UTF-8"?>
<svg width="22px" height="21px" viewBox="0 0 22 21" version="1.1" xmlns="http://www.w3.org/2000/svg" xmlns:xlink="http://www.w3.org/1999/xlink">
    <!-- Generator: sketchtool 55.2 (78181) - https://sketchapp.com -->
    <title>77AACFEE-ADCA-498E-A168-ECC77458AB7E@2x</title>
    <desc>Created with sketchtool.</desc>
    <g id="Page-1" stroke="none" stroke-width="1" fill="none" fill-rule="evenodd">
        <g id="Project-Details---Customer---Completed" transform="translate(-798.000000, -700.000000)" fill="#FDC02E" fill-rule="nonzero">
            <g id="Feedback-Copy" transform="translate(706.000000, 672.000000)">
                <g id="stars" transform="translate(28.000000, 28.000000)">
                    <path d="M75.8969625,0.557291423 C75.8049625,0.368291423 75.6489625,0.205291423 75.4429625,0.103291423 C74.9479625,-0.140708577 74.3479625,0.0622914227 74.1039625,0.557291423 L71.2459625,6.34629142 L64.8549625,7.28129142 C64.6469625,7.31029142 64.4439625,7.40829142 64.2839625,7.57229142 C63.8979625,7.96829142 63.9069625,8.60129142 64.3019625,8.98629142 L68.9249625,13.4892914 L67.8339625,19.8512914 C67.7979625,20.0582914 67.8279625,20.2822914 67.9349625,20.4852914 C68.1919625,20.9742914 68.7969625,21.1622914 69.2859625,20.9052914 L74.9999625,17.9002914 L80.7149625,20.9052914 C80.9009625,21.0042914 81.1229625,21.0442914 81.3489625,21.0062914 C81.8929625,20.9132914 82.2589625,20.3962914 82.1659625,19.8512914 L81.0749625,13.4892914 L85.6979625,8.98629142 C85.8489625,8.84029142 85.9569625,8.64229142 85.9899625,8.41429142 C86.0699625,7.86829142 85.6919625,7.36029142 85.1449625,7.28029142 L78.7549625,6.34629142 L75.8969625,0.557291423 Z" id="star-copy-2"></path>
                </g>
            </g>
        </g>
    </g>
</svg>