<svg xmlns="http://www.w3.org/2000/svg" xmlns:xlink="http://www.w3.org/1999/xlink" width="16" height="16" viewBox="0 0 16 16">
  <defs>
    <path id="smile@2x-a" d="M12,4 C7.6,4 4,7.6 4,12 C4,16.4 7.6,20 12,20 C16.4,20 20,16.4 20,12 C20,7.6 16.4,4 12,4 Z M8,10 C8,9.26666667 8.6,8.66666667 9.33333333,8.66666667 C10.0666667,8.66666667 10.6666667,9.26666667 10.6666667,10 C10.6666667,10.7333333 10.0666667,11.3333333 9.33333333,11.3333333 C8.6,11.3333333 8,10.7333333 8,10 Z M15.3333333,14 C15.3333333,15.8666667 13.8666667,17.3333333 12,17.3333333 C10.1333333,17.3333333 8.66666667,15.8666667 8.66666667,14 L15.3333333,14 Z M14.6666667,11.3333333 C13.9333333,11.3333333 13.3333333,10.7333333 13.3333333,10 C13.3333333,9.26666667 13.9333333,8.66666667 14.6666667,8.66666667 C15.4,8.66666667 16,9.26666667 16,10 C16,10.7333333 15.4,11.3333333 14.6666667,11.3333333 Z"/>
  </defs>
  <g fill="none" fill-rule="evenodd" transform="translate(-4 -4)">
    <polygon points="0 0 24 0 24 24 0 24"/>
    <mask id="smile@2x-b" fill="#fff">
      <use xlink:href="#smile@2x-a"/>
    </mask>
    <g fill="#292934" mask="url(#smile@2x-b)" opacity=".25">
      <rect width="24" height="24"/>
    </g>
  </g>
</svg>
