<?xml version="1.0" encoding="UTF-8"?>
<svg width="46px" height="46px" viewBox="0 0 46 46" version="1.1" xmlns="http://www.w3.org/2000/svg" xmlns:xlink="http://www.w3.org/1999/xlink">
    <!-- Generator: sketchtool 55.2 (78181) - https://sketchapp.com -->
    <title>2AEF4379-0C40-4181-A1D5-E07122CBC04A@2x</title>
    <desc>Created with sketchtool.</desc>
    <g id="Page-1" stroke="none" stroke-width="1" fill="none" fill-rule="evenodd">
        <g id="Wizard---Help-Modal" transform="translate(-697.000000, -243.000000)">
            <g id="Dialog" transform="translate(468.000000, 200.000000)">
                <g id="Content" transform="translate(24.000000, 44.000000)">
                    <g id="Group-2" transform="translate(206.000000, 0.000000)">
                        <path d="M37.5547359,6.44266119 C33.3988544,2.28762561 27.8736044,0 21.9958438,0 C16.1180832,0 10.5921876,2.28827111 6.43566047,6.44395217 C-2.14468211,15.0212572 -2.14532773,28.9787428 6.43436922,37.5566933 C10.5908964,41.7123744 16.1161463,44 21.9939069,44 C27.8716676,44 33.3982088,41.7117289 37.5547359,37.5560478 C41.711263,33.4010122 44,27.8762415 44,21.9996773 C44,16.1237585 41.711263,10.5983423 37.5547359,6.44266119 Z M15.1438366,28.8502897 C11.3656451,25.0728673 11.3656451,18.9271327 15.1438366,15.1497103 C16.9741806,13.3203844 19.4075373,12.312125 21.9951982,12.312125 C24.5828591,12.312125 27.0162158,13.3203844 28.8465598,15.1497103 C32.6247512,18.9271327 32.6247512,25.0728673 28.8465598,28.8502897 C27.0162158,30.6796156 24.5828591,31.687875 21.9951982,31.687875 C19.4075373,31.687875 16.9741806,30.6796156 15.1438366,28.8502897 Z M32.8462003,30.1102912 C36.4345783,25.316218 36.4345783,18.683782 32.8462003,13.8897088 L36.1124119,10.624162 C38.7116941,13.8374239 40.1269018,17.8091396 40.1269018,21.9996773 C40.1269018,26.1895694 38.7116941,30.1619306 36.1117663,33.3745471 L32.8462003,30.1102912 Z M33.3730294,7.88662803 L30.108109,11.1508839 C27.7767608,9.40095357 24.962486,8.44046065 21.9951982,8.44046065 C19.0279104,8.44046065 16.2136355,9.40095357 13.8822874,11.1508839 L10.6180126,7.88727353 C13.8319287,5.28787501 17.8050986,3.87295533 21.9958438,3.87295533 C26.1872346,3.87295533 30.1604045,5.28722952 33.3730294,7.88662803 Z M7.87927567,10.6254529 L11.1448417,13.8903543 C7.55646369,18.6844275 7.55646369,25.3168635 11.1448417,30.1109367 L7.87863005,33.3764835 C2.53867418,26.7614758 2.53867418,17.2398152 7.87927567,10.6254529 Z M10.6173669,36.1140175 L13.8822874,32.8497616 C16.2136355,34.5996919 19.0279104,35.5601848 21.9951982,35.5601848 C24.962486,35.5601848 27.7767608,34.5996919 30.108109,32.8497616 L33.3723838,36.113372 C30.1584677,38.7127705 26.1852978,40.1276902 21.9939069,40.1276902 C17.8031617,40.1276902 13.8312831,38.713416 10.6173669,36.1140175 Z" id="Shape" stroke="#FFFFFF" stroke-width="2" fill="#292934" fill-rule="nonzero"></path>
                        <path d="M32.4459128,29.8106749 C35.9013408,25.1942229 35.9013408,18.8057771 32.4459128,14.1893251 L32.1862818,13.8424581 L36.1517606,9.87778654 L36.5011485,10.3097039 C39.181358,13.6230091 40.6269018,17.7088895 40.6269018,21.9996773 C40.6269018,26.2904049 39.1809865,30.3768493 36.5004338,33.6890905 L36.1510629,34.1207928 L32.1862559,30.1575765 L32.4459128,29.8106749 Z" id="Path" stroke="#DF674C" fill="#DF674C" fill-rule="nonzero"></path>
                        <path d="M33.3730294,7.88662803 L30.108109,11.1508839 C27.7767608,9.40095357 24.962486,8.44046065 21.9951982,8.44046065 C19.0279104,8.44046065 16.2136355,9.40095357 13.8822874,11.1508839 L10.6180126,7.88727353 C13.8319287,5.28787501 17.8050986,3.87295533 21.9958438,3.87295533 C26.1872346,3.87295533 30.1604045,5.28722952 33.3730294,7.88662803 Z" id="Path"></path>
                        <path d="M7.83956886,9.8787194 L11.8047602,13.8431036 L11.5451292,14.1899706 C8.0897012,18.8064225 8.0897012,25.1948684 11.5451292,29.8113204 L11.8047602,30.1581874 L7.83888101,34.1232593 L7.48957509,33.6905476 C2.00158905,26.8921637 2.00178477,17.1088448 7.49025426,10.3113473 L7.83956886,9.8787194 Z" id="Path" stroke="#DF674C" fill="#DF674C"></path>
                        <path d="M10.6173669,36.1140175 L13.8822874,32.8497616 C16.2136355,34.5996919 19.0279104,35.5601848 21.9951982,35.5601848 C24.962486,35.5601848 27.7767608,34.5996919 30.108109,32.8497616 L33.3723838,36.113372 C30.1584677,38.7127705 26.1852978,40.1276902 21.9939069,40.1276902 C17.8031617,40.1276902 13.8312831,38.713416 10.6173669,36.1140175 Z" id="Path"></path>
                    </g>
                </g>
            </g>
        </g>
    </g>
</svg>