<?xml version="1.0" encoding="UTF-8"?>
<svg width="80px" height="87px" viewBox="0 0 80 87" version="1.1" xmlns="http://www.w3.org/2000/svg" xmlns:xlink="http://www.w3.org/1999/xlink">
    <!-- Generator: sketchtool 55.2 (78181) - https://sketchapp.com -->
    <title>E9E8364B-83EF-4530-9B04-B2A80CECB23D@2x</title>
    <desc>Created with sketchtool.</desc>
    <g id="Page-1" stroke="none" stroke-width="1" fill="none" fill-rule="evenodd">
        <g id="Dashboard---Expert---How-it-Works" transform="translate(-501.000000, -292.000000)">
            <g id="Progress-Section" transform="translate(441.000000, 272.000000)">
                <g id="graphic-calendar" transform="translate(60.000000, 20.000000)">
                    <circle id="circle" fill-opacity="0.1" fill="#0AC297" cx="40" cy="40" r="40"></circle>
                    <rect id="Rectangle" stroke="#335262" stroke-width="4" stroke-linecap="round" stroke-linejoin="round" x="14" y="49" width="36" height="36" rx="4"></rect>
                    <path d="M40,45 L40,53" id="Path" stroke="#335262" stroke-width="4" stroke-linecap="round" stroke-linejoin="round"></path>
                    <path d="M24,45 L24,53" id="Path" stroke="#335262" stroke-width="4" stroke-linecap="round" stroke-linejoin="round"></path>
                    <path d="M14,61 L50,61" id="Path" stroke="#335262" stroke-width="4" stroke-linecap="round" stroke-linejoin="round"></path>
                    <path d="M33,67 L41,67 C42.1045695,67 43,67.8954305 43,69 C43,70.1045695 42.1045695,71 41,71 L33,71 C31.8954305,71 31,70.1045695 31,69 C31,67.8954305 31.8954305,67 33,67 Z" id="Rectangle" fill="#E8694D"></path>
                    <path d="M22,75 L36,75 C37.1045695,75 38,75.8954305 38,77 C38,78.1045695 37.1045695,79 36,79 L22,79 C20.8954305,79 20,78.1045695 20,77 C20,75.8954305 20.8954305,75 22,75 Z" id="Rectangle-Copy-2" fill="#E8694D"></path>
                </g>
            </g>
        </g>
    </g>
</svg>