<svg id="Layer_1" data-name="Layer 1" xmlns="http://www.w3.org/2000/svg" viewBox="0 0 664.94 94.53"><title>torchlite-logo-black</title><polygon points="62.26 0 62.26 0 77.82 22.94 46.69 22.94 62.26 0"/><polygon points="77.82 22.94 77.82 22.94 93.39 45.88 62.26 45.88 77.82 22.94"/><polygon points="31.13 45.88 31.13 45.88 46.69 68.82 15.56 68.82 31.13 45.88"/><polygon points="62.26 45.88 62.26 45.88 77.82 68.82 46.69 68.82 62.26 45.88"/><polygon points="15.57 68.82 15.57 68.82 31.13 91.76 0 91.76 15.57 68.82"/><polygon points="46.7 68.82 46.7 68.82 62.26 91.76 31.13 91.76 46.7 68.82"/><polygon points="77.82 68.82 77.82 68.82 93.39 91.76 62.26 91.76 77.82 68.82"/><polygon points="108.95 68.82 108.95 68.82 124.52 91.76 93.39 91.76 108.95 68.82"/><path d="M592.84,107.92V35.55h21.93V57.37h14.55V75H614.76v28.62c0,4.39,2,6.23,6,6.23a19.26,19.26,0,0,0,8.31-2.07l7.37,12.9c-3.92,2.19-10.26,7.88-22.6,7.88C600.68,128.58,592.84,122.81,592.84,107.92Z" transform="translate(-41.82 -34.28)"/><path d="M246.32,92.62v-.26c0-19.83,16.22-36.44,38.63-36.44s38.38,16.35,38.38,36.18v.25c0,19.84-16.22,36.45-38.63,36.45S246.32,112.45,246.32,92.62Zm53.18,0v-.26c0-8.5-6.18-15.71-14.8-15.71-8.89,0-14.55,7.09-14.55,15.45v.25c0,8.5,6.18,15.71,14.81,15.71C293.84,108.07,299.5,101,299.5,92.62Z" transform="translate(-41.82 -34.28)"/><path d="M381.24,92.57v-.26c0-19.73,15.35-36.37,37.41-36.37,14.31,0,23.86,6.19,29.79,15.61L431.8,83.92c-3.35-4.64-7.09-7.35-13-7.35-7.87,0-13.67,7-13.67,15.48v.26c0,9,5.67,15.86,13.92,15.86,5.81,0,9.55-2.71,13.41-7.22l16.38,11.87c-6.45,9.54-15.73,16-31.09,16A36,36,0,0,1,381.24,92.57Z" transform="translate(-41.82 -34.28)"/><path d="M455.65,35.55h21.93v30.3c4-5.2,9.81-9.93,18.7-9.93,13.27,0,21.24,8.77,21.24,23v48.41H495.58V85.94c0-6.81-3.58-10.5-8.77-10.5s-9.23,3.69-9.23,10.5v41.37H455.65Z" transform="translate(-41.82 -34.28)"/><path d="M527.88,35.55h21.93v91.75H527.88Z" transform="translate(-41.82 -34.28)"/><path d="M560.61,57.37h21.93v69.94H560.61Z" transform="translate(-41.82 -34.28)"/><path d="M636.31,92.55v-.26c0-20.39,14.58-36.51,35.23-36.51,24.13,0,35.22,17.67,35.22,38.19,0,1.55,0,3.35-.13,5H659.92c1.93,7.62,7.48,11.48,15.09,11.48,5.81,0,10.46-2.19,15.48-7.1L704,114.62c-6.71,8.51-16.38,14.2-30.32,14.2C651.79,128.81,636.31,114.23,636.31,92.55Zm47.48-6.06c-.9-7.74-5.42-12.64-12.13-12.64-6.45,0-10.84,5-12.13,12.64Z" transform="translate(-41.82 -34.28)"/><path d="M202.76,107.92V35.55h21.93V57.37h14.54V75H224.69v28.62c0,4.39,2,6.23,6,6.23a19.25,19.25,0,0,0,8.31-2.07l7.37,12.9c-3.92,2.19-10.26,7.88-22.6,7.88C210.61,128.58,202.76,122.81,202.76,107.92Z" transform="translate(-41.82 -34.28)"/><path d="M353,69.95V57.37H331v69.94H353V100.41c0-25.11,22.92-21,22.92-21V56.3S358.63,53.29,353,69.95Z" transform="translate(-41.82 -34.28)"/><polygon points="529.76 0 529.76 0 540.72 16.16 518.79 16.16 529.76 0"/></svg>