<svg id="svg" version="1.1" xmlns="http://www.w3.org/2000/svg" xmlns:xlink="http://www.w3.org/1999/xlink" width="400" height="57.142857142857146" viewBox="0, 0, 400,57.142857142857146"><g id="svgg"><path id="path0" d="M37.033 0.476 C 36.914 0.551,36.804 0.775,36.790 0.973 C 36.775 1.171,36.714 1.333,36.654 1.333 C 36.595 1.333,36.584 1.532,36.631 1.775 C 36.689 2.079,36.656 2.180,36.524 2.098 C 36.409 2.027,36.328 2.100,36.320 2.282 C 36.312 2.466,36.274 2.500,36.221 2.369 C 36.174 2.252,36.226 2.045,36.338 1.911 C 36.473 1.748,36.480 1.667,36.360 1.667 C 35.871 1.667,35.830 2.316,36.290 2.763 C 36.543 3.008,36.665 3.163,36.561 3.106 C 36.454 3.049,36.330 3.161,36.277 3.363 C 36.198 3.668,36.144 3.689,35.921 3.504 C 35.774 3.382,35.700 3.156,35.753 2.990 C 35.805 2.828,35.773 2.649,35.682 2.593 C 35.487 2.472,35.109 3.105,35.245 3.325 C 35.297 3.409,35.259 3.526,35.161 3.587 C 35.040 3.662,35.052 3.779,35.200 3.959 C 35.392 4.191,35.375 4.199,35.052 4.027 C 34.627 3.800,34.300 4.098,34.687 4.359 C 34.861 4.476,34.836 4.502,34.583 4.465 C 34.387 4.437,34.267 4.502,34.292 4.625 C 34.315 4.740,34.249 4.815,34.146 4.792 C 34.043 4.769,33.920 4.854,33.874 4.982 C 33.823 5.122,33.863 5.168,33.976 5.098 C 34.096 5.024,34.126 5.078,34.061 5.249 C 34.005 5.395,33.921 5.476,33.874 5.430 C 33.750 5.306,33.160 6.101,33.085 6.492 C 33.049 6.676,33.091 6.870,33.178 6.924 C 33.267 6.979,33.226 7.131,33.083 7.274 C 32.944 7.413,32.878 7.604,32.936 7.698 C 33.003 7.807,33.094 7.786,33.185 7.643 C 33.266 7.515,33.329 7.497,33.331 7.602 C 33.332 7.703,33.146 7.927,32.917 8.100 C 32.688 8.272,32.500 8.495,32.500 8.595 C 32.500 8.805,31.904 8.799,31.712 8.588 C 31.641 8.510,31.662 8.491,31.759 8.546 C 31.856 8.601,32.018 8.426,32.120 8.156 C 32.404 7.403,32.031 7.562,31.681 8.343 C 31.514 8.715,31.312 9.034,31.231 9.052 C 31.150 9.069,31.102 9.140,31.125 9.208 C 31.148 9.277,31.092 9.333,31.000 9.333 C 30.908 9.333,30.833 9.479,30.833 9.657 C 30.833 9.835,30.684 10.086,30.501 10.214 C 30.318 10.342,30.215 10.493,30.271 10.549 C 30.371 10.649,29.930 11.184,29.756 11.173 C 29.707 11.169,29.627 11.167,29.577 11.167 C 29.528 11.167,29.568 11.316,29.666 11.498 C 29.849 11.840,30.146 11.875,30.388 11.583 C 30.470 11.484,30.498 11.517,30.457 11.667 C 30.383 11.939,30.060 12.004,29.667 11.825 C 29.353 11.683,28.966 11.810,29.092 12.014 C 29.144 12.098,29.102 12.167,29.000 12.167 C 28.898 12.167,28.857 12.236,28.910 12.322 C 28.962 12.407,28.939 12.518,28.858 12.568 C 28.778 12.618,28.747 12.867,28.792 13.121 C 28.868 13.559,28.859 13.566,28.625 13.262 C 28.382 12.946,28.374 12.947,28.185 13.299 C 27.990 13.664,28.226 14.333,28.550 14.333 C 28.625 14.333,28.648 14.271,28.601 14.194 C 28.553 14.118,28.611 14.056,28.729 14.056 C 28.892 14.056,28.900 14.144,28.765 14.432 C 28.645 14.686,28.547 14.745,28.463 14.612 C 28.388 14.494,28.332 14.582,28.323 14.833 C 28.314 15.063,28.269 15.156,28.223 15.041 C 28.176 14.925,28.082 14.866,28.014 14.908 C 27.945 14.951,27.889 14.880,27.889 14.752 C 27.889 14.624,27.933 14.533,27.986 14.551 C 28.092 14.586,28.167 14.428,28.167 14.167 C 28.167 13.898,27.712 13.976,27.601 14.264 C 27.442 14.678,27.476 14.798,27.852 15.148 C 28.047 15.330,28.318 15.431,28.462 15.376 C 28.633 15.311,28.680 15.343,28.601 15.472 C 28.412 15.778,28.689 15.700,28.922 15.381 C 29.087 15.155,29.180 15.137,29.370 15.295 C 29.549 15.443,31.668 15.496,37.621 15.503 L 45.632 15.512 46.547 15.079 C 47.296 14.724,47.481 14.552,47.565 14.135 C 47.705 13.432,47.693 13.297,47.500 13.417 C 47.408 13.473,47.333 13.394,47.333 13.239 C 47.333 13.014,47.286 12.998,47.092 13.159 C 46.889 13.328,46.864 13.289,46.931 12.917 C 46.985 12.621,46.950 12.511,46.828 12.587 C 46.726 12.650,46.658 12.600,46.675 12.475 C 46.756 11.887,46.658 11.747,46.400 12.083 C 46.155 12.403,46.149 12.398,46.257 11.958 C 46.320 11.702,46.300 11.500,46.212 11.500 C 46.125 11.500,46.044 11.766,46.032 12.090 C 46.020 12.415,46.076 12.639,46.157 12.589 C 46.238 12.539,46.286 12.624,46.263 12.777 C 46.241 12.930,46.093 13.075,45.935 13.098 C 45.733 13.127,45.696 13.082,45.809 12.945 C 45.914 12.817,45.888 12.578,45.732 12.250 C 45.602 11.975,45.538 11.900,45.591 12.083 C 45.669 12.355,45.646 12.377,45.472 12.204 C 45.182 11.916,45.167 10.677,45.455 10.788 C 45.698 10.881,45.746 10.569,45.511 10.424 C 45.426 10.371,45.239 10.496,45.095 10.701 C 44.951 10.906,44.833 10.978,44.833 10.861 C 44.833 10.743,44.758 10.693,44.667 10.750 C 44.575 10.807,44.500 10.769,44.500 10.667 C 44.500 10.562,44.409 10.535,44.292 10.605 C 44.159 10.685,44.169 10.625,44.320 10.439 C 44.520 10.193,44.521 10.156,44.324 10.199 C 44.030 10.263,43.902 9.531,44.162 9.272 C 44.304 9.131,44.328 9.219,44.258 9.620 C 44.181 10.055,44.212 10.139,44.417 10.060 C 44.557 10.007,44.771 10.045,44.892 10.147 C 45.176 10.382,45.387 10.182,45.153 9.900 C 45.055 9.783,44.860 9.731,44.718 9.785 C 44.503 9.868,44.492 9.826,44.650 9.531 C 44.812 9.229,44.779 9.139,44.421 8.904 C 44.191 8.753,44.044 8.563,44.095 8.482 C 44.145 8.400,44.102 8.333,44.000 8.333 C 43.898 8.333,43.867 8.247,43.933 8.141 C 44.006 8.022,43.978 7.994,43.859 8.067 C 43.751 8.134,43.666 8.090,43.664 7.968 C 43.662 7.808,43.614 7.816,43.483 8.000 C 43.340 8.201,43.321 8.176,43.387 7.875 C 43.432 7.669,43.409 7.500,43.336 7.500 C 43.263 7.500,43.214 7.369,43.227 7.208 C 43.240 7.048,43.156 6.935,43.042 6.958 C 42.927 6.981,42.852 6.906,42.875 6.792 C 42.898 6.677,42.817 6.604,42.696 6.629 C 42.575 6.654,42.523 6.597,42.582 6.503 C 42.698 6.314,42.293 5.833,42.017 5.833 C 41.921 5.833,41.893 5.963,41.954 6.125 C 42.053 6.385,42.031 6.383,41.748 6.103 C 41.537 5.893,41.410 5.854,41.366 5.987 C 41.294 6.201,40.846 5.714,40.841 5.417 C 40.840 5.325,40.906 5.357,40.989 5.488 C 41.149 5.741,41.636 5.872,41.874 5.725 C 41.952 5.677,41.931 5.534,41.827 5.409 C 41.723 5.284,41.676 5.120,41.721 5.046 C 41.960 4.661,40.902 3.789,40.582 4.106 C 40.299 4.386,40.279 4.388,40.379 4.125 C 40.476 3.868,40.375 3.780,40.000 3.798 C 39.954 3.800,39.756 3.472,39.560 3.069 C 39.363 2.666,39.261 2.372,39.333 2.416 C 39.404 2.460,39.555 2.385,39.668 2.248 C 39.781 2.112,39.808 2.000,39.727 2.000 C 39.423 2.000,38.681 1.158,38.773 0.918 C 38.936 0.492,37.559 0.142,37.033 0.476 M38.437 0.715 C 38.477 0.755,38.539 1.014,38.574 1.291 C 38.640 1.816,38.084 1.914,37.892 1.412 C 37.847 1.295,37.664 1.242,37.475 1.292 C 37.218 1.359,37.191 1.413,37.361 1.521 C 37.513 1.617,37.520 1.662,37.385 1.664 C 37.105 1.668,36.899 1.284,37.138 1.204 C 37.247 1.168,37.294 1.070,37.242 0.988 C 37.191 0.905,37.266 0.882,37.408 0.936 C 37.714 1.054,37.762 0.737,37.458 0.602 C 37.344 0.551,37.501 0.539,37.807 0.576 C 38.114 0.613,38.397 0.675,38.437 0.715 M39.617 2.439 C 39.456 2.600,39.692 3.004,39.879 2.888 C 39.988 2.821,40.018 2.879,39.958 3.036 C 39.904 3.177,39.944 3.377,40.046 3.480 C 40.299 3.733,40.713 3.717,40.618 3.458 C 40.576 3.344,40.452 3.271,40.342 3.296 C 40.213 3.325,40.179 3.225,40.245 3.014 C 40.347 2.693,39.833 2.222,39.617 2.439 M40.995 4.507 C 40.860 4.592,40.637 4.660,40.500 4.658 C 40.355 4.656,40.425 4.558,40.666 4.424 C 41.114 4.177,41.403 4.249,40.995 4.507 M34.167 5.833 C 34.348 5.951,34.357 5.996,34.198 5.997 C 34.079 5.999,34.023 6.070,34.076 6.155 C 34.129 6.240,34.102 6.353,34.017 6.406 C 33.932 6.459,33.883 6.370,33.908 6.209 C 33.932 6.048,33.870 5.862,33.768 5.794 C 33.663 5.725,33.655 5.672,33.750 5.672 C 33.842 5.672,34.029 5.744,34.167 5.833 M32.528 6.881 C 32.394 7.044,32.352 7.296,32.423 7.519 C 32.573 7.991,32.887 7.535,32.803 6.968 C 32.755 6.646,32.728 6.638,32.528 6.881 M31.897 9.864 C 31.738 10.122,31.444 9.919,31.416 9.531 C 31.391 9.188,31.408 9.183,31.691 9.438 C 31.856 9.588,31.950 9.780,31.897 9.864 M31.137 10.443 C 31.069 10.789,30.500 10.893,30.500 10.559 C 30.500 10.424,30.570 10.357,30.655 10.410 C 30.740 10.462,30.857 10.429,30.915 10.336 C 31.076 10.076,31.197 10.135,31.137 10.443 M45.449 11.107 C 45.558 11.152,45.603 11.305,45.549 11.447 C 45.463 11.670,45.503 11.677,45.846 11.493 C 46.244 11.280,46.005 11.020,45.417 11.025 C 45.325 11.026,45.340 11.063,45.449 11.107 M29.614 12.442 C 29.554 12.502,29.635 12.653,29.794 12.778 C 30.007 12.945,30.019 12.993,29.840 12.961 C 29.429 12.886,29.175 12.602,29.393 12.461 C 29.630 12.308,29.758 12.297,29.614 12.442 " stroke="none" fill="#dc644c" fill-rule="evenodd"></path><path id="path1" d="M316.767 0.265 C 316.711 0.411,316.715 0.617,316.776 0.723 C 316.837 0.830,316.826 0.862,316.752 0.794 C 316.677 0.727,316.438 0.877,316.220 1.128 C 315.646 1.788,315.602 1.854,315.278 2.542 C 315.117 2.885,314.911 3.167,314.821 3.167 C 314.732 3.167,314.587 3.354,314.500 3.583 C 314.413 3.813,314.272 4.000,314.187 4.000 C 314.102 4.000,313.956 4.219,313.863 4.487 C 313.770 4.754,313.556 5.129,313.388 5.320 C 313.221 5.511,312.954 5.815,312.796 5.996 C 312.638 6.177,312.460 6.516,312.402 6.750 C 312.343 6.984,312.154 7.251,311.981 7.344 C 311.808 7.436,311.667 7.612,311.667 7.736 C 311.667 7.859,311.499 8.071,311.293 8.207 C 310.997 8.404,310.917 8.623,310.902 9.269 C 310.878 10.368,310.854 10.457,310.667 10.167 C 310.527 9.951,310.505 9.955,310.503 10.197 C 310.494 11.108,310.948 11.167,317.942 11.164 C 325.005 11.162,325.041 11.159,325.313 10.561 C 325.671 9.776,325.244 8.312,324.789 8.766 C 324.734 8.821,324.729 8.715,324.777 8.531 C 324.870 8.176,324.329 7.738,324.079 7.964 C 324.006 8.030,324.000 7.991,324.064 7.878 C 324.174 7.687,323.978 7.168,323.642 6.760 C 323.013 5.998,322.497 5.253,322.412 4.985 C 322.356 4.810,322.241 4.667,322.155 4.667 C 322.070 4.667,322.000 4.555,322.000 4.418 C 322.000 4.281,321.850 4.076,321.667 3.961 C 321.483 3.847,321.333 3.685,321.333 3.601 C 321.333 3.517,321.146 3.202,320.917 2.902 C 320.688 2.601,320.500 2.287,320.500 2.204 C 320.500 2.120,320.350 1.916,320.167 1.750 C 319.983 1.584,319.833 1.339,319.833 1.206 C 319.833 1.061,319.735 1.002,319.585 1.060 C 319.442 1.114,319.354 1.069,319.377 0.952 C 319.399 0.841,319.334 0.765,319.233 0.783 C 319.124 0.803,319.081 0.652,319.127 0.408 C 319.226 -0.109,316.963 -0.246,316.767 0.265 M93.926 0.537 C 93.467 1.192,93.540 48.040,94.001 48.796 C 94.184 49.096,94.333 49.588,94.333 49.888 C 94.333 50.210,94.505 50.668,94.750 51.000 C 94.979 51.311,95.167 51.686,95.167 51.834 C 95.167 52.202,96.501 53.686,96.714 53.554 C 96.808 53.496,96.836 53.528,96.775 53.626 C 96.579 53.943,96.861 54.341,97.521 54.677 C 97.876 54.858,98.167 55.079,98.167 55.167 C 98.167 55.255,98.354 55.374,98.583 55.432 C 98.813 55.489,99.000 55.594,99.000 55.665 C 99.000 55.810,99.672 56.098,100.417 56.272 C 100.692 56.336,101.004 56.507,101.112 56.653 C 101.423 57.075,112.818 57.049,113.287 56.625 C 113.465 56.465,113.772 56.333,113.971 56.333 C 114.170 56.333,114.333 56.254,114.333 56.157 C 114.333 56.060,114.413 56.029,114.509 56.089 C 114.805 56.272,115.472 56.018,115.578 55.683 C 115.646 55.468,115.783 55.395,116.007 55.454 C 116.374 55.550,117.333 55.207,117.333 54.980 C 117.333 54.899,117.472 54.833,117.641 54.833 C 117.981 54.833,118.667 54.306,118.667 54.045 C 118.667 53.954,118.845 53.914,119.063 53.955 C 119.332 54.007,119.535 53.922,119.695 53.694 C 119.825 53.509,120.127 53.308,120.366 53.248 C 121.289 53.016,122.291 51.000,121.482 51.000 C 121.400 51.000,121.333 50.886,121.333 50.747 C 121.333 50.375,120.486 48.817,120.229 48.719 C 120.108 48.673,119.960 48.373,119.900 48.054 C 119.830 47.680,119.658 47.413,119.416 47.303 C 119.187 47.198,119.068 47.025,119.111 46.857 C 119.197 46.528,118.442 45.452,118.249 45.627 C 118.174 45.695,118.165 45.660,118.228 45.550 C 118.406 45.240,117.473 43.698,117.042 43.589 C 116.835 43.536,116.667 43.420,116.667 43.330 C 116.667 43.240,116.404 43.167,116.083 43.167 C 115.763 43.167,115.500 43.232,115.500 43.311 C 115.500 43.391,115.194 43.497,114.820 43.547 C 114.447 43.597,114.009 43.757,113.849 43.903 C 112.877 44.782,109.000 44.005,109.000 42.931 C 109.000 42.808,108.888 42.614,108.750 42.500 C 108.534 42.321,108.500 41.166,108.500 33.980 L 108.500 25.667 112.339 25.667 C 118.111 25.667,117.667 26.185,117.667 19.447 C 117.667 12.482,118.097 13.014,112.458 13.006 L 108.500 13.000 108.500 6.954 C 108.500 1.751,108.464 0.856,108.241 0.537 L 107.981 0.167 101.083 0.167 L 94.186 0.167 93.926 0.537 M247.099 0.385 C 246.934 0.505,246.736 0.936,246.657 1.343 C 246.437 2.487,246.460 54.860,246.681 55.739 C 246.961 56.849,246.852 56.833,254.496 56.833 L 261.309 56.833 261.659 56.388 C 262.010 55.943,262.010 55.932,261.963 43.138 C 261.938 36.095,261.973 30.333,262.042 30.333 C 262.110 30.333,262.167 30.043,262.167 29.687 C 262.167 29.316,262.273 28.952,262.417 28.833 C 262.554 28.719,262.667 28.491,262.667 28.325 C 262.667 27.732,264.222 26.388,265.052 26.263 C 265.467 26.201,265.896 26.042,266.007 25.908 C 266.273 25.588,266.471 25.603,267.250 26.000 C 267.610 26.183,268.070 26.333,268.272 26.333 C 268.715 26.333,270.167 27.729,270.167 28.154 C 270.167 28.316,270.317 28.584,270.500 28.750 C 270.828 29.047,270.833 29.263,270.833 42.367 C 270.833 56.487,270.831 56.438,271.591 56.730 C 272.084 56.919,285.120 56.847,285.547 56.653 C 286.332 56.295,286.333 56.275,286.333 40.871 C 286.333 26.473,286.271 24.667,285.778 24.667 C 285.643 24.667,285.583 24.163,285.583 23.017 C 285.583 21.681,285.528 21.307,285.292 21.046 C 285.131 20.869,285.000 20.601,285.000 20.451 C 285.000 20.000,284.455 19.000,284.209 19.000 C 284.083 19.000,284.027 18.924,284.084 18.832 C 284.234 18.589,284.014 18.000,283.772 18.000 C 283.659 18.000,283.472 17.737,283.356 17.417 C 283.240 17.096,283.073 16.833,282.985 16.833 C 282.897 16.833,282.753 16.644,282.665 16.412 C 282.577 16.181,282.393 15.948,282.255 15.896 C 282.118 15.843,281.739 15.556,281.415 15.259 C 281.090 14.962,280.620 14.615,280.371 14.489 C 280.121 14.362,279.738 14.126,279.519 13.963 C 279.301 13.800,278.975 13.667,278.795 13.667 C 278.616 13.667,278.286 13.522,278.061 13.346 C 277.805 13.144,277.238 12.981,276.535 12.906 C 275.920 12.840,275.239 12.669,275.021 12.527 C 274.406 12.124,270.161 12.136,269.713 12.542 C 269.529 12.708,269.127 12.833,268.779 12.833 C 268.442 12.833,268.167 12.895,268.167 12.971 C 268.167 13.047,267.947 13.077,267.680 13.037 C 267.330 12.986,267.108 13.065,266.893 13.316 C 266.723 13.514,266.394 13.667,266.136 13.667 C 265.885 13.667,265.545 13.804,265.381 13.971 C 265.218 14.138,264.840 14.373,264.542 14.491 C 264.244 14.610,264.000 14.775,264.000 14.859 C 264.000 14.942,263.879 15.057,263.731 15.114 C 263.583 15.170,263.168 15.506,262.808 15.858 C 262.448 16.211,262.119 16.500,262.077 16.500 C 262.034 16.500,262.000 12.992,262.000 8.704 C 262.000 1.917,261.966 0.860,261.741 0.537 L 261.481 0.167 254.439 0.167 C 248.899 0.167,247.333 0.213,247.099 0.385 M291.089 0.324 C 290.891 0.645,290.986 56.366,291.186 56.606 C 291.499 56.984,305.040 56.937,305.355 56.558 C 305.721 56.116,305.780 1.115,305.415 0.557 L 305.159 0.167 298.173 0.167 C 293.957 0.167,291.148 0.229,291.089 0.324 M330.334 0.416 C 330.220 0.553,330.167 0.815,330.215 0.999 C 330.263 1.183,330.234 1.333,330.151 1.333 C 330.061 1.333,330.000 10.728,330.000 24.417 C 330.000 37.112,330.060 47.500,330.133 47.500 C 330.206 47.500,330.238 47.745,330.203 48.044 C 330.156 48.446,330.244 48.701,330.539 49.020 C 330.846 49.351,330.923 49.588,330.870 50.043 C 330.818 50.484,330.890 50.723,331.150 50.984 C 331.343 51.176,331.500 51.450,331.500 51.593 C 331.500 51.736,331.574 51.807,331.665 51.751 C 331.762 51.691,331.785 51.765,331.721 51.932 C 331.656 52.103,331.719 52.293,331.882 52.412 C 332.030 52.520,332.487 53.065,332.898 53.623 C 333.308 54.181,333.818 54.692,334.030 54.759 C 334.243 54.826,334.515 55.020,334.634 55.191 C 334.754 55.361,334.926 55.500,335.016 55.500 C 335.106 55.500,335.397 55.660,335.662 55.856 C 335.952 56.071,336.280 56.176,336.488 56.121 C 336.678 56.072,336.833 56.099,336.833 56.182 C 336.833 56.265,336.937 56.333,337.063 56.333 C 337.189 56.333,337.391 56.452,337.511 56.597 C 337.637 56.749,337.890 56.829,338.110 56.787 C 338.319 56.748,338.448 56.783,338.397 56.866 C 338.341 56.955,340.588 56.996,343.908 56.967 C 348.423 56.926,349.540 56.872,349.653 56.689 C 349.730 56.564,350.233 56.374,350.770 56.266 C 351.440 56.132,351.799 55.968,351.915 55.744 C 352.036 55.508,352.219 55.432,352.566 55.472 C 352.864 55.506,353.228 55.394,353.518 55.180 C 353.775 54.989,354.095 54.833,354.228 54.833 C 354.361 54.833,354.646 54.626,354.860 54.372 C 355.075 54.118,355.378 53.935,355.534 53.966 C 355.690 53.997,355.951 53.867,356.113 53.677 C 356.275 53.488,356.504 53.333,356.623 53.333 C 356.987 53.333,358.166 52.106,358.166 51.727 C 358.167 51.354,357.766 50.457,357.650 50.572 C 357.613 50.609,357.572 50.446,357.558 50.210 C 357.544 49.974,357.412 49.714,357.266 49.632 C 357.120 49.550,357.000 49.374,357.000 49.240 C 357.000 49.106,356.850 48.868,356.667 48.711 C 356.483 48.554,356.333 48.293,356.333 48.130 C 356.333 47.967,356.192 47.692,356.019 47.519 C 355.847 47.347,355.616 46.934,355.506 46.603 C 355.397 46.271,355.253 46.000,355.186 46.000 C 355.119 46.000,354.932 45.700,354.770 45.333 C 354.608 44.967,354.406 44.667,354.321 44.667 C 354.236 44.667,354.167 44.518,354.167 44.335 C 354.167 43.706,352.233 42.821,351.930 43.311 C 351.881 43.391,351.549 43.503,351.192 43.560 C 350.835 43.617,350.449 43.777,350.335 43.915 C 350.171 44.112,349.726 44.165,348.271 44.161 C 346.212 44.155,345.926 44.039,345.516 43.042 C 345.393 42.744,345.227 42.500,345.146 42.500 C 345.064 42.500,345.000 38.809,345.000 34.083 L 345.000 25.667 348.833 25.667 C 351.420 25.667,352.667 25.609,352.667 25.490 C 352.667 25.393,352.749 25.364,352.849 25.426 C 353.187 25.635,353.829 25.125,353.999 24.514 C 354.277 23.514,354.214 14.822,353.925 14.128 C 353.469 13.038,353.300 13.000,348.923 13.000 L 345.000 13.000 345.000 6.990 C 345.000 3.072,344.943 1.016,344.835 1.082 C 344.740 1.141,344.713 1.073,344.771 0.923 C 345.053 0.187,344.860 0.167,337.500 0.167 C 331.528 0.167,330.511 0.202,330.334 0.416 M141.589 12.325 C 141.043 12.401,140.568 12.547,140.534 12.648 C 140.498 12.756,140.060 12.833,139.486 12.833 C 138.944 12.833,138.500 12.893,138.500 12.967 C 138.500 13.040,138.242 13.070,137.926 13.033 C 137.488 12.982,137.260 13.059,136.962 13.358 C 136.659 13.662,136.427 13.738,135.926 13.697 C 135.472 13.659,135.142 13.746,134.813 13.988 C 134.557 14.178,134.168 14.333,133.949 14.333 C 133.730 14.333,133.378 14.483,133.167 14.667 C 132.955 14.850,132.638 15.000,132.462 15.000 C 132.285 15.000,131.935 15.206,131.683 15.458 C 131.431 15.710,131.095 15.892,130.936 15.861 C 130.777 15.830,130.469 15.980,130.250 16.194 C 129.537 16.891,129.257 17.117,128.833 17.335 C 128.604 17.452,128.357 17.650,128.283 17.774 C 128.210 17.898,128.060 18.000,127.950 18.001 C 127.840 18.001,127.428 18.339,127.034 18.751 C 126.641 19.163,126.252 19.500,126.171 19.500 C 126.089 19.500,125.975 19.650,125.917 19.833 C 125.858 20.017,125.703 20.167,125.572 20.167 C 125.441 20.167,125.333 20.242,125.333 20.334 C 125.333 20.427,125.146 20.665,124.917 20.864 C 124.688 21.064,124.500 21.328,124.500 21.452 C 124.500 21.576,124.394 21.718,124.265 21.767 C 124.136 21.817,123.933 22.092,123.814 22.380 C 123.695 22.667,123.463 23.037,123.299 23.201 C 123.134 23.366,123.000 23.604,123.000 23.732 C 123.000 23.860,122.897 24.004,122.771 24.052 C 122.646 24.100,122.490 24.352,122.425 24.612 C 122.360 24.871,122.193 25.210,122.053 25.365 C 121.914 25.520,121.788 25.832,121.775 26.058 C 121.761 26.283,121.694 26.433,121.625 26.391 C 121.556 26.348,121.500 26.506,121.500 26.740 C 121.500 26.975,121.346 27.321,121.158 27.509 C 120.891 27.775,120.827 28.022,120.866 28.628 C 120.907 29.263,120.845 29.476,120.522 29.798 C 120.184 30.134,120.138 30.311,120.206 31.012 C 120.249 31.464,120.220 31.833,120.142 31.833 C 120.064 31.833,120.000 33.296,120.000 35.083 C 120.000 36.871,120.056 38.333,120.125 38.333 C 120.194 38.333,120.225 38.698,120.194 39.143 C 120.146 39.835,120.196 39.999,120.536 40.268 C 120.870 40.532,120.924 40.698,120.867 41.286 C 120.818 41.797,120.895 42.144,121.150 42.556 C 121.342 42.868,121.500 43.250,121.500 43.405 C 121.500 43.560,121.564 43.647,121.643 43.598 C 121.721 43.550,121.753 43.679,121.714 43.885 C 121.668 44.121,121.770 44.375,121.988 44.572 C 122.178 44.744,122.333 45.056,122.333 45.266 C 122.333 45.476,122.407 45.692,122.496 45.748 C 122.736 45.896,123.833 47.586,123.833 47.808 C 123.833 47.912,123.983 48.091,124.167 48.205 C 124.350 48.320,124.500 48.477,124.500 48.554 C 124.500 48.801,126.990 51.193,127.147 51.096 C 127.230 51.044,127.345 51.189,127.402 51.418 C 127.459 51.646,127.590 51.833,127.692 51.833 C 127.795 51.833,128.045 52.002,128.249 52.208 C 128.814 52.780,129.377 53.171,129.786 53.273 C 129.989 53.325,130.200 53.509,130.255 53.683 C 130.311 53.857,130.489 54.000,130.652 54.000 C 130.815 54.000,131.078 54.143,131.236 54.318 C 131.395 54.493,131.719 54.686,131.957 54.745 C 132.196 54.805,132.575 54.999,132.801 55.177 C 133.027 55.355,133.347 55.500,133.513 55.500 C 133.679 55.500,134.083 55.658,134.411 55.852 C 134.739 56.045,135.155 56.165,135.337 56.117 C 135.518 56.070,135.667 56.099,135.667 56.182 C 135.667 56.265,135.800 56.333,135.963 56.333 C 136.126 56.333,136.445 56.465,136.671 56.625 C 137.290 57.063,151.125 57.074,151.608 56.636 C 151.779 56.482,152.308 56.304,152.785 56.241 C 153.304 56.172,153.766 56.000,153.935 55.813 C 154.091 55.641,154.431 55.500,154.691 55.500 C 154.983 55.500,155.243 55.373,155.372 55.167 C 155.499 54.964,155.761 54.833,156.041 54.833 C 156.325 54.833,156.641 54.673,156.864 54.417 C 157.064 54.188,157.400 54.000,157.612 54.000 C 157.824 54.000,158.091 53.850,158.205 53.667 C 158.320 53.483,158.487 53.333,158.576 53.333 C 158.665 53.333,158.891 53.184,159.077 53.001 C 159.672 52.418,160.459 51.833,160.648 51.833 C 160.748 51.833,160.924 51.683,161.039 51.500 C 161.153 51.317,161.315 51.167,161.398 51.167 C 161.606 51.167,162.667 50.058,162.667 49.842 C 162.667 49.745,162.779 49.667,162.917 49.667 C 163.054 49.667,163.167 49.602,163.167 49.523 C 163.167 49.444,163.394 49.093,163.673 48.742 C 163.951 48.392,164.139 48.003,164.091 47.877 C 164.043 47.752,164.070 47.690,164.150 47.740 C 164.359 47.869,165.458 46.475,165.601 45.900 C 165.667 45.634,165.858 45.319,166.027 45.199 C 166.195 45.079,166.333 44.778,166.333 44.531 C 166.333 44.261,166.467 43.997,166.667 43.872 C 166.867 43.747,167.001 43.482,167.002 43.207 C 167.002 42.956,167.188 42.375,167.413 41.917 C 167.664 41.406,167.825 40.785,167.828 40.313 C 167.831 39.889,167.989 39.191,168.179 38.761 C 168.654 37.687,168.612 31.532,168.125 30.790 C 167.954 30.529,167.833 30.028,167.833 29.578 C 167.833 28.850,167.258 27.167,167.008 27.167 C 166.944 27.167,166.923 26.947,166.963 26.679 C 167.016 26.315,166.945 26.135,166.684 25.972 C 166.468 25.837,166.333 25.580,166.333 25.303 C 166.333 25.052,166.195 24.756,166.022 24.634 C 165.851 24.515,165.660 24.181,165.596 23.892 C 165.533 23.604,165.335 23.236,165.157 23.075 C 164.979 22.914,164.833 22.681,164.833 22.558 C 164.833 22.434,164.775 22.333,164.703 22.333 C 164.631 22.333,164.450 22.127,164.301 21.875 C 163.951 21.284,163.468 20.719,162.333 19.573 C 161.011 18.237,160.753 18.000,160.619 18.000 C 160.554 18.000,160.344 17.844,160.154 17.654 C 159.945 17.445,159.699 17.349,159.534 17.413 C 159.383 17.470,159.313 17.465,159.377 17.400 C 159.442 17.336,159.290 17.106,159.039 16.888 C 158.788 16.671,158.424 16.338,158.229 16.147 C 158.034 15.957,157.740 15.827,157.575 15.859 C 157.410 15.891,157.069 15.710,156.817 15.458 C 156.565 15.206,156.203 15.000,156.013 15.000 C 155.822 15.000,155.517 14.850,155.333 14.667 C 155.150 14.483,154.779 14.333,154.508 14.333 C 154.213 14.333,153.951 14.217,153.853 14.042 C 153.728 13.818,153.473 13.750,152.760 13.750 C 152.028 13.750,151.811 13.689,151.739 13.464 C 151.642 13.159,150.676 12.897,150.251 13.060 C 150.113 13.113,150.000 13.084,150.000 12.995 C 150.000 12.906,149.637 12.833,149.192 12.833 C 148.748 12.833,148.149 12.716,147.862 12.573 C 147.243 12.264,143.179 12.104,141.589 12.325 M222.001 12.350 C 221.588 12.431,221.226 12.572,221.195 12.665 C 221.164 12.758,220.770 12.833,220.319 12.833 C 219.869 12.833,219.500 12.893,219.500 12.967 C 219.500 13.040,219.256 13.075,218.958 13.045 C 218.379 12.986,217.562 13.333,217.617 13.614 C 217.636 13.710,217.466 13.749,217.228 13.703 C 216.762 13.614,215.500 13.972,215.500 14.193 C 215.500 14.270,215.354 14.333,215.175 14.333 C 214.763 14.333,214.000 14.675,214.000 14.860 C 214.000 14.937,213.883 15.000,213.740 15.000 C 213.597 15.000,213.522 15.068,213.574 15.151 C 213.625 15.234,213.524 15.265,213.349 15.219 C 213.160 15.170,212.889 15.278,212.682 15.485 C 212.490 15.676,212.226 15.833,212.095 15.833 C 211.963 15.833,211.813 15.968,211.761 16.133 C 211.708 16.298,211.410 16.526,211.099 16.638 C 210.787 16.751,210.489 16.954,210.438 17.088 C 210.386 17.223,210.248 17.334,210.130 17.334 C 210.013 17.334,209.606 17.653,209.227 18.042 C 208.848 18.432,208.268 18.975,207.939 19.250 C 207.610 19.525,207.339 19.844,207.337 19.958 C 207.335 20.073,207.226 20.167,207.095 20.167 C 206.963 20.167,206.808 20.317,206.750 20.500 C 206.692 20.684,206.499 20.911,206.322 21.006 C 206.145 21.101,206.000 21.284,206.000 21.414 C 206.000 21.543,205.813 21.852,205.583 22.099 C 205.354 22.346,205.167 22.634,205.167 22.737 C 205.167 22.841,205.009 23.061,204.817 23.225 C 204.601 23.410,204.500 23.648,204.552 23.846 C 204.598 24.023,204.568 24.125,204.484 24.074 C 204.401 24.022,204.333 24.089,204.333 24.222 C 204.333 24.355,204.228 24.505,204.099 24.554 C 203.970 24.604,203.812 24.893,203.747 25.197 C 203.682 25.501,203.507 25.889,203.357 26.058 C 203.185 26.254,203.085 26.665,203.084 27.183 C 203.084 27.711,203.012 27.999,202.881 27.999 C 202.571 28.000,202.293 28.648,202.372 29.186 C 202.411 29.450,202.380 29.667,202.304 29.667 C 202.229 29.667,202.167 29.970,202.167 30.342 C 202.167 30.713,202.036 31.257,201.876 31.550 C 201.459 32.315,201.446 37.456,201.858 38.333 C 202.009 38.654,202.197 39.515,202.275 40.246 C 202.390 41.323,202.480 41.609,202.750 41.746 C 203.014 41.881,203.072 42.052,203.030 42.568 C 202.992 43.028,203.078 43.357,203.322 43.687 C 203.511 43.943,203.667 44.306,203.667 44.493 C 203.667 44.680,203.815 44.981,203.996 45.162 C 204.177 45.343,204.374 45.700,204.435 45.954 C 204.571 46.529,204.988 47.027,205.215 46.887 C 205.311 46.827,205.334 46.864,205.268 46.971 C 205.133 47.190,205.445 47.855,205.774 48.050 C 205.898 48.123,206.000 48.278,206.000 48.395 C 206.000 48.511,206.188 48.770,206.417 48.969 C 206.646 49.168,206.833 49.407,206.833 49.499 C 206.833 49.591,206.946 49.667,207.083 49.667 C 207.221 49.667,207.333 49.756,207.333 49.865 C 207.333 50.042,209.762 52.500,209.936 52.500 C 209.975 52.500,210.436 52.837,210.961 53.250 C 211.487 53.662,212.006 54.000,212.116 54.000 C 212.225 54.000,212.416 54.145,212.540 54.322 C 212.664 54.498,212.979 54.697,213.240 54.762 C 213.501 54.828,213.854 55.021,214.024 55.191 C 214.194 55.361,214.521 55.500,214.750 55.500 C 214.979 55.500,215.324 55.657,215.516 55.850 C 215.760 56.093,216.013 56.178,216.350 56.129 C 216.616 56.090,216.833 56.120,216.833 56.196 C 216.833 56.271,216.974 56.333,217.146 56.333 C 217.318 56.333,217.558 56.452,217.678 56.597 C 217.804 56.749,218.057 56.829,218.276 56.787 C 218.486 56.748,218.615 56.782,218.564 56.864 C 218.365 57.187,232.095 56.950,232.454 56.625 C 232.631 56.465,232.902 56.333,233.055 56.333 C 233.208 56.333,233.333 56.273,233.333 56.200 C 233.333 56.127,233.590 56.097,233.905 56.134 C 234.349 56.186,234.525 56.123,234.695 55.850 C 234.831 55.632,235.087 55.500,235.372 55.500 C 235.650 55.500,235.912 55.369,236.039 55.167 C 236.153 54.983,236.420 54.833,236.631 54.833 C 236.842 54.833,237.203 54.646,237.432 54.417 C 237.661 54.188,237.939 54.000,238.049 54.000 C 238.160 54.000,238.468 53.812,238.734 53.583 C 239.001 53.354,239.267 53.167,239.326 53.167 C 239.385 53.167,239.745 52.867,240.127 52.500 C 240.508 52.133,240.898 51.833,240.994 51.833 C 241.089 51.833,241.167 51.771,241.167 51.695 C 241.167 51.619,241.635 51.061,242.208 50.454 C 243.919 48.643,244.753 47.223,244.212 47.043 C 244.122 47.013,244.081 46.820,244.120 46.615 C 244.196 46.218,243.277 45.330,242.553 45.100 C 242.355 45.037,241.869 44.689,241.472 44.326 C 241.075 43.964,240.686 43.667,240.607 43.667 C 240.482 43.667,239.990 43.309,239.171 42.622 C 238.655 42.190,237.576 41.506,237.405 41.503 C 237.307 41.501,237.066 41.331,236.869 41.125 C 236.208 40.432,235.890 40.167,235.720 40.167 C 235.628 40.167,235.334 39.979,235.068 39.750 C 234.092 38.911,233.028 39.126,231.756 40.417 C 231.169 41.013,230.618 41.500,230.531 41.500 C 230.445 41.500,230.277 41.617,230.159 41.760 C 230.040 41.902,229.693 42.124,229.388 42.251 C 229.083 42.379,228.833 42.562,228.833 42.658 C 228.833 42.755,228.567 42.833,228.240 42.833 C 227.479 42.833,226.167 43.162,226.167 43.353 C 226.167 43.632,224.842 43.500,224.296 43.167 C 223.996 42.984,223.537 42.834,223.276 42.834 C 223.016 42.834,222.612 42.683,222.379 42.500 C 222.146 42.317,221.833 42.167,221.684 42.167 C 221.535 42.167,221.316 42.010,221.197 41.819 C 221.077 41.628,220.876 41.512,220.748 41.561 C 220.610 41.614,220.549 41.567,220.597 41.442 C 220.690 41.198,219.919 40.476,219.738 40.639 C 219.669 40.700,219.669 40.653,219.738 40.534 C 219.807 40.414,219.730 40.119,219.564 39.868 C 218.973 38.972,218.501 37.908,218.501 37.467 C 218.500 36.761,218.155 35.333,217.986 35.333 C 217.753 35.333,217.804 34.778,218.088 34.207 C 218.228 33.926,218.389 33.201,218.446 32.595 C 218.513 31.872,218.657 31.370,218.864 31.132 C 219.037 30.932,219.155 30.652,219.126 30.509 C 219.097 30.367,219.249 30.110,219.464 29.938 C 219.707 29.743,219.815 29.527,219.751 29.360 C 219.695 29.213,219.697 29.142,219.757 29.201 C 219.885 29.330,221.333 27.956,221.333 27.706 C 221.333 27.610,221.476 27.569,221.651 27.614 C 221.840 27.664,222.111 27.555,222.318 27.349 C 222.510 27.157,222.859 27.000,223.094 27.000 C 223.623 27.000,224.167 26.723,224.167 26.452 C 224.167 26.312,224.544 26.250,225.401 26.250 C 226.080 26.250,226.559 26.297,226.466 26.354 C 226.193 26.523,227.773 27.047,228.315 26.967 C 228.697 26.911,228.829 26.967,228.893 27.210 C 228.938 27.383,229.131 27.565,229.321 27.615 C 229.511 27.665,229.667 27.758,229.667 27.822 C 229.667 27.886,229.948 28.100,230.292 28.298 C 230.635 28.496,231.104 28.888,231.333 29.168 C 232.109 30.120,232.561 30.512,232.781 30.428 C 232.901 30.382,233.000 30.416,233.000 30.505 C 233.000 30.594,233.150 30.667,233.333 30.667 C 233.517 30.667,233.667 30.602,233.667 30.523 C 233.667 30.444,233.849 30.414,234.071 30.457 C 234.357 30.511,234.540 30.431,234.695 30.184 C 234.815 29.991,234.978 29.833,235.058 29.833 C 235.137 29.833,235.425 29.646,235.697 29.417 C 235.969 29.188,236.281 29.000,236.389 29.000 C 236.498 29.000,236.680 28.850,236.795 28.667 C 236.909 28.483,237.111 28.333,237.243 28.333 C 237.375 28.333,237.549 28.215,237.630 28.071 C 237.711 27.927,237.932 27.721,238.121 27.613 C 239.037 27.091,240.360 26.095,240.510 25.814 C 240.603 25.641,240.770 25.499,240.881 25.497 C 241.650 25.485,244.167 23.183,244.167 22.491 C 244.167 21.969,243.854 21.167,243.651 21.167 C 243.580 21.167,243.474 21.015,243.416 20.830 C 243.357 20.645,242.827 19.995,242.238 19.385 C 241.649 18.775,241.167 18.214,241.167 18.138 C 241.167 18.062,241.096 18.000,241.010 18.000 C 240.924 18.000,240.519 17.681,240.110 17.292 C 238.909 16.146,238.491 15.833,238.158 15.833 C 237.986 15.833,237.761 15.676,237.658 15.484 C 237.535 15.254,237.362 15.164,237.152 15.219 C 236.977 15.265,236.867 15.246,236.910 15.178 C 237.014 15.010,235.787 14.333,235.378 14.333 C 235.199 14.333,234.910 14.177,234.738 13.986 C 234.492 13.715,234.268 13.652,233.712 13.696 C 233.258 13.732,233.000 13.684,233.000 13.563 C 233.000 13.300,232.074 12.942,231.668 13.048 C 231.484 13.096,231.333 13.067,231.333 12.984 C 231.333 12.901,230.927 12.833,230.431 12.833 C 229.934 12.833,229.502 12.757,229.472 12.665 C 229.324 12.222,223.836 11.991,222.001 12.350 M375.167 12.312 C 374.846 12.382,374.420 12.527,374.219 12.636 C 374.019 12.744,373.625 12.833,373.344 12.833 C 373.063 12.833,372.833 12.890,372.833 12.958 C 372.833 13.027,372.489 13.086,372.068 13.088 C 371.523 13.092,371.259 13.175,371.144 13.380 C 371.047 13.554,370.783 13.667,370.473 13.667 C 370.192 13.667,369.689 13.804,369.356 13.971 C 369.023 14.139,368.378 14.458,367.922 14.680 C 367.057 15.102,366.277 15.722,366.425 15.870 C 366.473 15.917,366.340 15.924,366.131 15.884 C 365.838 15.828,365.490 16.065,364.624 16.906 C 364.005 17.508,363.424 18.000,363.333 18.000 C 363.241 18.000,363.167 18.067,363.167 18.149 C 363.167 18.230,362.694 18.774,362.115 19.357 C 361.537 19.940,361.014 20.548,360.954 20.708 C 360.893 20.869,360.779 21.000,360.700 21.000 C 360.444 21.000,359.473 22.654,359.599 22.873 C 359.666 22.989,359.659 23.028,359.585 22.961 C 359.377 22.773,358.853 23.478,358.735 24.105 C 358.677 24.414,358.572 24.667,358.502 24.667 C 358.278 24.667,357.957 25.648,358.040 26.078 C 358.097 26.379,358.034 26.520,357.810 26.591 C 357.474 26.697,357.240 27.349,357.393 27.750 C 357.446 27.887,357.417 28.000,357.328 28.000 C 357.239 28.000,357.167 28.138,357.167 28.308 C 357.167 28.477,357.047 28.856,356.900 29.151 C 356.753 29.445,356.671 29.832,356.718 30.010 C 356.764 30.188,356.734 30.292,356.651 30.240 C 356.562 30.185,356.500 32.140,356.500 35.000 C 356.500 37.669,356.561 39.815,356.637 39.769 C 356.712 39.722,356.743 39.891,356.706 40.143 C 356.664 40.427,356.739 40.686,356.902 40.822 C 357.048 40.942,357.167 41.257,357.167 41.520 C 357.167 41.784,357.231 42.000,357.310 42.000 C 357.389 42.000,357.420 42.179,357.378 42.398 C 357.297 42.818,357.775 43.722,358.003 43.582 C 358.076 43.536,358.098 43.645,358.051 43.822 C 357.956 44.188,358.290 45.333,358.492 45.333 C 358.565 45.333,358.667 45.542,358.718 45.796 C 358.845 46.432,359.873 48.010,360.106 47.926 C 360.224 47.884,360.262 47.985,360.208 48.194 C 360.150 48.414,360.258 48.661,360.518 48.907 C 360.737 49.114,361.162 49.557,361.462 49.892 C 361.763 50.226,362.081 50.500,362.171 50.500 C 362.260 50.500,362.333 50.620,362.333 50.766 C 362.333 50.912,362.481 51.070,362.661 51.117 C 362.841 51.164,363.034 51.345,363.089 51.518 C 363.144 51.691,363.269 51.833,363.367 51.833 C 363.465 51.833,363.708 52.002,363.908 52.208 C 364.108 52.415,364.416 52.679,364.594 52.796 C 365.375 53.309,366.077 53.763,366.333 53.918 C 366.485 54.010,366.744 54.220,366.908 54.384 C 367.072 54.549,367.418 54.725,367.676 54.777 C 367.934 54.829,368.184 54.971,368.231 55.093 C 368.277 55.215,368.601 55.367,368.950 55.431 C 369.298 55.494,369.794 55.694,370.051 55.874 C 370.330 56.070,370.682 56.171,370.926 56.124 C 371.150 56.081,371.333 56.111,371.333 56.190 C 371.333 56.269,371.467 56.333,371.630 56.333 C 371.793 56.333,372.111 56.465,372.338 56.625 C 372.715 56.892,373.357 56.917,379.857 56.917 C 386.393 56.917,386.991 56.893,387.287 56.625 C 387.465 56.465,387.772 56.333,387.971 56.333 C 388.170 56.333,388.333 56.271,388.333 56.196 C 388.333 56.120,388.541 56.088,388.795 56.126 C 389.113 56.172,389.356 56.085,389.571 55.847 C 389.747 55.652,390.091 55.500,390.353 55.500 C 390.610 55.500,390.955 55.361,391.119 55.190 C 391.282 55.020,391.638 54.827,391.909 54.762 C 392.180 54.697,392.503 54.498,392.627 54.322 C 392.751 54.145,392.992 54.000,393.162 54.000 C 393.332 54.000,393.672 53.831,393.916 53.625 C 394.161 53.419,394.537 53.100,394.752 52.917 C 394.967 52.733,395.419 52.358,395.756 52.083 C 396.839 51.199,397.945 50.097,398.266 49.583 C 398.437 49.308,398.710 48.985,398.872 48.866 C 399.501 48.401,398.671 46.500,397.839 46.500 C 397.744 46.500,397.667 46.436,397.667 46.358 C 397.667 46.280,397.198 45.851,396.625 45.406 C 396.052 44.961,395.535 44.526,395.475 44.441 C 395.416 44.355,395.243 44.332,395.091 44.390 C 394.927 44.454,394.858 44.429,394.920 44.328 C 394.977 44.235,394.742 43.917,394.397 43.621 C 394.052 43.325,393.593 42.915,393.377 42.708 C 393.161 42.502,392.926 42.333,392.855 42.333 C 392.783 42.333,392.545 42.142,392.324 41.907 C 392.098 41.666,391.801 41.513,391.642 41.555 C 391.449 41.605,391.327 41.498,391.256 41.216 C 391.186 40.936,391.072 40.834,390.901 40.900 C 390.758 40.954,390.693 40.925,390.751 40.831 C 390.812 40.733,390.576 40.667,390.167 40.667 C 389.789 40.667,389.522 40.735,389.574 40.818 C 389.625 40.901,389.523 40.931,389.348 40.885 C 389.138 40.830,388.965 40.921,388.842 41.151 C 388.739 41.343,388.550 41.500,388.422 41.500 C 388.294 41.500,388.146 41.636,388.093 41.803 C 388.040 41.969,387.735 42.208,387.415 42.334 C 387.095 42.459,386.833 42.623,386.833 42.698 C 386.833 42.772,386.725 42.833,386.593 42.833 C 386.460 42.833,386.254 42.971,386.134 43.139 C 386.015 43.307,385.669 43.494,385.365 43.554 C 385.062 43.613,384.700 43.776,384.562 43.914 C 384.423 44.053,384.123 44.167,383.895 44.167 C 383.667 44.167,383.519 44.229,383.566 44.305 C 383.613 44.381,383.253 44.410,382.766 44.369 C 381.824 44.291,381.167 44.518,381.167 44.923 C 381.167 45.091,380.983 45.167,380.573 45.167 C 380.233 45.167,380.023 45.098,380.080 45.005 C 380.246 44.737,378.978 44.300,378.292 44.388 C 377.940 44.433,377.707 44.402,377.760 44.317 C 377.811 44.235,377.670 44.167,377.447 44.167 C 377.224 44.167,376.950 44.057,376.839 43.923 C 376.728 43.789,376.476 43.629,376.280 43.566 C 375.631 43.361,374.167 42.160,374.167 41.834 C 374.167 41.751,374.062 41.623,373.935 41.550 C 373.807 41.477,373.586 41.135,373.443 40.792 C 373.300 40.448,373.105 40.167,373.009 40.167 C 372.912 40.167,372.833 40.092,372.833 40.000 C 372.833 39.890,377.472 39.833,386.417 39.833 L 400.000 39.833 400.000 33.823 C 400.000 30.518,399.939 27.852,399.863 27.898 C 399.788 27.944,399.757 27.776,399.794 27.523 C 399.836 27.239,399.761 26.981,399.598 26.845 C 399.452 26.725,399.333 26.523,399.333 26.396 C 399.333 26.270,399.261 26.167,399.172 26.167 C 399.083 26.167,399.052 26.058,399.103 25.924 C 399.155 25.791,399.045 25.397,398.859 25.049 C 398.674 24.701,398.436 24.135,398.332 23.792 C 398.227 23.448,398.072 23.167,397.987 23.167 C 397.903 23.167,397.833 23.050,397.833 22.907 C 397.833 22.753,397.755 22.695,397.641 22.766 C 397.516 22.843,397.494 22.811,397.577 22.677 C 397.652 22.555,397.559 22.270,397.353 21.991 C 397.159 21.728,397.000 21.440,397.000 21.350 C 397.000 21.259,396.861 21.088,396.691 20.968 C 396.522 20.848,396.241 20.496,396.066 20.187 C 395.892 19.877,395.675 19.502,395.583 19.353 C 395.302 18.898,393.746 17.333,393.575 17.333 C 393.486 17.333,393.320 17.183,393.205 17.000 C 393.091 16.817,392.904 16.665,392.790 16.664 C 392.676 16.662,392.407 16.475,392.191 16.247 C 391.975 16.020,391.696 15.833,391.572 15.833 C 391.447 15.833,391.268 15.689,391.174 15.514 C 391.080 15.338,390.770 15.143,390.484 15.080 C 390.199 15.017,389.824 14.824,389.650 14.650 C 389.476 14.476,389.146 14.333,388.917 14.333 C 388.688 14.333,388.343 14.176,388.151 13.984 C 387.888 13.721,387.643 13.650,387.165 13.695 C 386.815 13.729,386.559 13.707,386.596 13.646 C 386.736 13.420,385.786 12.969,385.315 13.038 C 385.050 13.077,384.833 13.047,384.833 12.971 C 384.833 12.895,384.483 12.833,384.055 12.833 C 383.550 12.833,383.164 12.732,382.957 12.544 C 382.607 12.228,376.412 12.044,375.167 12.312 M195.260 12.589 C 195.082 12.723,194.613 12.833,194.218 12.833 C 193.823 12.833,193.500 12.901,193.500 12.984 C 193.500 13.067,193.352 13.097,193.170 13.049 C 192.989 13.002,192.572 13.121,192.244 13.315 C 191.916 13.508,191.487 13.667,191.291 13.667 C 191.095 13.667,190.631 13.867,190.259 14.112 C 189.887 14.357,189.294 14.748,188.939 14.981 C 188.585 15.214,188.258 15.501,188.213 15.619 C 188.168 15.737,188.029 15.833,187.905 15.833 C 187.780 15.833,187.589 16.002,187.479 16.208 C 187.370 16.415,187.142 16.681,186.974 16.801 C 186.805 16.921,186.667 17.127,186.667 17.259 C 186.667 17.392,186.600 17.500,186.518 17.500 C 186.436 17.500,186.342 16.594,186.309 15.486 C 186.257 13.726,186.209 13.443,185.926 13.236 C 185.447 12.886,172.386 12.886,171.907 13.237 C 171.404 13.605,171.398 55.927,171.901 56.482 C 172.218 56.833,184.719 57.059,185.576 56.730 C 186.347 56.434,186.363 56.212,186.316 46.400 L 186.273 37.169 186.655 36.763 C 186.956 36.442,187.023 36.212,186.972 35.678 C 186.937 35.305,186.966 35.000,187.037 35.000 C 187.108 35.000,187.167 34.928,187.167 34.840 C 187.167 33.939,190.128 29.833,190.779 29.833 C 190.826 29.833,191.064 29.694,191.308 29.524 C 191.551 29.354,191.975 29.161,192.250 29.095 C 192.525 29.028,192.862 28.876,193.000 28.757 C 193.141 28.635,193.938 28.489,194.827 28.422 C 195.728 28.354,196.548 28.202,196.739 28.068 C 197.169 27.767,197.629 27.772,198.227 28.084 C 198.942 28.457,199.263 28.393,199.911 27.744 L 200.500 27.156 200.500 20.401 L 200.500 13.647 199.972 12.990 L 199.444 12.333 197.514 12.339 C 196.081 12.343,195.500 12.407,195.260 12.589 M310.958 13.214 C 310.703 13.316,310.500 13.527,310.500 13.689 C 310.500 13.849,310.425 14.027,310.333 14.083 C 310.224 14.151,310.167 21.267,310.167 34.889 L 310.167 55.592 310.651 56.122 C 311.327 56.863,311.200 56.852,318.391 56.798 L 324.865 56.750 325.266 56.250 L 325.667 55.750 325.625 34.714 C 325.586 14.778,325.568 13.663,325.286 13.381 C 324.923 13.018,311.827 12.865,310.958 13.214 M47.833 14.333 C 47.973 14.594,47.960 14.667,47.774 14.667 C 47.643 14.667,47.494 14.775,47.443 14.908 C 47.392 15.041,47.028 15.231,46.634 15.330 C 45.474 15.623,45.138 15.810,45.200 16.127 C 45.233 16.290,45.111 16.494,44.920 16.593 C 44.735 16.690,44.595 16.901,44.608 17.063 C 44.622 17.224,44.591 17.313,44.539 17.261 C 44.419 17.142,43.833 17.660,43.833 17.885 C 43.833 17.977,43.646 18.298,43.417 18.598 C 43.188 18.899,43.000 19.216,43.000 19.304 C 43.000 19.392,42.886 19.508,42.747 19.561 C 42.609 19.615,42.423 19.848,42.335 20.079 C 42.247 20.311,42.098 20.500,42.004 20.500 C 41.910 20.500,41.833 20.613,41.833 20.752 C 41.833 20.890,41.608 21.238,41.333 21.526 C 41.058 21.814,40.833 22.151,40.833 22.275 C 40.833 22.399,40.767 22.500,40.687 22.500 C 40.606 22.500,40.447 22.726,40.333 23.002 C 40.218 23.278,39.839 23.817,39.489 24.199 C 39.140 24.581,38.807 25.083,38.749 25.314 C 38.691 25.546,38.498 25.836,38.322 25.960 C 38.145 26.084,38.000 26.276,38.000 26.386 C 38.000 26.496,37.842 26.685,37.650 26.805 C 37.408 26.956,37.322 27.145,37.374 27.414 C 37.429 27.705,37.346 27.850,37.041 27.989 C 36.786 28.105,36.669 28.266,36.728 28.419 C 36.779 28.553,36.739 28.645,36.639 28.623 C 36.456 28.583,34.835 30.745,34.512 31.458 C 34.418 31.665,34.283 31.833,34.211 31.833 C 34.140 31.833,33.977 32.070,33.849 32.358 C 33.721 32.647,33.474 33.041,33.301 33.233 C 33.127 33.426,32.881 33.696,32.756 33.835 C 32.630 33.973,32.474 34.294,32.411 34.547 C 32.347 34.801,32.154 35.084,31.981 35.177 C 31.808 35.269,31.667 35.437,31.667 35.549 C 31.667 35.661,31.523 35.843,31.348 35.952 C 31.173 36.061,30.980 36.380,30.918 36.660 C 30.857 36.940,30.662 37.246,30.486 37.341 C 30.311 37.435,30.167 37.604,30.167 37.716 C 30.167 37.828,30.017 38.013,29.833 38.128 C 29.650 38.242,29.500 38.456,29.500 38.602 C 29.500 38.749,29.320 39.083,29.099 39.345 C 28.879 39.607,28.666 39.918,28.627 40.035 C 28.546 40.279,27.681 39.384,27.672 39.048 C 27.669 38.936,27.517 38.765,27.333 38.667 C 27.150 38.569,26.999 38.397,26.997 38.286 C 26.994 38.092,26.316 37.013,25.873 36.496 C 25.506 36.068,24.833 34.991,24.833 34.832 C 24.833 34.620,24.237 34.319,24.096 34.459 C 24.034 34.522,24.028 34.455,24.083 34.310 C 24.142 34.157,24.016 33.845,23.782 33.565 C 23.560 33.300,23.328 32.922,23.266 32.724 C 23.205 32.526,23.044 32.322,22.910 32.271 C 22.776 32.219,22.667 32.075,22.667 31.950 C 22.667 31.825,22.485 31.626,22.263 31.507 C 22.034 31.385,21.898 31.193,21.947 31.065 C 22.026 30.859,21.804 30.521,20.827 29.361 C 20.647 29.147,20.500 28.877,20.500 28.762 C 20.500 27.527,18.031 27.645,17.431 28.909 C 17.277 29.234,17.078 29.500,16.988 29.500 C 16.898 29.500,16.754 29.688,16.667 29.917 C 16.580 30.146,16.440 30.333,16.356 30.333 C 16.272 30.333,16.083 30.633,15.936 31.000 C 15.789 31.367,15.592 31.667,15.497 31.667 C 15.403 31.667,15.254 31.854,15.167 32.083 C 15.080 32.313,14.937 32.500,14.850 32.500 C 14.764 32.500,14.608 32.756,14.505 33.069 C 14.402 33.381,14.201 33.682,14.058 33.737 C 13.894 33.800,13.839 33.941,13.908 34.121 C 13.968 34.278,13.970 34.359,13.911 34.300 C 13.772 34.161,13.167 34.682,13.167 34.941 C 13.167 35.051,12.979 35.364,12.750 35.636 C 12.521 35.909,12.333 36.196,12.333 36.276 C 12.333 36.355,12.183 36.513,12.000 36.628 C 11.817 36.742,11.667 36.986,11.667 37.168 C 11.667 37.351,11.594 37.500,11.504 37.500 C 11.415 37.500,11.216 37.744,11.063 38.042 C 10.909 38.340,10.645 38.681,10.475 38.801 C 10.305 38.921,10.167 39.110,10.167 39.222 C 10.167 39.334,10.017 39.554,9.833 39.711 C 9.650 39.868,9.500 40.099,9.500 40.224 C 9.500 40.349,9.310 40.669,9.079 40.934 C 8.375 41.740,8.320 41.823,8.139 42.340 C 8.043 42.615,7.823 42.916,7.649 43.009 C 7.475 43.102,7.333 43.285,7.333 43.414 C 7.333 43.544,7.233 43.710,7.111 43.783 C 6.821 43.958,6.313 44.999,6.428 45.185 C 6.477 45.264,6.401 45.285,6.259 45.230 C 6.116 45.176,6.000 45.215,6.000 45.317 C 6.000 45.419,5.813 45.665,5.583 45.864 C 5.354 46.064,5.167 46.329,5.167 46.454 C 5.167 46.578,5.015 46.844,4.829 47.043 C 4.644 47.242,4.535 47.518,4.588 47.656 C 4.641 47.794,4.634 47.856,4.572 47.795 C 4.511 47.733,4.338 47.804,4.190 47.953 C 3.898 48.245,3.788 48.415,3.205 49.477 C 2.997 49.856,2.751 50.167,2.659 50.167 C 2.567 50.167,2.420 50.354,2.333 50.583 C 2.246 50.813,2.113 51.000,2.038 51.000 C 1.962 51.000,1.805 51.262,1.689 51.583 C 1.573 51.904,1.421 52.167,1.351 52.167 C 0.825 52.167,0.081 53.968,0.025 55.375 L -0.033 56.833 37.880 56.833 C 71.383 56.833,75.817 56.804,76.000 56.583 C 76.441 56.052,76.407 54.931,75.935 54.421 C 75.696 54.163,75.500 53.849,75.500 53.724 C 75.500 53.599,75.350 53.368,75.167 53.211 C 74.983 53.054,74.833 52.831,74.833 52.714 C 74.833 52.598,74.683 52.409,74.500 52.295 C 74.317 52.180,74.167 52.028,74.167 51.956 C 74.167 51.530,72.781 49.775,72.592 49.963 C 72.532 50.024,72.526 49.960,72.579 49.822 C 72.632 49.684,72.523 49.409,72.337 49.209 C 72.152 49.010,72.000 48.732,72.000 48.592 C 72.000 48.451,71.850 48.242,71.667 48.128 C 71.483 48.013,71.333 47.830,71.333 47.719 C 71.333 47.609,71.194 47.421,71.024 47.301 C 70.854 47.181,70.657 46.896,70.588 46.667 C 70.428 46.145,70.001 45.646,69.813 45.763 C 69.735 45.811,69.714 45.736,69.768 45.596 C 69.832 45.430,69.722 45.276,69.453 45.153 C 69.197 45.036,69.066 44.861,69.109 44.691 C 69.146 44.540,68.990 44.192,68.762 43.917 C 68.040 43.046,67.830 42.763,67.507 42.226 C 66.977 41.342,64.902 41.070,65.231 41.928 C 65.285 42.069,65.266 42.145,65.189 42.097 C 64.973 41.963,63.925 43.116,63.744 43.686 C 63.689 43.859,63.583 44.000,63.509 44.000 C 63.435 44.000,63.275 44.244,63.154 44.542 C 63.033 44.840,62.798 45.181,62.633 45.301 C 62.468 45.421,62.333 45.619,62.333 45.742 C 62.333 45.864,62.221 46.008,62.083 46.060 C 61.946 46.113,61.833 46.261,61.833 46.389 C 61.833 46.612,61.133 47.615,60.570 48.197 C 60.421 48.351,60.288 48.669,60.275 48.905 C 60.261 49.140,60.169 49.333,60.070 49.333 C 59.806 49.333,58.868 50.554,58.740 51.063 C 58.680 51.304,58.570 51.500,58.496 51.500 C 58.242 51.500,57.318 52.918,57.391 53.198 C 57.430 53.352,57.353 53.521,57.218 53.573 C 56.670 53.783,56.390 53.653,56.167 53.083 C 56.041 52.762,55.886 52.500,55.822 52.500 C 55.759 52.500,55.616 52.280,55.505 52.012 C 55.394 51.744,55.197 51.483,55.068 51.434 C 54.939 51.384,54.833 51.267,54.833 51.174 C 54.833 50.928,54.296 50.337,54.152 50.425 C 54.086 50.467,54.064 50.369,54.104 50.209 C 54.149 50.030,53.916 49.633,53.503 49.184 C 53.131 48.781,52.782 48.270,52.726 48.047 C 52.670 47.825,52.484 47.555,52.312 47.448 C 52.141 47.341,52.000 47.163,52.000 47.053 C 52.000 46.942,51.861 46.754,51.691 46.634 C 51.520 46.515,51.323 46.229,51.251 46.000 C 51.180 45.771,50.943 45.358,50.725 45.083 C 50.507 44.808,50.269 44.508,50.197 44.417 C 50.126 44.325,49.923 44.006,49.747 43.708 C 49.572 43.410,49.369 43.167,49.297 43.167 C 49.225 43.167,49.167 43.065,49.167 42.941 C 49.167 42.817,48.998 42.519,48.792 42.279 C 48.082 41.452,47.667 40.864,47.667 40.683 C 47.667 40.584,47.517 40.409,47.333 40.295 C 47.150 40.180,47.000 39.996,47.000 39.886 C 47.000 39.776,46.861 39.588,46.691 39.468 C 46.520 39.348,46.323 39.063,46.252 38.833 C 46.082 38.288,44.910 36.812,44.763 36.959 C 44.700 37.022,44.698 36.945,44.758 36.789 C 44.858 36.529,44.516 35.970,43.764 35.167 C 43.636 35.029,43.436 34.710,43.322 34.458 C 43.207 34.206,43.054 34.000,42.982 34.000 C 42.910 34.000,42.754 33.823,42.634 33.607 C 41.881 32.247,39.946 29.609,39.806 29.750 C 39.775 29.781,39.750 29.620,39.750 29.394 L 39.750 28.983 48.460 29.010 C 55.164 29.032,57.227 28.990,57.418 28.832 C 57.783 28.530,57.732 27.710,57.333 27.461 C 57.150 27.347,57.000 27.163,57.000 27.053 C 57.000 26.942,56.861 26.754,56.691 26.634 C 56.520 26.515,56.323 26.229,56.252 26.000 C 56.180 25.771,55.832 25.217,55.478 24.770 C 55.123 24.323,54.833 23.883,54.833 23.794 C 54.833 23.641,54.280 22.884,53.764 22.333 C 53.636 22.196,53.436 21.877,53.322 21.625 C 53.207 21.373,53.046 21.167,52.965 21.167 C 52.883 21.167,52.738 20.942,52.642 20.667 C 52.546 20.392,52.409 20.167,52.339 20.167 C 52.268 20.167,51.810 19.552,51.322 18.801 C 50.356 17.314,49.919 16.803,49.755 16.967 C 49.697 17.025,49.698 16.945,49.758 16.789 C 49.828 16.608,49.710 16.318,49.434 15.990 C 49.195 15.706,49.000 15.405,49.000 15.321 C 49.000 15.236,48.903 15.167,48.783 15.167 C 48.664 15.167,48.472 14.904,48.356 14.583 C 48.240 14.262,48.035 14.000,47.900 14.000 C 47.707 14.000,47.693 14.070,47.833 14.333 M380.387 25.117 C 380.554 25.327,380.863 25.500,381.074 25.500 C 381.432 25.500,383.667 27.429,383.667 27.739 C 383.667 27.808,383.810 28.047,383.986 28.270 C 384.162 28.494,384.355 28.970,384.416 29.329 C 384.476 29.687,384.633 30.069,384.763 30.177 C 384.893 30.286,385.000 30.440,385.000 30.520 C 385.000 30.812,372.715 30.701,372.603 30.408 C 372.546 30.260,372.574 30.193,372.669 30.251 C 372.767 30.312,372.833 30.080,372.833 29.677 C 372.833 29.304,372.912 29.000,373.009 29.000 C 373.105 29.000,373.288 28.750,373.416 28.445 C 373.543 28.140,373.764 27.793,373.907 27.675 C 374.050 27.556,374.167 27.394,374.167 27.314 C 374.167 27.235,374.410 26.946,374.708 26.673 C 375.006 26.400,375.363 26.068,375.502 25.934 C 375.640 25.801,376.085 25.578,376.490 25.439 C 376.895 25.299,377.281 25.087,377.348 24.968 C 377.586 24.543,380.028 24.663,380.387 25.117 M144.432 26.308 C 144.257 26.591,145.240 26.917,146.267 26.917 C 147.125 26.917,147.330 26.970,147.392 27.207 C 147.434 27.367,147.607 27.549,147.776 27.611 C 147.945 27.672,148.393 27.932,148.770 28.188 C 149.148 28.444,149.509 28.603,149.571 28.540 C 149.633 28.478,149.637 28.549,149.580 28.698 C 149.512 28.876,149.582 29.004,149.785 29.068 C 149.954 29.122,150.186 29.372,150.298 29.625 C 150.575 30.243,150.893 30.770,151.203 31.124 C 151.344 31.285,151.510 31.767,151.571 32.195 C 151.633 32.623,151.792 33.063,151.925 33.173 C 152.288 33.475,152.269 36.541,151.902 36.845 C 151.739 36.981,151.664 37.239,151.706 37.523 C 151.743 37.776,151.712 37.944,151.637 37.898 C 151.561 37.852,151.500 37.975,151.500 38.172 C 151.500 38.369,151.350 38.721,151.167 38.955 C 150.983 39.188,150.833 39.500,150.833 39.649 C 150.833 39.798,150.683 40.013,150.500 40.128 C 150.317 40.242,150.167 40.448,150.167 40.585 C 150.167 40.721,150.073 40.834,149.958 40.835 C 149.844 40.836,149.487 41.135,149.167 41.500 C 148.846 41.865,148.462 42.164,148.314 42.165 C 148.166 42.166,147.866 42.305,147.647 42.475 C 147.429 42.644,146.892 42.830,146.455 42.888 C 146.018 42.947,145.441 43.108,145.172 43.247 C 144.547 43.570,143.523 43.572,143.168 43.251 C 143.016 43.114,142.523 42.953,142.071 42.892 C 141.620 42.832,141.192 42.685,141.120 42.565 C 141.049 42.445,140.730 42.298,140.412 42.238 C 140.074 42.175,139.833 42.031,139.833 41.893 C 139.833 41.763,139.715 41.611,139.570 41.555 C 139.095 41.373,137.848 40.024,137.595 39.420 C 137.460 39.095,137.241 38.787,137.109 38.737 C 136.974 38.685,136.905 38.512,136.950 38.340 C 137.047 37.969,136.732 37.333,136.452 37.333 C 136.016 37.334,136.185 32.636,136.634 32.272 C 136.895 32.061,137.002 31.821,136.968 31.526 C 136.935 31.250,137.056 30.941,137.298 30.681 C 137.514 30.449,137.636 30.161,137.581 30.016 C 137.527 29.875,137.533 29.811,137.595 29.872 C 137.656 29.934,138.074 29.613,138.524 29.159 C 138.973 28.705,139.406 28.333,139.486 28.333 C 139.566 28.333,139.673 28.223,139.725 28.089 C 139.777 27.954,140.075 27.737,140.389 27.606 C 140.703 27.475,141.010 27.285,141.073 27.184 C 141.135 27.083,141.501 27.000,141.885 26.999 C 142.854 26.998,143.833 26.701,143.833 26.409 C 143.833 26.275,143.988 26.167,144.177 26.167 C 144.365 26.167,144.480 26.230,144.432 26.308 M26.667 42.839 C 26.667 42.933,26.561 43.051,26.432 43.101 C 26.303 43.150,26.100 43.429,25.982 43.720 C 25.864 44.012,25.632 44.348,25.467 44.468 C 25.302 44.588,25.167 44.777,25.167 44.889 C 25.167 45.001,25.017 45.221,24.833 45.378 C 24.650 45.535,24.500 45.766,24.500 45.891 C 24.500 46.016,24.310 46.335,24.079 46.601 C 23.847 46.866,23.566 47.192,23.454 47.326 C 23.143 47.696,22.824 48.516,22.926 48.682 C 22.976 48.763,22.902 48.785,22.760 48.731 C 22.600 48.670,22.459 48.749,22.387 48.941 C 22.324 49.111,22.136 49.348,21.969 49.468 C 21.803 49.588,21.667 49.761,21.667 49.854 C 21.667 49.946,21.479 50.268,21.250 50.569 C 21.021 50.869,20.833 51.183,20.833 51.267 C 20.833 51.351,20.683 51.513,20.500 51.628 C 20.317 51.742,20.167 51.944,20.167 52.076 C 20.167 52.209,20.047 52.384,19.901 52.466 C 19.754 52.548,19.623 52.807,19.609 53.041 C 19.595 53.276,19.527 53.433,19.458 53.391 C 19.390 53.348,19.333 53.393,19.333 53.490 C 19.333 53.903,18.536 53.666,18.424 53.220 C 18.321 52.809,17.871 52.145,17.249 51.486 C 17.112 51.341,17.000 51.164,17.000 51.093 C 17.000 50.902,15.962 49.333,15.836 49.333 C 15.777 49.333,15.603 49.071,15.450 48.750 C 15.297 48.429,15.096 48.167,15.003 48.167 C 14.910 48.167,14.833 48.019,14.833 47.839 C 14.833 47.487,14.296 47.101,14.079 47.298 C 14.006 47.363,14.002 47.321,14.069 47.204 C 14.188 46.998,13.473 45.719,12.923 45.153 C 12.782 45.007,12.667 44.800,12.667 44.691 C 12.667 44.582,12.488 44.412,12.270 44.312 C 12.019 44.198,11.901 44.029,11.947 43.851 C 11.987 43.697,11.866 43.430,11.677 43.259 C 11.488 43.088,11.333 42.885,11.333 42.808 C 11.333 42.730,14.783 42.667,19.000 42.667 C 24.156 42.667,26.667 42.723,26.667 42.839 M45.265 43.137 C 45.131 43.396,44.905 43.705,44.761 43.824 C 44.617 43.943,44.500 44.146,44.500 44.276 C 44.500 44.405,44.394 44.551,44.265 44.601 C 44.136 44.650,43.934 44.929,43.815 45.220 C 43.697 45.512,43.465 45.848,43.300 45.968 C 43.135 46.088,43.000 46.256,43.000 46.343 C 43.000 46.429,42.843 46.657,42.651 46.849 C 42.445 47.055,42.336 47.327,42.386 47.515 C 42.431 47.690,42.397 47.833,42.309 47.833 C 42.091 47.833,41.002 49.036,41.001 49.279 C 41.000 49.386,40.813 49.697,40.583 49.970 C 40.354 50.242,40.167 50.530,40.167 50.609 C 40.167 50.688,40.017 50.847,39.833 50.961 C 39.650 51.076,39.500 51.241,39.500 51.327 C 39.500 51.511,38.814 52.575,38.332 53.139 C 38.150 53.353,38.000 53.597,38.000 53.681 C 38.000 53.765,37.925 53.833,37.833 53.833 C 37.742 53.833,37.667 53.725,37.667 53.593 C 37.667 53.460,37.527 53.254,37.357 53.134 C 37.187 53.015,36.995 52.748,36.929 52.542 C 36.864 52.335,36.712 52.167,36.590 52.167 C 36.469 52.167,36.321 51.972,36.261 51.733 C 36.084 51.028,34.964 49.591,34.755 49.800 C 34.697 49.859,34.698 49.779,34.758 49.622 C 34.827 49.442,34.706 49.140,34.426 48.794 C 33.741 47.947,33.524 47.645,32.957 46.750 C 32.372 45.827,32.176 45.641,31.941 45.787 C 31.853 45.841,31.832 45.804,31.893 45.705 C 32.020 45.499,31.684 44.667,31.473 44.667 C 31.396 44.667,31.333 44.554,31.333 44.417 C 31.333 44.279,31.202 44.034,31.042 43.872 C 30.881 43.710,30.617 43.373,30.454 43.122 L 30.159 42.667 37.834 42.667 L 45.509 42.667 45.265 43.137 M111.875 44.451 C 111.669 44.491,111.331 44.491,111.125 44.451 C 110.919 44.411,111.087 44.379,111.500 44.379 C 111.912 44.379,112.081 44.411,111.875 44.451 M348.375 44.451 C 348.169 44.491,347.831 44.491,347.625 44.451 C 347.419 44.411,347.587 44.379,348.000 44.379 C 348.412 44.379,348.581 44.411,348.375 44.451 " stroke="none" fill="#2c2c34" fill-rule="evenodd"></path><path id="path2" d="M37.458 0.605 C 37.762 0.736,37.714 1.054,37.408 0.936 C 37.266 0.882,37.191 0.905,37.242 0.988 C 37.294 1.070,37.247 1.168,37.138 1.204 C 36.899 1.284,37.105 1.668,37.385 1.664 C 37.520 1.662,37.513 1.617,37.361 1.521 C 37.191 1.413,37.218 1.359,37.475 1.292 C 37.664 1.242,37.847 1.295,37.892 1.412 C 37.974 1.626,38.666 1.884,38.641 1.691 C 38.586 1.268,38.677 1.091,38.827 1.329 C 38.912 1.463,39.040 1.516,39.111 1.444 C 39.263 1.293,38.828 0.983,38.633 1.104 C 38.560 1.149,38.500 1.069,38.500 0.927 C 38.500 0.784,38.444 0.660,38.375 0.653 C 38.306 0.645,38.025 0.611,37.750 0.577 C 37.475 0.543,37.344 0.555,37.458 0.605 M36.333 1.916 C 36.211 2.145,36.161 2.383,36.222 2.444 C 36.283 2.505,36.333 2.426,36.333 2.268 C 36.333 2.110,36.408 2.027,36.500 2.083 C 36.592 2.140,36.667 2.032,36.667 1.843 C 36.667 1.397,36.604 1.410,36.333 1.916 M39.582 2.336 C 39.524 2.429,39.415 2.467,39.340 2.421 C 39.264 2.374,39.363 2.666,39.560 3.069 C 39.756 3.472,39.954 3.800,40.000 3.798 C 40.372 3.780,40.477 3.869,40.385 4.125 C 40.320 4.305,40.338 4.354,40.432 4.252 C 40.515 4.161,40.649 4.039,40.729 3.979 C 40.809 3.920,40.659 3.766,40.396 3.637 C 40.083 3.485,39.935 3.298,39.969 3.102 C 40.002 2.916,39.952 2.843,39.839 2.913 C 39.717 2.989,39.682 2.882,39.733 2.597 C 39.815 2.146,39.759 2.050,39.582 2.336 M35.778 2.807 C 35.660 3.404,36.127 3.939,36.274 3.376 C 36.327 3.171,36.438 3.045,36.519 3.095 C 36.804 3.271,36.663 3.057,36.266 2.712 L 35.866 2.364 35.778 2.807 M40.666 4.424 C 40.425 4.558,40.355 4.656,40.500 4.658 C 40.798 4.662,41.274 4.385,41.162 4.273 C 41.118 4.229,40.895 4.298,40.666 4.424 M40.844 5.417 C 40.844 5.712,41.294 6.202,41.366 5.987 C 41.411 5.849,41.516 5.873,41.706 6.063 C 41.960 6.317,41.978 6.314,41.956 6.028 C 41.940 5.811,41.820 5.732,41.550 5.762 C 41.333 5.786,41.097 5.684,41.005 5.527 C 40.916 5.375,40.844 5.325,40.844 5.417 M33.768 5.794 C 33.870 5.862,33.932 6.048,33.908 6.209 C 33.883 6.370,33.932 6.459,34.017 6.406 C 34.102 6.353,34.129 6.240,34.076 6.155 C 34.023 6.070,34.079 5.999,34.198 5.997 C 34.357 5.996,34.348 5.951,34.167 5.833 C 34.029 5.744,33.842 5.672,33.750 5.672 C 33.655 5.672,33.663 5.725,33.768 5.794 M32.925 6.708 C 32.890 6.823,32.812 7.138,32.752 7.408 C 32.676 7.754,32.603 7.834,32.507 7.678 C 32.410 7.522,32.307 7.631,32.155 8.053 C 32.034 8.388,31.861 8.605,31.761 8.548 C 31.663 8.492,31.641 8.510,31.712 8.588 C 31.904 8.799,32.500 8.805,32.500 8.595 C 32.500 8.495,32.688 8.272,32.917 8.100 C 33.146 7.927,33.332 7.703,33.331 7.602 C 33.329 7.497,33.266 7.515,33.185 7.643 C 33.094 7.786,33.003 7.807,32.936 7.698 C 32.878 7.604,32.944 7.413,33.083 7.274 C 33.243 7.114,33.273 6.982,33.165 6.916 C 33.071 6.858,33.038 6.740,33.090 6.655 C 33.143 6.570,33.142 6.500,33.088 6.500 C 33.034 6.500,32.961 6.594,32.925 6.708 M31.416 9.531 C 31.444 9.919,31.738 10.122,31.897 9.864 C 31.950 9.780,31.856 9.588,31.691 9.438 C 31.408 9.183,31.391 9.188,31.416 9.531 M44.064 9.407 C 43.920 9.782,44.079 10.255,44.330 10.199 C 44.515 10.157,44.513 10.201,44.320 10.439 C 44.169 10.625,44.159 10.685,44.292 10.605 C 44.409 10.535,44.500 10.562,44.500 10.667 C 44.500 10.769,44.575 10.807,44.667 10.750 C 44.758 10.693,44.833 10.741,44.833 10.855 C 44.833 10.970,44.943 10.918,45.078 10.740 C 45.320 10.420,45.435 10.009,45.224 10.221 C 45.163 10.281,45.014 10.248,44.892 10.147 C 44.771 10.045,44.557 10.007,44.417 10.060 C 44.215 10.138,44.181 10.057,44.251 9.662 C 44.341 9.147,44.225 8.988,44.064 9.407 M30.915 10.336 C 30.857 10.429,30.740 10.462,30.655 10.410 C 30.570 10.357,30.500 10.424,30.500 10.559 C 30.500 10.893,31.069 10.789,31.137 10.443 C 31.197 10.135,31.076 10.076,30.915 10.336 M45.250 11.349 C 45.254 11.702,45.354 12.086,45.472 12.204 C 45.646 12.377,45.669 12.355,45.591 12.083 C 45.538 11.900,45.602 11.975,45.732 12.250 C 45.888 12.578,45.914 12.817,45.809 12.945 C 45.696 13.082,45.733 13.127,45.935 13.098 C 46.093 13.075,46.241 12.930,46.263 12.777 C 46.286 12.624,46.236 12.541,46.152 12.592 C 46.068 12.644,46.001 12.513,46.003 12.302 C 46.005 11.992,46.037 11.966,46.167 12.167 C 46.264 12.317,46.329 12.337,46.331 12.218 C 46.332 12.109,46.253 11.970,46.155 11.910 C 46.057 11.849,46.018 11.693,46.068 11.563 C 46.142 11.369,46.094 11.361,45.804 11.516 C 45.503 11.677,45.465 11.665,45.553 11.436 C 45.613 11.279,45.571 11.166,45.453 11.164 C 45.308 11.162,45.314 11.121,45.472 11.021 C 45.657 10.904,45.656 10.865,45.469 10.793 C 45.302 10.729,45.245 10.875,45.250 11.349 M29.503 11.542 C 29.501 11.702,29.575 11.843,29.667 11.854 C 30.242 11.926,30.396 11.890,30.457 11.667 C 30.499 11.514,30.472 11.484,30.388 11.589 C 30.191 11.834,29.848 11.792,29.663 11.500 C 29.528 11.287,29.505 11.293,29.503 11.542 M29.393 12.461 C 29.175 12.602,29.429 12.886,29.840 12.961 C 30.019 12.993,30.007 12.945,29.794 12.778 C 29.635 12.653,29.554 12.502,29.614 12.442 C 29.758 12.297,29.630 12.308,29.393 12.461 M28.163 14.125 C 28.327 14.462,28.283 14.561,27.986 14.529 C 27.933 14.523,27.889 14.624,27.889 14.752 C 27.889 14.880,27.945 14.951,28.014 14.908 C 28.082 14.866,28.176 14.925,28.223 15.041 C 28.269 15.156,28.314 15.063,28.323 14.833 C 28.332 14.582,28.388 14.494,28.463 14.612 C 28.547 14.745,28.645 14.686,28.765 14.432 C 28.900 14.144,28.892 14.056,28.729 14.056 C 28.611 14.056,28.553 14.118,28.601 14.194 C 28.763 14.457,28.453 14.333,28.218 14.042 C 28.005 13.778,27.999 13.787,28.163 14.125 M28.918 15.331 C 28.857 15.429,28.932 15.452,29.102 15.386 C 29.296 15.312,29.349 15.339,29.268 15.472 C 29.176 15.620,31.105 15.657,37.282 15.627 L 45.417 15.587 37.507 15.542 C 32.571 15.514,29.535 15.435,29.432 15.332 C 29.222 15.122,29.047 15.122,28.918 15.331 " stroke="none" fill="#e46c4c" fill-rule="evenodd"></path><path id="path3" d="M47.611 13.944 C 47.550 14.006,47.500 14.187,47.500 14.348 C 47.500 14.537,47.207 14.772,46.668 15.016 C 46.210 15.222,45.865 15.421,45.901 15.457 C 46.045 15.600,47.357 15.133,47.443 14.908 C 47.494 14.775,47.643 14.667,47.774 14.667 C 47.954 14.667,47.972 14.592,47.845 14.355 C 47.753 14.184,47.726 13.996,47.784 13.939 C 47.842 13.881,47.851 13.833,47.806 13.833 C 47.760 13.833,47.672 13.883,47.611 13.944 " stroke="none" fill="#5c4c40" fill-rule="evenodd"></path><path id="path4" d="M290.915 28.500 C 290.915 43.304,290.934 49.360,290.958 41.958 C 290.982 34.556,290.982 22.444,290.958 15.042 C 290.934 7.640,290.915 13.696,290.915 28.500 M43.613 29.125 C 45.830 29.151,49.505 29.151,51.780 29.125 C 54.055 29.099,52.242 29.077,47.750 29.077 C 43.258 29.077,41.397 29.099,43.613 29.125 M186.218 38.250 C 186.219 38.800,186.250 39.005,186.287 38.705 C 186.325 38.406,186.324 37.956,186.286 37.705 C 186.248 37.455,186.217 37.700,186.218 38.250 M111.125 44.451 C 111.331 44.491,111.669 44.491,111.875 44.451 C 112.081 44.411,111.912 44.379,111.500 44.379 C 111.087 44.379,110.919 44.411,111.125 44.451 M347.625 44.451 C 347.831 44.491,348.169 44.491,348.375 44.451 C 348.581 44.411,348.412 44.379,348.000 44.379 C 347.587 44.379,347.419 44.411,347.625 44.451 M380.294 45.118 C 380.501 45.158,380.801 45.156,380.960 45.115 C 381.120 45.073,380.950 45.040,380.583 45.042 C 380.217 45.044,380.086 45.078,380.294 45.118 " stroke="none" fill="#2c5040" fill-rule="evenodd"></path></g></svg>