<?xml version="1.0" encoding="UTF-8"?>
<svg width="46px" height="35px" viewBox="0 0 46 35" version="1.1" xmlns="http://www.w3.org/2000/svg" xmlns:xlink="http://www.w3.org/1999/xlink">
    <!-- Generator: sketchtool 55.2 (78181) - https://sketchapp.com -->
    <title>0EF1F142-00A2-4687-833B-4E7F4163796A</title>
    <desc>Created with sketchtool.</desc>
    <g id="Page-1" stroke="none" stroke-width="1" fill="none" fill-rule="evenodd">
        <g id="Wizard-Start" transform="translate(-854.000000, -168.000000)">
            <g id="Rows" transform="translate(854.000000, 128.000000)">
                <g id="Stacked-Group-2" transform="translate(0.000000, 35.000000)">
                    <g id="Logo/Mark---Dark" transform="translate(0.000000, 5.000000)">
                        <polygon id="Shape" fill="#F57059" points="22.9163636 0.745614035 22.9163636 0.745614035 28.6454545 9.28289474 17.2239977 9.28289474"></polygon>
                        <polygon id="Shape" fill="#292934" points="28.6454545 9.28289474 28.6454545 9.28289474 34.3745455 17.8574561 22.9163636 17.8574561"></polygon>
                        <polygon id="Shape" fill="#292934" points="11.4949068 17.8574561 11.4949068 17.8574561 17.2239977 26.3947368 5.76581585 26.3947368"></polygon>
                        <polygon id="Shape" fill="#292934" points="22.9163636 17.8574561 22.9163636 17.8574561 28.6454545 26.3947368 17.2239977 26.3947368"></polygon>
                        <polygon id="Shape" fill="#292934" points="5.76581585 26.3947368 5.76581585 26.3947368 11.4949068 34.9692982 0.0734498835 34.9692982"></polygon>
                        <polygon id="Shape" fill="#292934" points="17.2239977 26.3947368 17.2239977 26.3947368 22.9163636 34.9692982 11.4949068 34.9692982"></polygon>
                        <polygon id="Shape" fill="#292934" points="28.6454545 26.3947368 28.6454545 26.3947368 34.3745455 34.9692982 22.9163636 34.9692982"></polygon>
                        <polygon id="Shape" fill="#292934" points="40.0669114 26.3947368 40.0669114 26.3947368 45.7960023 34.9692982 34.3745455 34.9692982"></polygon>
                    </g>
                </g>
            </g>
        </g>
    </g>
</svg>