<?xml version="1.0" encoding="UTF-8"?>
<svg width="50px" height="48px" viewBox="0 0 50 48" version="1.1" xmlns="http://www.w3.org/2000/svg" xmlns:xlink="http://www.w3.org/1999/xlink">
    <!-- Generator: sketchtool 55.2 (78181) - https://sketchapp.com -->
    <title>79D378B3-524A-44DD-B703-6E2140D55829</title>
    <desc>Created with sketchtool.</desc>
    <g id="Page-1" stroke="none" stroke-width="1" fill="black" fill-rule="evenodd">
        <g id="Templates---New-Layout" transform="translate(-824.000000, -732.000000)" fill-rule="nonzero" stroke="" stroke-width="4">
            <g id="Cards" transform="translate(468.000000, 132.000000)">
                <g id="Card-Copy-5" transform="translate(264.000000, 568.000000)">
                    <g id="Group-2-Copy">
                        <g id="Group">
                            <g id="paint-roller-solid" transform="translate(92.307692, 32.000000)">
                                <path d="M38,12 L38,3 C38,2.45949823 37.5287198,2 36.9230769,2 L3.07692308,2 C2.47128023,2 2,2.45949823 2,3 L2,12 C2,12.5405018 2.47128023,13 3.07692308,13 L36.9230769,13 C37.5287198,13 38,12.5405018 38,12 Z M45.0769231,8.49289103 L45.0769231,18 C45.0769231,20.7726232 42.7924341,23 40,23 L24.6153846,23 C22.3097418,23 20.4615385,24.8019982 20.4615385,27 L20.4615385,32 L18.4615385,32 C17.8558956,32 17.3846154,32.4594982 17.3846154,33 L17.3846154,45 C17.3846154,45.5405018 17.8558956,46 18.4615385,46 L24.6153846,46 C25.2210275,46 25.6923077,45.5405018 25.6923077,45 L25.6923077,33 C25.6923077,32.4594982 25.2210275,32 24.6153846,32 L22.6153846,32 L22.6153846,25 L40,25 C44.0046813,25 47.2307692,21.8545643 47.2307692,18 L47.2307692,12 C47.2307692,10.4946828 46.3639077,9.1751028 45.0769231,8.49289103 Z" id="Shape"></path>
                            </g>
                        </g>
                    </g>
                </g>
            </g>
        </g>
    </g>
</svg>
