<?xml version="1.0" encoding="UTF-8"?>
<svg xmlns="http://www.w3.org/2000/svg" xmlns:xlink="http://www.w3.org/1999/xlink" width="50pt" height="50pt" viewBox="0 0 50 50" version="1.1">
<g id="surface1">
<path style=" stroke:none;fill-rule:nonzero;fill:rgb(100%,100%,100%);fill-opacity:1;" d="M 17.5 30 C 7.75 30 0 37.75 0 47.5 C 0 49 1 50 2.5 50 L 32.5 50 C 34 50 35 49 35 47.5 C 35 37.75 27.25 30 17.5 30 Z M 5.25 45 C 6.5 39.25 11.5 35 17.5 35 C 23.5 35 28.5 39.25 29.75 45 Z M 5.25 45 "/>
<path style=" stroke:none;fill-rule:nonzero;fill:rgb(100%,100%,100%);fill-opacity:1;" d="M 17.5 27.5 C 23 27.5 27.5 23 27.5 17.5 C 27.5 12 23 7.5 17.5 7.5 C 12 7.5 7.5 12 7.5 17.5 C 7.5 23 12 27.5 17.5 27.5 Z M 17.5 12.5 C 20.25 12.5 22.5 14.75 22.5 17.5 C 22.5 20.25 20.25 22.5 17.5 22.5 C 14.75 22.5 12.5 20.25 12.5 17.5 C 12.5 14.75 14.75 12.5 17.5 12.5 Z M 17.5 12.5 "/>
<path style=" stroke:none;fill-rule:nonzero;fill:rgb(100%,100%,100%);fill-opacity:1;" d="M 47.5 0 L 17.5 0 C 16.25 0 15 1 15 2.5 C 15 4 16 5 17.5 5 L 45 5 L 45 25 L 40.75 25 C 38.5 25.25 38.25 27 38.25 27.75 L 38.75 31.25 L 34.5 25.75 C 34 25.25 33.25 25 32.5 25 L 30 25 C 28.5 25 27.5 26 27.5 27.5 C 27.5 29 28.5 30 30 30 L 31.25 30 L 40.5 41.5 C 41.75 42.75 43 42.25 43.5 42.25 C 44.5 41.75 45.25 40.75 45 39.5 L 43.75 30 L 47.5 30 C 49 30 50 29 50 27.5 L 50 2.5 C 50 1 49 0 47.5 0 Z M 47.5 0 "/>
</g>
</svg>
