<?xml version="1.0" encoding="UTF-8"?>
<svg width="40px" height="40px" viewBox="0 0 40 40" version="1.1" xmlns="http://www.w3.org/2000/svg" xmlns:xlink="http://www.w3.org/1999/xlink">
    <!-- Generator: sketchtool 55.2 (78181) - https://sketchapp.com -->
    <title>2E444527-D2BA-4F70-A609-C1250B4A8E94</title>
    <desc>Created with sketchtool.</desc>
    <g id="Page-1" stroke="none" stroke-width="1" fill="black" fill-rule="evenodd">
        <g id="Templates---New-Layout" transform="translate(-568.000000, -732.000000)" fill="" fill-rule="nonzero">
            <g id="Cards" transform="translate(468.000000, 132.000000)">
                <g id="Card-Copy-4" transform="translate(0.000000, 568.000000)">
                    <g id="Group-2-Copy">
                        <g id="icon-consulting" transform="translate(100.000000, 32.000000)">
                            <path d="M14,24 C6.2,24 0,30.2 0,38 C0,39.2 0.8,40 2,40 L26,40 C27.2,40 28,39.2 28,38 C28,30.2 21.8,24 14,24 Z M4.2,36 C5.2,31.4 9.2,28 14,28 C18.8,28 22.8,31.4 23.8,36 L4.2,36 Z" id="Shape"></path>
                            <path d="M14,22 C18.4,22 22,18.4 22,14 C22,9.6 18.4,6 14,6 C9.6,6 6,9.6 6,14 C6,18.4 9.6,22 14,22 Z M14,10 C16.2,10 18,11.8 18,14 C18,16.2 16.2,18 14,18 C11.8,18 10,16.2 10,14 C10,11.8 11.8,10 14,10 Z" id="Shape"></path>
                            <path d="M38,0 L14,0 C13,0 12,0.8 12,2 C12,3.2 12.8,4 14,4 L36,4 L36,20 L32.6,20 C30.8,20.2 30.6,21.6 30.6,22.2 L31,25 L27.6,20.6 C27.2,20.2 26.6,20 26,20 L24,20 C22.8,20 22,20.8 22,22 C22,23.2 22.8,24 24,24 L25,24 L32.4,33.2 C33.4,34.2 34.4,33.8 34.8,33.8 C35.6,33.4 36.2,32.6 36,31.6 L35,24 L38,24 C39.2,24 40,23.2 40,22 L40,2 C40,0.8 39.2,0 38,0 Z" id="Shape"></path>
                        </g>
                    </g>
                </g>
            </g>
        </g>
    </g>
</svg>
