<?xml version="1.0" encoding="UTF-8"?>
<svg width="37px" height="52px" viewBox="0 0 37 52" version="1.1" xmlns="http://www.w3.org/2000/svg" xmlns:xlink="http://www.w3.org/1999/xlink">
    <!-- Generator: sketchtool 55.2 (78181) - https://sketchapp.com -->
    <title>7A5E78EE-EA47-4FAF-AC88-EEB2384A19C9@2x</title>
    <desc>Created with sketchtool.</desc>
    <g id="Page-1" stroke="none" stroke-width="1" fill="black" fill-rule="evenodd">
        <g id="Templates---New-Layout" transform="translate(-570.000000, -442.000000)" fill-rule="nonzero">
            <g id="Cards" transform="translate(468.000000, 132.000000)">
                <g id="Card-Copy" transform="translate(0.000000, 284.000000)">
                    <g id="Group-2-Copy">
                        <g id="drip" transform="translate(104.000000, 28.000000)">
                            <path d="M19.239375,2.0709375 C18.495,-0.6271875 14.604375,-0.7528125 13.760625,2.0709375 C9.3759375,16.8609375 0,20.88 0,31.3040625 C0,40.5328125 7.38,48 16.5,48 C25.62,48 33,40.5328125 33,31.3040625 C33,20.8275 23.6446875,16.9284375 19.239375,2.0709375 Z" id="Shape" stroke="#FFFFFF" stroke-width="4"></path>
                            <path d="M16.5,42 C10.7109375,42 6,37.2890625 6,31.5 C6,30.67125 6.67125,30 7.5,30 C8.32875,30 9,30.67125 9,31.5 C9,35.6353125 12.3646875,39 16.5,39 C17.32875,39 18,39.67125 18,40.5 C18,41.32875 17.32875,42 16.5,42 Z" id="Path" fill="#FFFFFF"></path>
                        </g>
                    </g>
                </g>
            </g>
        </g>
    </g>
</svg>
