<?xml version="1.0" encoding="UTF-8"?>
<svg width="48px" height="48px" viewBox="0 0 48 48" version="1.1" xmlns="http://www.w3.org/2000/svg" xmlns:xlink="http://www.w3.org/1999/xlink">
    <!-- Generator: sketchtool 55.2 (78181) - https://sketchapp.com -->
    <title>1EA30F29-6C24-47DC-97D8-A7B8E7595621</title>
    <desc>Created with sketchtool.</desc>
    <g id="Page-1" stroke="none" stroke-width="1" fill="white" fill-rule="evenodd">
        <g id="Templates---New-Layout" transform="translate(-1089.000000, -160.000000)" fill="" fill-rule="nonzero">
            <g id="Cards" transform="translate(468.000000, 132.000000)">
                <g id="Card" transform="translate(528.000000, 0.000000)">
                    <g id="Group-2-Copy">
                        <g id="envelope-open-regular" transform="translate(93.000000, 28.000000)">
                            <path d="M46.3674375,15.423375 C45.9270937,15.0593437 35.8934062,6.9905625 33.6876563,5.23678125 C31.6154062,3.58040625 28.0722188,0 24,0 C19.9495312,0 16.440375,3.53596875 14.3123438,5.23678125 C12.0189375,7.06021875 2.02453125,15.0988125 1.64203125,15.41325 C0.602455279,16.2680783 0,17.5433177 0,18.8892188 L0,43.5 C0,45.9853125 2.0146875,48 4.5,48 L43.5,48 C45.9853125,48 48,45.9853125 48,43.5 L48,18.8914687 C48,17.5498755 47.4013921,16.2782494 46.3674375,15.423375 Z M43.5,42.9375 C43.5,43.2481602 43.2481602,43.5 42.9375,43.5 L5.0625,43.5 C4.75183983,43.5 4.5,43.2481602 4.5,42.9375 L4.5,19.1575312 C4.5,18.9875625 4.5765,18.8269687 4.7086875,18.7201875 C6.1965,17.518875 14.9080312,10.512 17.1178125,8.75521875 C18.8207812,7.395 21.7873125,4.5 24,4.5 C26.2212187,4.5 29.2365937,7.44084375 30.8821875,8.75521875 C33.0921562,10.5121875 41.8043437,17.5201875 43.2915,18.7223438 C43.4234969,18.8290624 43.5,18.9897589 43.5,19.1595 L43.5,42.9375 Z M40.5008437,25.34025 C40.8991875,25.8239062 40.8256875,26.5397812 40.33725,26.9322187 C37.6208437,29.115 34.7803125,31.3944375 33.6876563,32.263125 C31.559625,33.9640312 28.0504687,37.5 24,37.5 C19.926375,37.5 16.3793437,33.9152812 14.3123438,32.263125 C13.2549375,31.4224688 10.3988438,29.1306562 7.6629375,26.9320312 C7.1745,26.5395 7.10109375,25.8237187 7.49934375,25.3400625 L8.92978125,23.6030625 C9.32146875,23.1274687 10.022625,23.0552812 10.5028125,23.44125 C13.18575,25.5975937 15.993375,27.8507812 17.1178125,28.7447812 C18.7634062,30.0591562 21.7787812,33 24,33 C26.2126875,33 29.1793125,30.105 30.8821875,28.7447812 C32.006625,27.850875 34.8144375,25.5975937 37.4974687,23.4415312 C37.9776562,23.0556562 38.6788125,23.1278437 39.0704062,23.6034375 L40.5008437,25.34025 Z" id="Shape"></path>
                        </g>
                    </g>
                </g>
            </g>
        </g>
    </g>
</svg>
