<?xml version="1.0" encoding="UTF-8"?>
<svg xmlns="http://www.w3.org/2000/svg" xmlns:xlink="http://www.w3.org/1999/xlink" width="49pt" height="48pt" viewBox="0 0 49 48" version="1.1">
<g id="surface1">
<path style="fill:none;stroke-width:4;stroke-linecap:butt;stroke-linejoin:miter;stroke:rgb(100%,100%,100%);stroke-opacity:1;stroke-miterlimit:4;" d="M 40.683673 35.007812 L 40.568878 36.881673 L 42.195153 36.376628 L 42.262117 34.531087 Z M 44.127551 35.781901 L 44.366709 35.70638 L 44.969388 34.592448 L 43.921875 34.030762 L 43.634885 34.115723 Z M 40.482781 36.711751 L 40.353635 38.698893 L 40.363202 38.698893 L 42.171237 37.112956 L 42.180804 36.825033 Z M 34.752551 41.866048 L 36.699298 41.946289 L 37.364158 40.327311 L 35.450893 40.19043 Z M 36.794962 41.946289 L 38.799107 42.03125 L 38.899554 40.695475 L 38.913903 40.322591 L 36.914541 40.17627 Z M 34.092474 43.461426 L 34.001594 43.687988 L 34.465561 44.75 L 35.780931 44.174154 L 35.814413 44.093913 Z M 20.647003 41.266602 L 18.207589 42.05485 L 20.647003 43.456706 Z M 27.396046 45.037923 L 25.741071 43.971191 L 25.195791 44.816081 L 26.874681 45.901693 Z M 19.298151 41.587565 L 18.169324 41.960449 L 18.01148 42.01237 L 18.528061 43.565267 L 20.264349 43.008301 Z M 15.371173 42.781738 L 15.18463 42.838379 L 14.538903 44.023112 L 15.485969 44.542318 L 15.820791 44.433757 Z M 9.071747 38.241048 L 9.004783 38.236328 L 9.688776 40.034668 L 11.501594 40.096029 L 10.76977 38.40625 L 7.081952 38.189128 L 7.081952 38.264648 L 8.574298 39.996908 L 8.913903 40.006348 Z M 10.061862 41.016439 L 10.143176 41.224121 L 12.396046 42.172852 L 11.635523 40.416992 Z M 2.839286 30.316081 L 2.33227 31.17985 L 4.121173 32.07194 L 4.566008 31.17985 Z M 4.910395 23.679687 L 4.666454 23.051921 L 3.896365 22.11735 L 3.021046 23.712728 L 4.164222 25.090983 Z M 1.992666 25.577148 L 1.86352 25.803711 L 2.217474 26.983724 L 3.336735 26.66276 L 3.475446 26.398437 Z M 2.829719 20.824056 L 2.657526 20.611654 L 1.418686 20.488932 L 1.30389 21.645345 L 1.509566 21.890788 Z M 6.311862 11.714355 L 6.058355 11.860677 L 5.785714 12.974609 L 7.110651 13.300293 L 7.254145 13.215332 Z M 14.572385 4.365234 L 12.716518 4.308594 L 11.898597 5.922852 L 13.754464 5.941732 Z M 10.430166 4.233073 L 10.085778 4.218913 L 9.296556 4.997721 L 10.171875 5.899251 L 10.430166 5.903971 Z M 15.438138 2.689616 L 15.572066 2.434733 L 15.19898 1.28776 L 14.060587 1.651204 L 13.926658 1.915527 Z M 24.406569 3.152181 L 24.736607 2.958659 L 25.052296 1.825846 L 23.942602 1.533203 L 23.593431 1.726725 Z M 35.111288 6.390137 L 39.095663 6.465658 L 34.408163 3.694987 L 35.551339 6.380697 L 39.349171 6.517578 L 34.279018 3.350423 L 35.651786 6.508138 L 37.560268 6.626139 L 36.737564 4.742839 L 33.84375 4.700358 Z M 29.51977 1.972168 L 29.007972 2.835937 L 30.796875 3.728027 L 31.246492 2.831217 Z M 35.780931 2.562174 L 35.632653 2.217611 L 34.618622 1.835286 L 34.149872 3.09554 L 34.235969 3.298503 Z M 40.114477 5.724609 L 39.210459 4.785319 L 39.009566 4.780599 L 39.009566 6.814941 Z M 41.836416 9.241048 L 40.171875 8.164876 L 39.626594 9.009766 L 41.305485 10.095378 Z M 42.759566 22.867839 L 43.147003 23.759928 L 43.295281 21.536784 L 42.754783 22.830078 L 43.668367 24.987142 L 44.562819 22.839518 L 43.649235 20.819336 Z M 43.912309 12.375163 L 43.926658 12.13444 L 43.108737 11.19987 L 42.166454 12.021159 L 42.147321 12.257161 Z M 46.901786 17.180176 L 47.045281 16.840332 L 46.60523 15.77832 L 45.514668 16.231445 L 45.38074 16.552409 Z M 44.294962 26.464518 L 44.390625 26.686361 L 45.529018 27.125326 L 45.978635 25.983073 L 45.882972 25.765951 Z M 44.969388 30.537923 L 44.916773 31.345052 L 46.815689 30.759766 L 48.595026 36.796712 L 44.400191 38.066406 L 44.213648 40.969238 L 40.884566 40.747396 L 40.640625 44.466797 L 38.086416 44.273275 L 36.321429 48.540202 L 30.533801 46.416178 L 31.562181 43.914551 L 29.137117 43.735189 L 30.242028 44.372396 L 27.506059 48.611003 L 21.574936 45.052083 L 19.427296 45.760091 L 16.643495 46.689941 L 16.643495 46.57194 L 12.596939 47.827474 L 11.735969 44.660319 L 9.487883 45.519368 L 8.076849 42.253092 L 4.719069 42.05485 L 5.264349 35.881022 L 5.489158 35.885742 L 5.202168 35.201335 L -0.288903 31.953939 L 0.906888 29.551432 L -1.891263 28.007975 L 0.237245 23.967611 L -2.828763 20.25293 L 2.064413 16.302246 L 3.341518 17.840983 L 4.264668 15.971842 L 1.667411 11.851237 L 7.985969 8.150716 L 6.431441 8.103516 L 6.431441 1.854167 L 11.334184 1.915527 L 13.720982 -2.691243 L 19.293367 0.173828 L 18.360651 2.019368 L 18.456314 2.019368 L 25.875 -2.35612 L 27.735651 0.910156 L 28.620536 -0.864583 L 30.892538 0.461751 L 36.273597 -2.105957 L 38.234694 2.472493 L 43.008291 2.647135 L 43.008291 7.61263 L 44.309311 8.391439 L 46.413903 8.53304 L 46.141263 12.540365 L 50.623087 14.381185 L 47.097895 22.820638 L 49.522959 28.536621 Z M 16.643495 46.57194 L 16.643495 43.86263 L 18.642857 43.86263 L 19.235969 45.774251 Z M 46.141263 12.540365 L 45.629464 19.979167 L 41.788584 19.077637 L 44.735013 11.964518 Z M 7.617666 23.240723 L 9.516582 19.507161 L 5.857462 17.916504 C 4.800383 20.809896 4.728635 23.807129 5.560906 26.837402 L 9.057398 25.072103 Z M 9.712691 33.624837 L 9.224809 33.91748 L 8.851722 35.881022 L 9.947066 36.088704 L 10.975446 37.391439 L 13.606186 34.460286 L 10.434949 32.468424 Z M 12.381696 36.239746 L 11.865115 34.988932 L 8.980867 37.46696 L 13.347895 40.105469 L 14.529337 36.395508 Z M 21.775829 25.808431 C 18.595026 25.095703 14.543686 26.299316 14.141901 27.771973 C 13.773597 29.30127 16.906569 32.402344 20.010842 33.129232 C 22.622449 33.83724 25.02838 32.652507 25.525829 30.712565 C 25.999362 28.758464 24.435268 26.544759 21.775829 25.808431 Z M 15.175064 8.065755 L 15.313776 8.127116 L 15.75861 7.135905 L 15.175064 6.871582 L 15.175064 6.314616 L 14.15625 4.591797 L 12.472577 5.587728 L 13.486607 7.310547 L 13.936224 7.508789 L 13.936224 8.315918 L 15.175064 8.315918 Z M 24.918367 9.085286 C 23.588648 8.325358 19.843431 10.449382 18.241071 13.238932 C 16.87787 15.580078 17.356186 18.256348 19.106824 19.256999 C 20.80963 20.25293 23.368622 19.327799 24.688776 16.963053 C 26.25287 14.215983 26.214605 9.868815 24.918367 9.085286 Z M 37.627232 23.174642 C 36.56537 20.120768 33.28412 17.340658 31.810906 17.845703 C 30.395089 18.355469 29.543686 22.565755 30.557717 25.619629 C 31.404337 28.140137 33.772003 29.541992 35.623087 28.881185 C 37.493304 28.267578 38.488202 25.73763 37.627232 23.174642 Z M 37.627232 23.174642 C 37.627232 23.169922 37.627232 23.169922 37.627232 23.165202 L 37.632015 23.184082 C 37.632015 23.179362 37.627232 23.174642 37.627232 23.174642 Z M 35.503508 38.39209 L 35.541773 37.839844 L 32.614477 37.636882 L 33.054528 41.549805 L 36.527105 40.506673 L 35.948342 38.590332 Z M 34.058992 8.613281 L 35.049107 10.973307 L 36.890625 10.194499 L 38.44037 8.929525 C 37.254145 7.480469 35.666135 6.125814 33.838967 4.90332 L 32.729273 6.564779 L 32.652742 8.561361 Z M 40.100128 33.417155 L 39.975765 32.921549 L 39.382653 33.067871 L 39.46875 33.417155 L 38.464286 33.417155 L 38.464286 34.861491 L 39.83227 34.861491 L 39.865753 35.007812 L 41.740753 35.7111 L 42.333865 34.120443 L 40.463648 33.417155 Z M 40.100128 33.417155 " transform="matrix(0.816667,0,0,0.827586,4.9,4.965517)"/>
</g>
</svg>
