<svg id="svg" version="1.1" xmlns="http://www.w3.org/2000/svg" xmlns:xlink="http://www.w3.org/1999/xlink" width="400" height="432" viewBox="0, 0, 400,432"><g id="svgg"><path id="path0" d="M197.000 32.452 C 195.680 32.906,194.510 33.399,194.400 33.548 C 194.290 33.697,193.705 34.133,193.100 34.518 C 192.495 34.903,192.000 35.484,192.000 35.809 C 192.000 36.134,191.840 36.400,191.643 36.400 C 190.106 36.400,189.912 39.177,189.965 60.536 C 189.993 71.941,189.878 81.205,189.708 81.123 C 189.539 81.041,188.860 80.714,188.200 80.395 C 187.540 80.077,186.910 79.701,186.800 79.560 C 186.690 79.418,185.700 78.816,184.600 78.222 C 183.500 77.627,181.700 76.592,180.600 75.923 C 179.500 75.253,177.741 74.231,176.691 73.652 C 175.640 73.074,174.170 72.240,173.423 71.800 C 158.940 63.269,149.520 57.986,148.400 57.767 C 142.657 56.644,137.150 60.017,136.178 65.253 C 135.033 71.418,137.008 74.255,146.000 79.362 C 148.970 81.049,151.670 82.590,152.000 82.786 C 157.621 86.128,187.670 103.564,188.567 104.004 L 189.800 104.608 189.887 143.511 L 189.974 182.414 189.127 181.961 C 188.661 181.711,186.150 180.268,183.548 178.754 C 180.946 177.239,178.692 176.000,178.540 176.000 C 178.388 176.000,177.979 175.752,177.631 175.450 C 177.127 175.010,157.030 163.338,150.724 159.823 C 149.913 159.370,147.843 158.170,146.124 157.156 C 144.406 156.142,142.595 155.185,142.100 155.029 C 141.605 154.873,141.200 154.596,141.200 154.412 C 141.200 154.229,140.705 153.877,140.100 153.631 C 139.495 153.385,135.400 151.070,131.000 148.486 L 123.000 143.788 122.750 127.994 C 122.613 119.307,122.470 105.990,122.431 98.400 C 122.369 86.073,122.285 84.429,121.643 83.000 C 117.587 73.973,104.414 75.403,102.374 85.092 C 102.010 86.822,101.945 92.943,102.117 109.532 C 102.291 126.466,102.234 131.621,101.872 131.481 C 101.613 131.380,97.918 129.295,93.662 126.849 C 89.406 124.402,85.797 122.400,85.642 122.400 C 85.487 122.400,85.135 122.175,84.860 121.900 C 84.585 121.625,83.211 120.770,81.805 120.000 C 80.400 119.230,76.325 116.902,72.749 114.827 C 66.572 111.242,66.120 111.048,63.663 110.942 C 52.910 110.477,48.827 125.040,58.329 129.970 C 59.446 130.549,68.211 135.550,69.600 136.400 C 70.854 137.168,75.428 139.825,76.485 140.400 C 77.825 141.129,86.993 146.469,89.891 148.209 L 91.983 149.464 83.891 154.155 C 79.441 156.735,75.530 159.009,75.200 159.207 C 74.870 159.406,71.810 161.142,68.400 163.064 C 64.990 164.986,62.140 166.703,62.067 166.879 C 61.993 167.056,61.747 167.200,61.518 167.200 C 61.175 167.200,58.361 168.768,53.400 171.723 C 42.980 177.931,49.702 193.618,61.333 190.237 C 62.580 189.874,63.600 189.403,63.600 189.189 C 63.600 188.975,63.783 188.800,64.006 188.800 C 64.373 188.800,66.082 187.862,70.336 185.327 C 71.141 184.848,72.340 184.176,73.000 183.836 C 73.660 183.495,74.470 183.038,74.800 182.820 C 75.130 182.602,79.720 179.960,85.000 176.950 C 90.280 173.939,98.614 169.166,103.519 166.342 L 112.438 161.208 126.519 169.330 C 134.264 173.798,140.870 177.585,141.200 177.746 C 141.530 177.907,142.466 178.435,143.281 178.919 C 150.576 183.260,158.872 188.000,159.173 188.000 C 159.376 188.000,159.781 188.235,160.071 188.522 C 160.362 188.808,164.785 191.445,169.900 194.382 C 180.067 200.218,179.851 200.029,177.700 201.201 C 173.037 203.742,170.780 205.060,170.337 205.503 C 170.064 205.776,169.647 206.000,169.411 206.000 C 169.175 206.000,168.025 206.630,166.856 207.400 C 165.687 208.170,164.645 208.800,164.541 208.800 C 164.437 208.800,159.954 211.365,154.577 214.500 C 149.201 217.635,144.295 220.470,143.676 220.800 C 142.775 221.280,128.810 229.363,126.400 230.800 C 126.070 230.996,122.796 232.875,119.125 234.975 L 112.451 238.793 108.525 236.578 C 106.366 235.359,104.330 234.199,104.000 233.999 C 102.218 232.921,98.233 230.625,87.400 224.436 C 80.800 220.666,75.130 217.402,74.800 217.182 C 74.470 216.963,73.660 216.505,73.000 216.164 C 72.340 215.824,71.141 215.152,70.336 214.673 C 66.082 212.138,64.373 211.200,64.006 211.200 C 63.783 211.200,63.600 211.025,63.600 210.811 C 63.600 210.103,59.188 209.090,57.155 209.331 C 48.965 210.301,45.212 220.485,50.932 226.217 C 52.362 227.649,59.907 232.400,60.752 232.400 C 60.910 232.400,61.264 232.624,61.537 232.897 C 61.811 233.171,63.181 234.026,64.581 234.797 C 65.982 235.569,68.762 237.145,70.761 238.300 C 72.759 239.455,74.560 240.400,74.764 240.400 C 74.967 240.400,75.193 240.544,75.267 240.719 C 75.340 240.895,76.053 241.390,76.850 241.819 C 77.648 242.249,81.380 244.385,85.144 246.566 L 91.988 250.533 89.894 251.791 C 87.529 253.213,78.120 258.685,76.466 259.600 C 75.435 260.170,70.879 262.822,69.600 263.595 C 69.270 263.795,66.390 265.430,63.200 267.228 C 52.383 273.325,49.858 279.524,55.636 285.793 C 59.979 290.504,63.807 290.364,72.767 285.164 C 76.334 283.094,80.186 280.888,81.326 280.263 C 82.467 279.637,83.850 278.831,84.400 278.472 C 84.950 278.113,86.210 277.388,87.200 276.861 C 88.190 276.334,89.270 275.697,89.600 275.445 C 89.930 275.193,91.234 274.450,92.499 273.794 C 93.763 273.137,94.798 272.465,94.799 272.300 C 94.799 272.135,94.986 272.000,95.214 272.000 C 95.442 272.000,97.055 271.190,98.800 270.200 C 100.545 269.210,102.052 268.400,102.150 268.400 C 102.248 268.400,102.228 278.525,102.106 290.900 C 101.910 310.834,101.958 313.651,102.529 315.600 C 105.221 324.798,117.682 325.710,121.653 317.000 C 122.289 315.605,122.384 314.245,122.391 306.366 C 122.396 301.397,122.520 288.100,122.666 276.816 L 122.932 256.301 124.566 255.333 C 125.465 254.801,129.440 252.490,133.400 250.198 C 137.360 247.906,140.870 245.846,141.200 245.621 C 141.530 245.395,142.877 244.644,144.193 243.952 C 145.509 243.259,147.309 242.230,148.193 241.665 C 149.077 241.099,150.340 240.349,151.000 239.998 C 151.660 239.647,156.850 236.668,162.533 233.380 C 168.217 230.091,173.797 226.887,174.933 226.260 C 176.070 225.633,177.284 224.868,177.631 224.560 C 177.979 224.252,178.397 224.000,178.561 224.000 C 178.725 224.000,181.231 222.624,184.129 220.943 C 187.028 219.261,189.527 217.816,189.682 217.731 C 190.061 217.522,190.078 294.484,189.699 295.031 C 189.535 295.268,182.290 299.579,173.600 304.611 C 164.910 309.643,157.710 313.859,157.600 313.980 C 157.490 314.101,156.410 314.721,155.200 315.358 C 153.990 315.995,152.716 316.760,152.369 317.058 C 152.021 317.356,151.613 317.600,151.462 317.600 C 150.725 317.600,140.407 323.887,139.067 325.152 C 131.764 332.049,137.993 344.193,147.885 342.345 C 149.618 342.021,165.667 333.161,167.129 331.721 C 167.419 331.434,167.873 331.200,168.138 331.200 C 168.402 331.200,169.575 330.570,170.744 329.800 C 171.913 329.030,172.949 328.400,173.046 328.400 C 173.273 328.400,181.736 323.500,182.000 323.215 C 182.110 323.097,183.081 322.556,184.158 322.014 C 185.234 321.472,186.314 320.839,186.558 320.609 C 186.935 320.252,187.466 319.960,189.708 318.877 C 189.878 318.795,189.991 328.103,189.960 339.560 L 189.903 360.393 190.961 362.557 C 194.590 369.972,205.410 369.972,209.039 362.557 L 210.097 360.393 210.040 339.560 C 210.009 328.103,210.122 318.795,210.292 318.877 C 212.534 319.960,213.065 320.252,213.442 320.609 C 213.686 320.839,214.766 321.472,215.842 322.014 C 216.919 322.556,217.890 323.111,218.000 323.248 C 218.110 323.384,219.190 324.025,220.400 324.672 C 221.610 325.318,223.379 326.343,224.330 326.948 C 225.282 327.553,226.362 328.155,226.730 328.285 C 227.099 328.415,227.670 328.746,228.000 329.021 C 228.330 329.295,229.525 330.033,230.655 330.660 C 231.785 331.287,236.645 334.085,241.455 336.878 C 250.266 341.994,251.575 342.545,254.725 342.461 C 263.230 342.235,267.258 331.034,260.948 325.159 C 259.629 323.931,243.745 314.400,243.017 314.400 C 242.879 314.400,242.549 314.208,242.283 313.972 C 241.880 313.615,218.930 300.191,216.144 298.682 C 215.654 298.417,214.070 297.515,212.623 296.678 L 209.993 295.157 210.017 256.376 L 210.042 217.594 210.921 218.064 C 212.155 218.724,218.475 222.361,219.200 222.829 C 219.530 223.042,220.340 223.495,221.000 223.836 C 221.660 224.176,222.860 224.848,223.667 225.327 C 224.473 225.807,227.713 227.694,230.867 229.519 C 234.020 231.345,236.870 232.997,237.200 233.191 C 242.947 236.571,249.622 240.400,249.770 240.400 C 249.874 240.400,250.734 240.918,251.680 241.551 C 252.626 242.184,254.480 243.267,255.800 243.956 C 257.120 244.646,258.470 245.395,258.800 245.621 C 259.130 245.846,262.640 247.906,266.600 250.198 C 270.560 252.490,274.535 254.801,275.434 255.333 L 277.068 256.301 277.334 277.650 C 277.480 289.393,277.599 302.700,277.600 307.221 C 277.600 315.265,277.622 315.488,278.636 317.522 C 282.892 326.062,295.645 324.307,297.626 314.908 C 297.992 313.172,298.053 307.121,297.872 290.500 C 297.740 278.345,297.728 268.400,297.846 268.400 C 297.964 268.400,299.293 269.120,300.800 270.000 C 302.307 270.880,303.720 271.600,303.941 271.600 C 304.162 271.600,304.581 271.832,304.871 272.115 C 305.162 272.398,308.640 274.477,312.600 276.735 C 316.560 278.992,320.070 281.005,320.400 281.206 C 329.848 286.982,333.795 288.931,336.298 289.058 C 345.573 289.529,350.615 278.597,344.124 272.089 C 343.286 271.249,339.990 269.076,336.800 267.260 C 333.610 265.444,330.730 263.795,330.400 263.595 C 329.121 262.822,324.565 260.170,323.534 259.600 C 321.877 258.683,312.469 253.212,310.097 251.786 L 307.995 250.522 320.097 243.578 C 326.754 239.759,332.438 236.401,332.729 236.117 C 333.019 235.833,333.435 235.600,333.653 235.600 C 334.693 235.600,348.072 227.417,349.356 225.996 C 351.653 223.454,352.810 217.195,351.170 216.182 C 350.959 216.051,350.877 215.800,350.986 215.622 C 351.639 214.567,347.623 210.796,344.776 209.792 C 342.193 208.880,336.400 209.588,336.400 210.815 C 336.400 211.027,336.217 211.200,335.994 211.200 C 335.627 211.200,333.918 212.138,329.664 214.673 C 328.859 215.152,327.660 215.834,327.000 216.188 C 326.340 216.542,325.260 217.139,324.600 217.515 C 322.706 218.596,317.538 221.566,316.000 222.459 C 315.230 222.905,310.550 225.604,305.600 228.456 C 300.650 231.307,296.330 233.803,296.000 234.001 C 295.670 234.200,293.636 235.358,291.480 236.574 L 287.560 238.786 271.880 229.784 C 263.256 224.832,255.930 220.614,255.600 220.410 C 254.670 219.836,247.157 215.473,245.941 214.800 C 245.344 214.470,242.779 212.985,240.242 211.500 C 237.704 210.015,235.547 208.800,235.449 208.800 C 235.350 208.800,234.313 208.170,233.144 207.400 C 231.975 206.630,230.825 206.000,230.589 206.000 C 230.353 206.000,229.936 205.776,229.663 205.503 C 229.220 205.060,226.963 203.742,222.300 201.201 C 221.475 200.752,220.800 200.251,220.800 200.089 C 220.800 199.822,224.034 197.634,225.000 197.248 C 226.101 196.807,239.418 188.990,239.533 188.717 C 239.607 188.542,239.852 188.400,240.078 188.400 C 240.412 188.400,248.093 184.022,256.712 178.919 C 257.530 178.435,258.470 177.908,258.800 177.748 C 259.265 177.523,270.443 171.061,273.600 169.192 C 273.930 168.997,277.201 167.119,280.869 165.019 L 287.539 161.201 303.249 170.238 C 311.889 175.208,319.868 179.744,320.979 180.317 C 322.091 180.890,323.090 181.476,323.200 181.618 C 323.386 181.859,323.881 182.144,327.000 183.813 C 328.215 184.463,328.643 184.712,334.345 188.086 C 339.239 190.981,342.754 191.479,346.099 189.749 C 347.431 189.060,350.762 185.860,350.850 185.185 C 350.949 184.419,351.016 184.193,351.260 183.800 C 353.463 180.243,350.579 173.779,345.600 171.116 C 344.610 170.587,343.080 169.703,342.200 169.152 C 341.320 168.601,333.263 163.949,324.296 158.815 L 307.993 149.479 310.096 148.215 C 313.236 146.327,322.295 141.082,323.525 140.438 C 324.116 140.129,324.690 139.766,324.800 139.630 C 324.910 139.495,325.450 139.166,326.000 138.901 C 326.550 138.635,327.720 137.965,328.600 137.412 C 329.480 136.858,330.470 136.283,330.800 136.134 C 331.130 135.984,332.988 134.948,334.928 133.831 C 336.869 132.714,339.299 131.320,340.328 130.733 C 350.925 124.693,348.346 111.038,336.605 111.018 L 333.800 111.014 324.488 116.407 C 313.631 122.695,314.889 121.972,309.589 124.970 C 307.285 126.273,305.340 127.488,305.267 127.670 C 305.193 127.851,304.960 128.000,304.748 128.000 C 304.536 128.000,302.958 128.810,301.242 129.800 C 299.526 130.790,298.022 131.600,297.900 131.600 C 297.778 131.600,297.774 121.655,297.891 109.500 C 298.049 93.088,297.980 86.806,297.622 85.092 C 295.658 75.686,282.732 73.925,278.658 82.508 L 277.665 84.600 277.394 114.000 C 277.228 132.029,276.973 143.583,276.734 143.874 C 276.521 144.134,275.593 144.736,274.673 145.210 C 273.186 145.977,266.460 149.875,262.466 152.284 C 261.660 152.771,260.505 153.373,259.900 153.623 C 259.295 153.874,258.800 154.229,258.800 154.412 C 258.800 154.596,258.395 154.872,257.900 155.026 C 257.405 155.181,255.584 156.138,253.853 157.153 C 252.123 158.169,249.783 159.511,248.653 160.135 C 247.524 160.759,246.150 161.566,245.600 161.928 C 245.050 162.290,244.154 162.825,243.609 163.117 C 243.064 163.408,239.140 165.661,234.889 168.123 C 230.638 170.586,226.179 173.148,224.982 173.818 C 223.784 174.488,222.587 175.253,222.322 175.518 C 222.057 175.783,221.692 176.000,221.511 176.000 C 221.330 176.000,219.733 176.855,217.962 177.900 C 216.191 178.945,213.683 180.384,212.389 181.099 L 210.037 182.398 210.019 143.899 C 210.010 122.724,210.137 105.208,210.301 104.973 C 210.544 104.626,229.488 93.401,233.544 91.200 C 234.517 90.673,246.419 83.750,248.000 82.793 C 248.330 82.593,251.030 81.049,254.000 79.362 C 262.242 74.681,263.982 72.630,263.982 67.600 C 263.982 61.081,258.481 56.466,252.124 57.654 C 250.605 57.937,236.616 65.664,227.600 71.200 C 227.270 71.402,225.020 72.693,222.600 74.069 C 220.180 75.444,218.110 76.666,218.000 76.785 C 217.890 76.903,216.919 77.444,215.842 77.986 C 214.766 78.528,213.686 79.161,213.442 79.391 C 213.065 79.748,212.506 80.055,210.290 81.124 C 210.120 81.206,209.994 72.122,210.012 60.937 C 210.029 49.751,209.933 40.060,209.798 39.400 C 209.448 37.687,207.730 34.896,206.687 34.347 C 206.199 34.090,205.710 33.744,205.600 33.578 C 204.609 32.082,199.878 31.462,197.000 32.452 " stroke="none" fill="#fcfcfc" fill-rule="evenodd"></path><path id="path1" d="M111.700 323.076 C 112.085 323.176,112.715 323.176,113.100 323.076 C 113.485 322.975,113.170 322.893,112.400 322.893 C 111.630 322.893,111.315 322.975,111.700 323.076 " stroke="none" fill="#f4f4f4" fill-rule="evenodd"></path><path id="path2" d="" stroke="none" fill="#fc100f8" fill-rule="evenodd"></path><path id="path3" d="" stroke="none" fill="#fc100f8" fill-rule="evenodd"></path><path id="path4" d="" stroke="none" fill="#fc100f8" fill-rule="evenodd"></path></g></svg>