<?xml version="1.0" encoding="UTF-8"?>
<svg xmlns="http://www.w3.org/2000/svg" xmlns:xlink="http://www.w3.org/1999/xlink" width="50pt" height="50pt" viewBox="0 0 50 50" version="1.1">
<g id="surface1">
<path style="fill:none;stroke-width:4;stroke-linecap:butt;stroke-linejoin:miter;stroke:rgb(100%,100%,100%);stroke-opacity:1;stroke-miterlimit:4;" d="M 38.000902 12 L 38.000902 3 C 38.000902 2.46 37.528245 1.99875 36.922777 1.99875 L 3.07512 1.99875 C 2.469652 1.99875 2.000902 2.46 2.000902 3 L 2.000902 12 C 2.000902 12.54 2.469652 13.00125 3.07512 13.00125 L 36.922777 13.00125 C 37.528245 13.00125 38.000902 12.54 38.000902 12 Z M 45.07512 8.49375 L 45.07512 18 C 45.07512 20.77125 42.79387 22.99875 40.000902 22.99875 L 24.614183 22.99875 C 22.309495 22.99875 20.461839 24.8025 20.461839 27 L 20.461839 31.99875 L 18.461839 31.99875 C 17.85637 31.99875 17.383714 32.46 17.383714 33 L 17.383714 45 C 17.383714 45.54 17.85637 46.00125 18.461839 46.00125 L 24.614183 46.00125 C 25.219652 46.00125 25.692308 45.54 25.692308 45 L 25.692308 33 C 25.692308 32.46 25.219652 31.99875 24.614183 31.99875 L 22.614183 31.99875 L 22.614183 25.00125 L 40.000902 25.00125 C 44.004808 25.00125 47.23137 21.855 47.23137 18 L 47.23137 12 C 47.23137 10.49625 46.364183 9.17625 45.07512 8.49375 Z M 45.07512 8.49375 " transform="matrix(1,0,0,1.041667,0.307692,0.00000000000007816)"/>
</g>
</svg>
