<?xml version="1.0" encoding="UTF-8"?>
<svg width="60px" height="58px" viewBox="0 0 60 58" version="1.1" xmlns="http://www.w3.org/2000/svg" xmlns:xlink="http://www.w3.org/1999/xlink">
    <!-- Generator: sketchtool 55.2 (78181) - https://sketchapp.com -->
    <title>AA479C1A-E935-4D8E-9AE4-1DB634123563</title>
    <desc>Created with sketchtool.</desc>
    <g id="Page-1" stroke="none" stroke-width="1" fill="black" fill-rule="evenodd">
        <g id="Templates---New-Layout" transform="translate(-822.000000, -723.000000)" fill-rule="nonzero" stroke="" stroke-width="4">
            <g id="Cards" transform="translate(468.000000, 132.000000)">
                <g id="Card-Copy-5" transform="translate(264.000000, 568.000000)">
                    <g id="Group-2-Copy">
                        <g id="icon-nest" transform="translate(96.000000, 29.000000)">
                            <path d="M40.6845926,35.0094365 L40.5686531,36.8827367 L42.196364,36.3781756 L42.2597958,34.5333492 L40.6845926,35.0094365 Z M44.12581,35.7800821 L44.368928,35.7047199 L44.9693837,34.5934565 L43.920411,34.031447 L43.6359791,34.1174134 L44.12581,35.7800821 Z M40.4813452,36.7097111 L40.3520563,38.6978564 L40.3637338,38.6982579 L42.1710443,37.114565 L42.1810572,36.8233519 L40.4813452,36.7097111 Z M34.7544835,41.8667146 L36.6981219,41.9446842 L37.3631856,40.3285379 L35.4500636,40.1881498 L34.7544835,41.8667146 Z M36.7967844,41.9486421 L38.7987511,42.0289516 L38.8989892,40.6962857 L38.9138971,40.324658 L36.912183,40.1740966 L36.7967844,41.9486421 Z M34.0937064,43.4612933 L33.9996328,43.6883103 L34.4661628,44.7489887 L35.7813768,44.172432 L35.8142403,44.0925716 L34.0937064,43.4612933 Z M20.6446281,41.2642576 L18.2086246,42.053543 L20.6446281,43.4575811 L20.6446281,41.2642576 Z M27.3937931,45.0372666 L25.740923,43.9708369 L25.1954685,44.8162423 L26.8760331,45.9005405 L27.3937931,45.0372666 Z M19.2998721,41.5897383 L18.1686658,41.9616949 L18.0105323,42.0145323 L18.5292882,43.5663262 L20.2649761,43.0093049 L19.2998721,41.5897383 Z M15.3701101,42.7812167 L15.1836775,42.838899 L14.540223,44.0241405 L15.484803,44.5433701 L15.8200573,44.4357794 L15.3701101,42.7812167 Z M9.07248571,38.2401043 L9.00350857,38.2346016 L9.68986274,40.0348568 L11.4997198,40.0974456 L10.7681425,38.406777 L7.08241707,38.1893446 L7.07978018,38.2655945 L8.57252719,39.9962169 L8.91578341,40.0080875 L9.07248571,38.2401043 Z M10.0638529,41.0158047 L10.1425425,41.2222015 L12.3975087,42.1722276 L11.6370312,40.4147709 L10.0638529,41.0158047 Z M2.84049593,30.3171322 L2.33057851,31.1805405 L4.12046075,32.0729091 L4.56674174,31.1777739 L2.84049593,30.3171322 Z M4.9106292,23.6798175 L4.66803322,23.050423 L3.89790036,22.1177703 L3.01972628,23.7114283 L4.16655292,25.0915877 L4.9106292,23.6798175 Z M1.99084129,25.5785875 L1.86560524,25.8058585 L2.21878316,26.9857569 L3.33899048,26.66176 L3.47764392,26.3986864 L1.99084129,25.5785875 Z M2.82935264,20.8237286 L2.65585373,20.6136165 L1.41855394,20.490755 L1.30219928,21.6444542 L1.50754915,21.8915844 L2.82935264,20.8237286 Z M6.31095673,11.7134711 L6.05836775,11.8621572 L5.78589192,12.9769169 L7.11203218,13.2991609 L7.25638396,13.214713 L6.31095673,11.7134711 Z M14.570379,4.36731804 L12.7153201,4.3063211 L11.8966796,5.92095554 L13.7547603,5.94340659 L14.570379,4.36731804 Z M10.4297521,4.2311684 L10.0847042,4.21982275 L9.29808388,4.99699585 L10.1719966,5.90011632 L10.4297521,5.90323076 L10.4297521,4.2311684 Z M15.4383341,2.69009544 L15.5712606,2.4332304 L15.2000579,1.28827463 L14.0609043,1.65237657 L13.9280921,1.91432685 L15.4383341,2.69009544 Z M24.4083023,3.15269773 L24.7371252,2.95855839 L25.0523946,1.82640154 L23.9409449,1.53099764 L23.5945936,1.72460243 L24.4083023,3.15269773 Z M35.1089139,6.39155027 L39.0964098,6.4638212 L34.406006,3.69680607 L35.5520716,6.37866835 L39.3506211,6.51636113 L34.2794534,3.34973886 L35.6513704,6.50747819 L37.5587362,6.62703223 L36.7355264,4.74470282 L33.8428927,4.69865563 L35.1089139,6.39155027 Z M29.5177446,1.97096817 L29.0082645,2.83459459 L30.7981467,3.72696312 L31.2444277,2.83182798 L29.5177446,1.97096817 Z M35.7811395,2.56242755 L35.6302985,2.21751868 L34.6167316,1.83519424 L34.1481593,3.09342943 L34.2364783,3.30010102 L35.7811395,2.56242755 Z M40.1154946,5.72322826 L39.2097822,4.78408994 L39.0082645,4.78088203 L39.0082645,6.81297297 L40.1154946,5.72322826 Z M41.8387279,9.24165717 L40.1706751,8.16543149 L39.6252205,9.0108369 L41.3057851,10.0951351 L41.8387279,9.24165717 Z M42.7596283,22.8685442 L43.1469841,23.7601203 L43.2961161,21.5380575 L42.7556075,22.8320233 L43.670728,24.9887561 L44.5609682,22.8379038 L43.648762,20.8176411 L42.7596283,22.8685442 Z M43.9112045,12.3732551 L43.9270854,12.1366305 L43.1074053,11.1982052 L42.165235,12.0220746 L42.1493127,12.255457 L43.9112045,12.3732551 Z M46.9036413,17.1779212 L47.0434929,16.8400347 L46.6034064,15.7781515 L45.5123666,16.2324014 L45.3787404,16.5522997 L46.9036413,17.1779212 Z M44.2972168,26.465249 L44.3919824,26.6885902 L45.5270453,27.1235734 L45.980044,25.9807306 L45.883466,25.7668392 L44.2972168,26.465249 Z M44.9688571,30.5400799 L44.9189502,31.3464525 L46.8163387,30.7582963 L48.5954259,36.7971812 L44.4016797,38.0646935 L44.2128697,40.9681268 L40.8834718,40.745527 L40.641536,44.4659034 L38.0868707,44.2737512 L36.3195167,48.5387067 L30.5328671,46.4155365 L31.5624342,43.9136243 L29.1373154,43.735665 L30.2421155,44.372438 L27.5072382,48.6112514 L21.5739369,45.0526751 L19.4274842,45.7584407 L16.6446281,46.6887336 L16.6446281,46.5739626 L12.596832,47.8263509 L11.7355266,44.6591265 L9.48693577,45.5182021 L8.07483271,42.2548446 L4.71851412,42.0568449 L5.26603478,35.8794801 L5.48805393,35.887158 L5.20225584,35.1992652 L-0.290484676,31.9553263 L0.908779772,29.5498827 L-1.89086706,28.0056379 L0.23760149,23.9671966 L-2.82935264,20.2530281 L2.06269878,16.300848 L3.34191177,17.840329 L4.26692206,15.9739312 L1.66923588,11.8490708 L7.98712114,8.15301305 L6.42975207,8.10180457 L6.42975207,1.85460707 L11.3361488,1.9138907 L13.7186907,-2.69009544 L19.2950484,0.174321802 L18.359361,2.01981206 L18.4573057,2.02107138 L25.8726895,-2.35702205 L27.7335628,0.908894497 L28.6187553,-0.86659421 L30.8932104,0.463996187 L36.2759184,-2.10658751 L38.2330524,2.47322354 L43.0082645,2.64631915 L43.0082645,7.61145132 L44.3093132,8.39094193 L46.4126708,8.53157002 L46.1391494,12.5407156 L50.6212596,14.3795922 L47.0956321,22.8198686 L49.5209651,28.5358321 L44.9688571,30.5400799 Z M16.6446281,46.5739626 L16.6446281,43.8616216 L18.6446281,43.8616216 L19.2357797,45.7722602 L16.6446281,46.5739626 Z M46.1391494,12.5407156 L45.6317253,19.9782945 L41.7884005,19.0772882 L44.7327224,11.9637004 L46.1391494,12.5407156 Z M7.61845547,23.2398573 L9.51811809,19.5057846 L5.85637191,17.9142746 C4.80145447,20.8097404 4.72930215,23.8054578 5.55856295,26.8350453 L9.0591018,25.0699367 L7.61845547,23.2398573 Z M9.7105225,33.6240871 L9.2231405,33.9156757 L8.85032254,35.8806201 L9.94945705,36.089164 L10.973956,37.3906038 L13.6076472,34.4588906 L10.4340935,32.4697014 L9.7105225,33.6240871 Z M12.382933,36.2386422 L11.8634672,34.9883302 L8.98249538,37.4676262 L13.3461317,40.1033019 L14.5272487,36.3967671 L12.382933,36.2386422 Z M21.7778498,25.810652 C18.5962671,25.0944079 14.5458696,26.2989976 14.1425733,27.7706468 C13.7735396,29.3003835 16.907018,32.4029482 20.0108229,33.129112 C22.6235847,33.8372996 25.0270544,32.6528796 25.5268482,30.7115154 C25.9976819,28.7597926 24.4346337,26.5470565 21.7778498,25.810652 Z M15.1735537,8.06676706 L15.3123286,8.12903623 L15.7586096,7.13444164 L15.1735537,6.87192332 L15.1735537,6.31567568 L14.157344,4.59308522 L12.4713936,5.58767982 L13.4876033,7.31027027 L13.9338843,7.51051942 L13.9338843,8.31567568 L15.1735537,8.31567568 L15.1735537,8.06676706 Z M24.9189631,9.08340854 C23.5903383,8.32324616 19.8440371,10.4472814 18.2402541,13.2407418 C16.876386,15.5803996 17.3576281,18.2558455 19.1071246,19.2585101 C20.8106303,20.252498 23.3702886,19.3266812 24.6904003,16.965186 C26.2513782,14.215022 26.2146473,9.86862744 24.9189631,9.08340854 Z M37.6280401,23.1741523 C36.5672277,20.121543 33.2832593,17.3392897 31.8128604,17.8468371 C30.3934963,18.353491 29.5425299,22.5680711 30.5563961,25.6184947 C31.4065678,28.1408367 33.7697577,29.5437083 35.6232113,28.882776 C37.4917819,28.2683636 38.488252,25.7373742 37.6280396,23.1741529 Z M37.6280396,23.1741529 C37.627169,23.1715587 37.6262965,23.1689645 37.6254221,23.1663702 L37.6307301,23.1819073 C37.629835,23.1793221 37.6289384,23.1767371 37.6280401,23.1741523 Z M35.5028407,38.3939044 L35.5406296,37.8381205 L32.6150097,37.6392015 L33.0555541,41.5497907 L36.5266284,40.5054664 L35.9504132,38.5902703 L35.5028407,38.3939044 Z M34.0568197,8.61508795 L35.0494679,10.9711281 L36.892562,10.1945946 L38.4398049,8.92729852 C37.2557685,7.4817074 35.667323,6.12417325 33.8388844,4.90170002 L32.7272727,6.56432432 L32.6530363,8.56294609 L34.0568197,8.61508795 Z M40.10123,33.4183784 L39.9764229,32.920585 L39.3813815,33.0697742 L39.4687838,33.4183784 L38.4628099,33.4183784 L38.4628099,34.8605405 L39.8303638,34.8605405 L39.8677686,35.0097297 L41.74109,35.7102059 L42.3361313,34.1188545 L40.4628099,33.4183784 L40.10123,33.4183784 Z" id="Shape"></path>
                        </g>
                    </g>
                </g>
            </g>
        </g>
    </g>
</svg>
