<svg fill="white" height="512pt" viewBox="-64 0 511 512" width="512pt" xmlns="http://www.w3.org/2000/svg"><path d="m138.574219 245.394531c-5.859375-5.859375-15.355469-5.859375-21.214844 0l-48.199219 48.199219c-5.859375 5.855469-5.859375 15.355469 0 21.214844l48.199219 48.199218c5.859375 5.859376 15.355469 5.855469 21.214844 0 5.855469-5.859374 5.855469-15.355468 0-21.214843l-37.59375-37.59375 37.59375-37.59375c5.855469-5.855469 5.855469-15.355469 0-21.210938zm0 0"/><path d="m267.105469 245.394531c-5.855469-5.859375-15.355469-5.859375-21.210938 0-5.859375 5.855469-5.859375 15.355469 0 21.210938l37.589844 37.59375-37.589844 37.597656c-5.859375 5.855469-5.859375 15.351563 0 21.210937 5.859375 5.859376 15.355469 5.855469 21.210938 0l48.199219-48.199218c5.859374-5.859375 5.859374-15.355469 0-21.214844zm0 0"/><path d="m211.9375 225.382812c-8.035156-2.011718-16.179688 2.875-18.191406 10.914063l-32.132813 128.53125c-2.007812 8.035156 2.878907 16.183594 10.914063 18.191406 8.476562 2.121094 16.292968-3.324219 18.191406-10.914062l32.132812-128.535157c2.007813-8.035156-2.875-16.179687-10.914062-18.1875zm0 0"/><path d="m336.832031 0h-224.933593c-3.976563 0-7.792969 1.582031-10.605469 4.394531l-96.398438 96.398438c-2.8125 2.8125-4.394531 6.628906-4.394531 10.605469v353.46875c0 25.988281 21.144531 47.132812 47.132812 47.132812h289.199219c25.914063 0 47.132813-20.953125 47.132813-47.132812v-417.734376c0-25.914062-20.949219-47.132812-47.132813-47.132812zm-223.867187 35.144531v60.1875c0 9.449219-7.683594 17.132813-17.132813 17.132813h-60.1875zm241 429.722657c0 9.332031-7.542969 17.132812-17.132813 17.132812h-289.199219c-9.445312 0-17.132812-7.6875-17.132812-17.132812v-322.398438h65.332031c25.988281 0 47.132813-21.144531 47.132813-47.132812v-65.335938h193.867187c9.335938 0 17.132813 7.546875 17.132813 17.132812zm0 0"/></svg>
