<?xml version="1.0" encoding="UTF-8"?>
<svg xmlns="http://www.w3.org/2000/svg" xmlns:xlink="http://www.w3.org/1999/xlink" width="50pt" height="50pt" viewBox="0 0 50 50" version="1.1">
<g id="surface1">
<path style=" stroke:none;fill-rule:nonzero;fill:rgb(100%,100%,100%);fill-opacity:1;" d="M 48.300781 16.066406 C 47.839844 15.6875 37.390625 7.28125 35.089844 5.453125 C 32.933594 3.730469 29.242188 0 25 0 C 20.78125 0 17.125 3.683594 14.910156 5.453125 C 12.519531 7.355469 2.109375 15.726562 1.710938 16.054688 C 0.628906 16.945312 0 18.273438 0 19.675781 L 0 45.3125 C 0 47.902344 2.097656 50 4.6875 50 L 45.3125 50 C 47.902344 50 50 47.902344 50 45.3125 L 50 19.679688 C 50 18.28125 49.375 16.957031 48.300781 16.066406 Z M 45.3125 44.726562 C 45.3125 45.050781 45.050781 45.3125 44.726562 45.3125 L 5.273438 45.3125 C 4.949219 45.3125 4.6875 45.050781 4.6875 44.726562 L 4.6875 19.957031 C 4.6875 19.777344 4.765625 19.613281 4.90625 19.5 C 6.453125 18.25 15.527344 10.949219 17.832031 9.121094 C 19.605469 7.703125 22.695312 4.6875 25 4.6875 C 27.3125 4.6875 30.453125 7.75 32.167969 9.121094 C 34.472656 10.949219 43.546875 18.25 45.09375 19.503906 C 45.234375 19.613281 45.3125 19.78125 45.3125 19.957031 Z M 42.1875 26.394531 C 42.601562 26.898438 42.527344 27.644531 42.019531 28.054688 C 39.1875 30.328125 36.230469 32.703125 35.089844 33.609375 C 32.875 35.378906 29.21875 39.0625 25 39.0625 C 20.757812 39.0625 17.0625 35.328125 14.910156 33.609375 C 13.808594 32.730469 10.832031 30.34375 7.980469 28.054688 C 7.472656 27.644531 7.398438 26.898438 7.8125 26.394531 L 9.300781 24.585938 C 9.710938 24.089844 10.441406 24.015625 10.941406 24.417969 C 13.734375 26.664062 16.660156 29.011719 17.832031 29.941406 C 19.546875 31.3125 22.6875 34.375 25 34.375 C 27.304688 34.375 30.394531 31.359375 32.167969 29.941406 C 33.339844 29.011719 36.265625 26.664062 39.058594 24.417969 C 39.558594 24.015625 40.289062 24.089844 40.699219 24.585938 Z M 42.1875 26.394531 "/>
</g>
</svg>
