<?xml version="1.0" encoding="UTF-8"?>
<svg width="48px" height="36px" viewBox="0 0 48 36" version="1.1" xmlns="http://www.w3.org/2000/svg" xmlns:xlink="http://www.w3.org/1999/xlink">
    <!-- Generator: sketchtool 55.2 (78181) - https://sketchapp.com -->
    <title>9AAA1EA8-DD6E-4E7F-9C73-A6E4284E5DC1</title>
    <desc>Created with sketchtool.</desc>
    <g id="Page-1" stroke="none" stroke-width="1" fill="none" fill-rule="evenodd">
        <g id="Templates---New-Layout" transform="translate(-825.000000, -166.000000)" fill="#FFFFFF" fill-rule="nonzero">
            <g id="Cards" transform="translate(468.000000, 132.000000)">
                <g id="Card" transform="translate(264.000000, 0.000000)">
                    <g id="Group-2-Copy">
                        <g id="envelope-regular" transform="translate(93.000000, 34.000000)">
                            <path d="M43.5,0 L4.5,0 C2.0146875,0 0,2.0146875 0,4.5 L0,31.5 C0,33.9853125 2.0146875,36 4.5,36 L43.5,36 C45.9853125,36 48,33.9853125 48,31.5 L48,4.5 C48,2.0146875 45.9853125,0 43.5,0 Z M43.5,4.5 L43.5,8.32546875 C41.3979375,10.03725 38.04675,12.699 30.8824688,18.3089063 C29.303625,19.5508125 26.176125,22.5344063 24,22.499625 C21.82425,22.5347813 18.6957187,19.5503438 17.1175312,18.3089063 C9.954375,12.6998438 6.60234375,10.0375313 4.5,8.32546875 L4.5,4.5 L43.5,4.5 Z M4.5,31.5 L4.5,14.0998125 C6.6481875,15.8108438 9.69459375,18.211875 14.3379375,21.847875 C16.3870312,23.4608437 19.9755,27.0215625 24,26.9999062 C28.0047187,27.0215625 31.5477188,23.5125 33.6612188,21.848625 C38.3044688,18.2127187 41.3517187,15.8110312 43.5,14.0998125 L43.5,31.5 L4.5,31.5 Z" id="Shape"></path>
                        </g>
                    </g>
                </g>
            </g>
        </g>
    </g>
</svg>