<svg id="svg" version="1.1" xmlns="http://www.w3.org/2000/svg" xmlns:xlink="http://www.w3.org/1999/xlink" width="400" height="432" viewBox="0, 0, 400,432"><g id="svgg"><path id="path0" d="M196.585 32.637 C 194.286 33.453,192.221 35.296,191.136 37.500 L 190.200 39.400 190.000 60.452 L 189.800 81.505 180.000 75.820 C 174.610 72.693,165.642 67.488,160.071 64.254 C 148.894 57.764,147.333 57.155,143.900 57.947 C 137.010 59.536,133.922 67.268,137.824 73.164 C 139.170 75.199,138.977 75.076,158.400 86.306 C 167.530 91.584,178.373 97.860,182.496 100.252 L 189.993 104.600 189.996 143.543 C 190.000 180.467,189.964 182.472,189.300 182.218 C 188.915 182.071,175.010 174.103,158.400 164.513 C 141.790 154.922,126.901 146.338,125.313 145.438 L 122.426 143.800 122.413 115.320 C 122.404 96.290,122.255 86.164,121.963 84.802 C 120.071 75.979,107.799 74.478,103.486 82.543 C 102.604 84.193,102.600 84.295,102.488 108.100 C 102.426 121.245,102.312 132.000,102.234 132.000 C 102.156 132.000,94.737 127.747,85.746 122.548 C 66.253 111.276,66.119 111.209,63.087 111.204 C 54.384 111.189,49.916 121.923,56.127 127.925 C 56.827 128.602,65.225 133.676,74.790 139.201 C 84.354 144.726,92.235 149.301,92.302 149.369 C 92.370 149.437,83.414 154.671,72.399 161.001 C 50.458 173.609,49.727 174.137,48.787 178.054 C 47.225 184.566,51.842 190.400,58.559 190.400 C 61.214 190.400,60.703 190.667,87.567 175.232 C 100.999 167.514,112.202 161.200,112.461 161.200 C 112.720 161.200,118.438 164.382,125.166 168.271 C 140.521 177.146,153.815 184.826,168.300 193.190 C 174.515 196.778,179.600 199.846,179.600 200.008 C 179.600 200.169,173.525 203.808,166.100 208.093 C 158.675 212.379,143.780 220.979,133.000 227.206 C 122.220 233.432,113.108 238.603,112.751 238.696 C 112.394 238.790,101.097 232.544,87.609 224.795 C 60.650 209.307,61.209 209.600,58.559 209.600 C 49.927 209.600,45.255 219.406,50.856 225.769 C 52.097 227.179,56.393 229.819,72.417 239.018 C 83.423 245.336,92.375 250.558,92.311 250.622 C 92.248 250.686,84.366 255.264,74.798 260.796 C 53.647 273.023,52.779 273.783,53.308 279.614 C 54.113 288.498,61.928 291.309,71.000 285.979 C 77.671 282.060,102.095 268.000,102.232 268.000 C 102.311 268.000,102.426 278.755,102.488 291.900 C 102.600 315.705,102.604 315.807,103.486 317.457 C 107.799 325.522,120.071 324.021,121.963 315.198 C 122.255 313.836,122.404 303.710,122.413 284.680 L 122.426 256.200 140.313 245.909 C 150.151 240.249,165.220 231.565,173.800 226.610 C 182.380 221.656,189.535 217.602,189.700 217.601 C 189.865 217.601,189.998 235.105,189.996 256.500 L 189.993 295.400 182.496 299.748 C 178.373 302.140,167.530 308.416,158.400 313.694 C 138.977 324.924,139.170 324.801,137.824 326.836 C 133.922 332.732,137.010 340.464,143.900 342.053 C 147.324 342.843,148.904 342.230,159.871 335.862 C 165.332 332.692,174.300 327.483,179.800 324.288 L 189.800 318.479 190.000 339.539 L 190.200 360.600 191.136 362.500 C 194.690 369.717,205.310 369.717,208.864 362.500 L 209.800 360.600 210.000 339.550 L 210.200 318.500 220.000 324.185 C 225.390 327.312,234.358 332.516,239.929 335.749 C 251.105 342.235,252.668 342.845,256.100 342.053 C 262.990 340.464,266.078 332.732,262.176 326.836 C 260.888 324.889,260.486 324.621,248.200 317.523 C 242.700 314.345,231.857 308.067,224.105 303.573 L 210.010 295.400 210.005 256.457 C 210.000 219.763,210.040 217.530,210.689 217.779 C 211.068 217.924,224.973 225.893,241.589 235.486 C 258.205 245.079,273.099 253.665,274.687 254.564 L 277.574 256.200 277.587 284.680 C 277.596 303.710,277.745 313.836,278.037 315.198 C 279.929 324.021,292.201 325.522,296.514 317.457 C 297.396 315.807,297.400 315.705,297.512 291.900 C 297.574 278.755,297.683 268.000,297.754 268.000 C 297.826 268.000,305.630 272.475,315.097 277.945 C 333.776 288.738,333.903 288.800,337.073 288.800 C 345.625 288.800,350.020 277.997,343.873 272.079 C 343.173 271.405,334.771 266.327,325.202 260.796 C 315.634 255.264,307.752 250.685,307.688 250.621 C 307.623 250.556,316.578 245.332,327.586 239.012 C 349.533 226.412,350.269 225.880,351.213 221.946 C 352.775 215.434,348.158 209.600,341.441 209.600 C 338.791 209.600,339.347 209.309,312.449 224.762 C 299.010 232.483,287.803 238.800,287.546 238.800 C 286.908 238.800,220.400 200.376,220.400 200.007 C 220.400 199.639,286.908 161.200,287.545 161.200 C 287.801 161.200,299.001 167.514,312.433 175.232 C 339.297 190.667,338.786 190.400,341.441 190.400 C 348.158 190.400,352.775 184.566,351.213 178.054 C 350.273 174.137,349.542 173.609,327.601 161.001 C 316.586 154.671,307.626 149.440,307.690 149.377 C 307.753 149.314,315.634 144.736,325.202 139.204 C 346.353 126.977,347.221 126.217,346.692 120.386 C 345.887 111.502,338.072 108.691,329.000 114.021 C 322.028 118.117,297.902 132.000,297.756 132.000 C 297.670 132.000,297.598 121.425,297.596 108.500 L 297.592 85.000 296.651 82.978 C 292.698 74.490,279.981 75.737,278.037 84.802 C 277.745 86.163,277.595 96.296,277.586 115.320 L 277.571 143.800 244.469 162.881 C 226.262 173.375,211.059 182.079,210.683 182.223 C 210.042 182.470,210.000 180.102,210.006 143.543 L 210.011 104.600 215.506 101.418 C 218.528 99.668,224.600 96.147,229.000 93.593 C 233.400 91.039,241.770 86.193,247.600 82.825 C 260.530 75.355,260.880 75.123,262.176 73.164 C 266.078 67.268,262.990 59.536,256.100 57.947 C 252.667 57.155,251.106 57.764,239.929 64.254 C 234.358 67.488,225.390 72.693,220.000 75.820 L 210.200 81.505 210.000 60.452 L 209.800 39.400 208.864 37.500 C 206.682 33.069,201.333 30.951,196.585 32.637 " stroke="none" fill="#040404" fill-rule="evenodd"></path><path id="path1" d="M0.000 193.600 L 0.000 387.200 200.000 387.200 L 400.000 387.200 400.000 193.600 L 400.000 0.000 200.000 0.000 L 0.000 0.000 0.000 193.600 M203.566 32.490 C 205.380 33.042,208.342 35.808,209.252 37.800 C 209.929 39.284,209.983 40.921,209.991 60.300 C 209.996 71.795,210.077 81.200,210.171 81.200 C 210.265 81.200,219.396 75.939,230.463 69.508 L 250.584 57.816 253.255 57.665 C 259.506 57.312,263.982 61.457,263.982 67.600 C 263.982 73.382,263.303 73.976,243.800 85.258 C 235.440 90.094,224.415 96.486,219.300 99.462 L 210.000 104.873 210.000 143.673 L 210.000 182.473 212.362 181.136 C 213.662 180.401,228.757 171.700,245.906 161.800 L 277.088 143.800 277.344 140.840 C 277.485 139.211,277.608 125.981,277.618 111.440 C 277.631 90.971,277.751 84.676,278.148 83.564 C 281.117 75.258,292.886 74.708,296.851 82.689 L 297.800 84.600 297.662 108.158 C 297.534 129.846,297.575 131.695,298.178 131.464 C 298.538 131.325,301.841 129.473,305.517 127.347 C 335.717 109.880,334.377 110.562,337.807 110.916 C 345.947 111.756,349.842 121.297,344.592 127.537 C 343.477 128.862,340.968 130.389,321.800 141.403 C 314.980 145.321,309.080 148.744,308.690 149.009 C 307.936 149.519,306.687 148.764,338.000 166.733 C 348.128 172.545,349.543 173.602,350.879 176.364 C 354.929 184.729,345.534 193.852,337.231 189.616 C 336.369 189.176,324.837 182.597,311.603 174.995 L 287.543 161.174 254.271 180.384 C 235.972 190.950,220.820 199.685,220.600 199.797 C 220.333 199.932,220.333 200.067,220.600 200.202 C 220.998 200.404,241.492 212.226,271.673 229.665 L 287.545 238.836 311.614 225.005 C 324.852 217.398,336.383 210.817,337.240 210.380 C 345.534 206.148,354.926 215.277,350.879 223.636 C 349.445 226.599,348.198 227.436,327.689 239.201 C 310.646 248.978,308.074 250.574,308.689 250.990 C 309.080 251.254,315.970 255.257,324.000 259.886 C 344.080 271.462,343.400 271.047,344.576 272.445 C 349.842 278.703,345.960 288.243,337.807 289.084 C 334.377 289.438,335.717 290.120,305.517 272.653 C 301.841 270.527,298.538 268.675,298.178 268.536 C 297.575 268.305,297.534 270.154,297.662 291.842 L 297.800 315.400 296.851 317.311 C 292.886 325.292,281.117 324.742,278.148 316.436 C 277.752 315.326,277.631 309.141,277.618 289.161 C 277.608 274.950,277.484 261.720,277.342 259.761 L 277.084 256.200 245.889 238.200 C 228.732 228.300,213.637 219.604,212.345 218.876 L 209.996 217.551 210.098 256.418 L 210.200 295.285 234.600 309.410 C 248.020 317.179,259.789 324.213,260.752 325.041 C 267.977 331.249,262.938 342.885,253.263 342.335 L 250.600 342.183 230.466 330.492 C 219.393 324.061,210.258 318.800,210.166 318.800 C 210.075 318.800,209.996 328.205,209.991 339.700 C 209.981 363.193,210.091 362.274,206.948 365.280 C 201.940 370.070,193.689 368.500,190.761 362.200 C 190.067 360.706,190.017 359.220,190.009 339.700 C 190.004 328.205,189.923 318.800,189.829 318.800 C 189.735 318.800,180.604 324.061,169.537 330.492 L 149.416 342.184 146.745 342.335 C 137.061 342.882,132.019 331.253,139.248 325.041 C 140.720 323.776,153.922 315.989,184.400 298.409 L 189.800 295.295 189.902 256.410 L 190.004 217.525 187.640 218.862 C 186.339 219.598,171.242 228.300,154.091 238.200 L 122.906 256.200 122.653 258.559 C 122.514 259.856,122.392 273.086,122.382 287.959 C 122.369 308.917,122.249 315.323,121.852 316.436 C 118.882 324.743,107.069 325.288,103.135 317.299 L 102.200 315.400 102.337 291.843 C 102.462 270.303,102.419 268.307,101.829 268.534 C 101.474 268.670,93.583 273.167,84.292 278.528 C 65.991 289.089,65.324 289.407,62.193 289.084 C 55.232 288.366,50.982 280.978,53.953 274.759 C 55.324 271.889,55.942 271.467,74.398 260.797 C 83.966 255.264,91.845 250.689,91.905 250.628 C 91.966 250.567,83.147 245.427,72.308 239.204 C 51.792 227.427,50.553 226.595,49.121 223.636 C 45.062 215.252,54.468 206.149,62.799 210.399 C 63.677 210.847,75.209 217.429,88.426 225.025 L 112.456 238.836 128.328 229.665 C 158.508 212.226,179.002 200.404,179.400 200.202 C 179.659 200.071,179.650 199.926,179.375 199.792 C 179.141 199.677,173.561 196.467,166.975 192.658 C 160.389 188.849,145.427 180.205,133.727 173.449 L 112.454 161.166 88.425 174.976 C 75.209 182.572,63.677 189.153,62.799 189.601 C 54.468 193.851,45.062 184.748,49.121 176.364 C 50.534 173.444,51.818 172.563,69.200 162.594 C 78.330 157.357,87.198 152.265,88.907 151.278 C 91.643 149.698,91.929 149.427,91.307 149.006 C 90.918 148.743,85.020 145.322,78.200 141.404 C 58.635 130.165,56.556 128.901,55.430 127.563 C 50.198 121.344,54.054 111.756,62.124 110.923 C 65.322 110.593,65.979 110.902,83.000 120.735 C 91.580 125.692,99.320 130.162,100.200 130.669 C 101.080 131.176,101.951 131.593,102.135 131.595 C 102.319 131.598,102.409 121.025,102.335 108.100 L 102.200 84.600 103.149 82.689 C 107.132 74.670,118.975 75.271,121.858 83.640 C 122.266 84.823,122.388 91.321,122.418 113.476 C 122.439 129.054,122.551 142.250,122.667 142.800 C 122.851 143.679,155.987 163.231,187.638 181.136 L 190.000 182.473 190.000 143.673 L 190.000 104.873 180.700 99.462 C 175.585 96.486,164.560 90.094,156.200 85.258 C 136.697 73.976,136.018 73.382,136.018 67.600 C 136.018 61.457,140.494 57.312,146.745 57.665 L 149.416 57.816 169.537 69.508 C 180.604 75.939,189.735 81.200,189.829 81.200 C 189.923 81.200,190.000 71.834,190.000 60.387 C 190.000 37.242,189.923 37.963,192.720 35.067 C 195.741 31.939,199.118 31.136,203.566 32.490 " stroke="none" fill="#fbfbfb" fill-rule="evenodd"></path><path id="path2" d="M102.174 96.600 C 102.175 102.320,102.231 104.604,102.299 101.676 C 102.368 98.748,102.367 94.068,102.299 91.276 C 102.230 88.484,102.174 90.880,102.174 96.600 M297.773 96.200 C 297.773 101.700,297.830 104.005,297.899 101.323 C 297.968 98.641,297.968 94.141,297.899 91.323 C 297.830 88.505,297.774 90.700,297.773 96.200 M277.314 141.800 C 277.317 142.900,277.395 143.303,277.487 142.695 C 277.579 142.086,277.577 141.186,277.482 140.695 C 277.387 140.203,277.311 140.700,277.314 141.800 M122.501 257.800 C 122.505 258.680,122.587 258.993,122.683 258.495 C 122.779 257.998,122.775 257.278,122.675 256.895 C 122.575 256.513,122.496 256.920,122.501 257.800 M277.324 258.600 C 277.326 259.920,277.401 260.412,277.490 259.693 C 277.579 258.974,277.577 257.894,277.486 257.293 C 277.395 256.692,277.322 257.280,277.324 258.600 M102.174 303.600 C 102.174 309.210,102.230 311.505,102.299 308.700 C 102.368 305.895,102.368 301.305,102.299 298.500 C 102.230 295.695,102.174 297.990,102.174 303.600 M297.773 303.800 C 297.773 309.300,297.830 311.605,297.899 308.923 C 297.968 306.241,297.968 301.741,297.899 298.923 C 297.830 296.105,297.774 298.300,297.773 303.800 " stroke="none" fill="#9d9d9d" fill-rule="evenodd"></path><path id="path3" d="" stroke="none" fill="#7c7c7c" fill-rule="evenodd"></path><path id="path4" d="M62.500 111.076 C 62.885 111.176,63.515 111.176,63.900 111.076 C 64.285 110.975,63.970 110.893,63.200 110.893 C 62.430 110.893,62.115 110.975,62.500 111.076 " stroke="none" fill="#747474" fill-rule="evenodd"></path></g></svg>